<?xml version="1.0" encoding="UTF-8"?>
<svg id="uuid-ea83446d-8ee6-4bab-88ee-07c27ab7ebcb" data-name="Layer 2" xmlns="http://www.w3.org/2000/svg" viewBox="0 0 399.51 131.43">
  <g id="uuid-8d5c8263-8ca3-4de5-98d7-1837271b8047" data-name="Layer 3">
    <g>
      <path d="M302.59,59.75c-.92.76-21.4-6.43-17.67,8.49,1.4,5.61,14.29,7.76,18.54,6.53,2.39-.69,14.98-26.35,17.1-13.67.58,3.5-5.12,5.86-5.24,10.16-.04,1.53,3.96,1.39,4.3,1.96,6.51,10.95-7.38,4.99-11.49,7.46-2.51,1.5-9.88,28.52-8.08,30.29,3.77,3.71,17.25-5.8,17.9-5.11,4.14,4.35-14.97,19.13-21.57,7.74-3.78-6.53,6.06-28.02,5.96-29.55-.09-1.44-8.19-6.33-8.73-6.3-3.52.19-4.45,14.7-8.84,19.26-11.29,11.73-12.07-2.11-10.03-12.59,6.43-10.18,5.76,3.65,6.05,3.46,6.08-3.92,3.58-13.72-1.33-16.71-2.4-1.46-7.34,2.23-8.97-1.15-.55-1.13,2.08-4.65,1.35-5.11-8.46-5.39-11.51,21.34-12.47,24.77-1.21,4.35,1.89,7.14-5.46,5.92.78-5.86-1.25-34.34,2.47-37.17,6.32-4.82,22.03,4.48,23.05,3.83.23-.15-.5-3.42,1.9-5.07,11.69-8.04,27.59-2.73,21.25,2.55Z"/>
      <path d="M200.08,16.21c-6.59,6.48-8.75-8.14-10.04-9.15-9.31-7.3-29.55,12.18-34.49,19.71-18.72,28.53,11.6,81.43-11.81,93.26-17.37,8.78-30.39-32.75-20.66-43.75,2.3-2.59,8.16-5.52,10.39-3.68,1.45,1.2-9.05,8.78-9.85,12-2.34,9.44,13.3,46.33,23.27,23.17,5.2-12.09-2.09-24.32-3.13-36.52-1.2-14.01-.77-34.87,6.56-47.15,7.04-11.78,32.21-31.92,46.18-20.91,3.11,2.45,5.18,11.46,3.59,13.03Z"/>
      <path d="M54.01,52.09c1.24,5.82-4.79,14.76-4.17,19.3.4,2.97,11.03,10.29,6.77,19.1,5.45-2.15,4.69-13.11,11.9-15.02,5.36-1.42,7.84,1.03,8.68,6.11,2.73,16.52-12.99,9.5-15.32,11.64-.86.79-5.66,21.8,3.27,19.99,3.68-.75,4.48-8.22,9.34-.94-5.31,7.46-10.67,7.93-17.94,2.59l-2.48-19.22c-2.88,8.18-2.19,16.85-4.41,25.18-1.22,4.57.74,6.63-5.86,5.53-3.44-15.56,7.32-28.26,6.41-43.52-11.53,9.95-9.87,26.26-11.56,39.71-.44,3.5-1.81,8.13-5.09,3.81-4.1-5.4,11.41-58.5,15.13-68.21,1.42-3.7-2.45-7.45,5.34-6.04ZM71.95,82.83c-.18-.19-5.42-.97-5.1,1.26,4,6.99,8.01,1.72,5.1-1.26Z"/>
      <path d="M64.25,23.9c-5.62-.77-5.03-11.83-8.98-12.8-9.79-2.42-18.08,25-18.91,32.28-2.27,19.77,7.21,60.88-18.06,69.02C1.02,117.96-1.74,110.41.83,94.95c.7-4.22,9.98-23,12.24-24.92.3-.26,5.4-.93,5.05,1.24-2.31,5.96-10.06,13.87-11.63,19.1-3.82,12.7-3.48,23.39,11.6,16.72,22.94-10.15,5.58-65.89,21.97-90.74C50.96-.18,66.54,3.2,64.25,23.9Z"/>
      <path d="M105.25,3.42c-2.49,21.47-8.93,40.8-10.1,62.63-1.04,19.45,1.46,38.59,1.48,57.66,0,2.23.34,7.73-2.88,7.73-7.18-.01-6.36-49.84-5.87-56.75,1.18-16.58,6.26-44.99,10.95-61.06,1.12-3.84,1.76-9.13,6.43-10.2Z"/>
      <path d="M379.51,80.25c.77.91,14.51-13.02,19.41,2.5,2.49,7.9-3.51,23.39-7.92,30.78-5.14-5.54,3.96-27.7,1.28-30.71-4.6-5.18-15.66,17.6-17.91,19.24-8.18,5.96-5.71-31.39,5.09-32.06.52,2.55-.7,9.36.05,10.24Z"/>
      <path d="M350.62,79.57c-4.04,4.11-16.52,3.56-17.25,7.12-1.05,5.11,21.22,11.39,8.91,14.05-16.58,3.58-22.32-32.74-4.53-37.94,12.86-3.76,19.93,9.57,12.87,16.77ZM346.16,67.46c-2.28-2.49-15.37,5.05-10.22,10.22,4,4.02,14.33-5.74,10.22-10.22Z"/>
      <path d="M192.4,23.92c-6.48,28.13-9.11,52.86-6.22,81.8,1.16,11.6-5.84,4.68-6.71-3.56-1.72-16.18.59-58.31,6.67-73.11,1.67-4.06-.33-6.29,6.26-5.13Z"/>
      <path d="M231.26,75.5c-6.63,10.62,7.56,15.31,7.27,16.27-1.19,3.92-8.94,5.98-11.59,1.36-1.96-3.43-2.08-22.46-1.23-26.97,1.41-7.53,19.62-16.89,20.7-5.08s-13.79,12.22-15.16,14.42ZM238.53,62.34c-2.8-2.79-7.89,2.3-5.1,5.1,2.8,2.79,7.89-2.3,5.1-5.1Z"/>
      <path d="M197.55,64.9c7.9-10.36,1.65,20.82,8.92,17.89,2.25-.9,7.13-6.96,8.42-9.52,2.08-4.12,4.2-22.23,7.92-9.15,3.37,11.87-20.64,35.35-24.86,22.13-.85-2.65-1.04-20.5-.39-21.35Z"/>
      <path d="M364.1,67.46c2.86,2.61-3.11,41.53-10.22,33.27-.89-1.04,4.13-22.21,4.97-26.89s-2.18-7.57,5.26-6.38Z"/>
      <path d="M166.77,64.9c-.84,8.29.14,23.03-7.65,28.16-.52-7.02-.11-13.67,1.26-20.61.9-4.57-.08-9.09,6.39-7.55Z"/>
      <path d="M171.9,52.07c-3.48,3.94-8.78-3.41-1.26-7.66,2.27.1,1.51,7.37,1.26,7.66Z"/>
    </g>
  </g>
</svg>