<?xml version="1.0" encoding="UTF-8"?>
<svg id="uuid-ef3ba645-54ed-44dc-8243-8e593734839e" data-name="Layer 2" xmlns="http://www.w3.org/2000/svg" viewBox="0 0 96.43 90.63">
  <defs>
    <style>
      .uuid-56c7f9ae-b834-4b72-9f75-ef174155d996 {
        fill: #e7a614;
      }

      .uuid-b3ca3f24-7abe-4e6c-a8d0-d786dc582af6 {
        fill: #005596;
      }
    </style>
  </defs>
  <g id="uuid-b7fe00dc-1391-4bb1-b208-fa84b0aa23c9" data-name="Layer 1">
    <g>
      <path class="uuid-b3ca3f24-7abe-4e6c-a8d0-d786dc582af6" d="M94.3,85.02c-.11-.03-.22-.04-.32-.05h0c-.19-1.15-1.23-5.01-6.69-7.78.28-.29,1.6-1.33,7.01-2.2l-6.95-7.52-1.86,4.73s0,.02-.02.06l-3-3.23-3.59-3.98,11.25-34.85-17.85-12.75,8.51-9.65,1.03-7.45-7.3,1.78-9.41,10.18L47.87,0l-16.6,12.23L21.93,2.12,14.63.34l1.03,7.45,8.52,9.66L6.91,30.16l10.75,34.77-3.69,4.1-3.01,3.23s-.02-.06-.02-.06l-1.86-4.73-6.95,7.52c5.41.87,6.73,1.91,7,2.2-5.46,2.76-6.5,6.62-6.69,7.77h0c-.11.02-.21.02-.32.05-1.52.4-2.44,1.95-2.05,3.48.4,1.52,1.95,2.44,3.48,2.05,1.24-.32,2.07-1.42,2.12-2.64,1.11-.3,4.86-1.72,7.06-7.45.29.22,1.45,1.41,2.89,6.77l6.6-7.47v.02s51.89,0,51.89,0l.02-.07,6.65,7.52c1.44-5.36,2.59-6.54,2.89-6.77,2.2,5.73,5.95,7.15,7.06,7.45.05,1.22.88,2.32,2.12,2.64,1.52.39,3.08-.52,3.48-2.05.39-1.52-.52-3.08-2.05-3.48M17.55,78.16l2.85-3.33.24-.26,1.51,4.87-4.59-1.28ZM61.54,47.78l10.54,29.11-23.58-19.07-24.34,18.57,10.29-28.6L9.61,30.72h29.61L48.06,3.88l8.72,26.84h29.86l-25.09,17.06ZM74.22,79.46l1.58-4.88.23.26,2.85,3.33-4.66,1.3Z"/>
      <polygon class="uuid-56c7f9ae-b834-4b72-9f75-ef174155d996" points="58.49 46.79 60.12 45.68 78.41 33.25 56.78 33.25 54.94 33.25 54.37 31.5 48.04 12.02 41.62 31.51 41.05 33.25 39.22 33.25 17.77 33.25 35.88 45.69 37.49 46.8 36.83 48.64 29.45 69.16 46.96 55.8 48.54 54.59 50.09 55.85 66.61 69.2 59.16 48.64 58.49 46.79"/>
    </g>
  </g>
</svg>