<?xml version="1.0" encoding="UTF-8"?>
<svg id="uuid-a3ac20a6-3083-4c34-b628-c7a4c4d2bafd" data-name="Layer 2" xmlns="http://www.w3.org/2000/svg" viewBox="0 0 415.9 807.85">
  <g id="uuid-af0f4f8c-723d-4909-874d-cbc2419c21e9" data-name="Layer 3">
    <g id="uuid-7972fb48-b220-450e-a079-4f551a39711d" data-name="XnjYk6.tif">
      <g>
        <path d="M415.9,0v807.85H0V0h415.9ZM333.12,68.82h-111.7v64.83h16.95v-44.88h94.75v-19.95ZM194.48,169.55v-19.45l-1.5-1.5h-108.71l-1.5,1.5v19.45h44.88v44.88h-44.88v19.95h111.7v-19.95h-48.37l-1.5-1.5v-43.38h49.87ZM333.12,169.55v-19.45l-1.5-1.5h-108.71l-1.5,1.5v19.45h111.7ZM333.12,195.48h-111.7v41.39c0,12.07,7.61,27.8,19.26,32.6,16.57,6.83,32.32,1.58,39.09-15.14,7.44,18.99,35.71,17.94,46.8,2.92,2.24-3.04,6.55-12.91,6.55-16.39v-45.38ZM105.67,271.36c-3.27-.35-11.54-8.81-13.89-7.63-7.29,3.64-12.39,27.32-12.02,35.01,1.71,35.72,41.95,48.49,60.68,15.73,6.64-11.61,9-32.88,25.63-31.22,19.54,1.96,13.39,33.35,3.67,43.39,0,1.32,12.9,9.93,14.75,9.02,2.18-1.07,6.1-8.34,7.18-10.85,12.2-28.27,2.46-66.7-34.48-62.41-22.3,2.59-25.72,26.28-34.98,41.82s-24.58,8.5-25.39-7.67c-.48-9.6,5.35-16.94,8.85-25.19ZM333.12,296.21h-111.7v19.95h44.88c1.29,14.78-1.2,19.02-13.29,26.1-6.08,3.57-26.68,11.7-29.48,16.4-.36.6-2.11,5.56-2.11,5.87v17.45c2.97-.57,5.97-2.41,8.65-3.82,9.1-4.77,35.26-18.28,40.68-25.16.89-1.13,1.38-2.51,1.55-3.93l1.98.65c7.01,26.33,45.66,24.53,55.34,1.33,1.02-2.45,3.5-10.26,3.5-12.45v-42.39ZM194.48,361.04h-111.7v19.95h111.7v-19.95ZM221.41,392.96v20.94l25.99,8.59-.22,39.62c-.98,2.88-15.02,5.56-18.5,7.44-9.14,4.92-7.17,14.29-7.27,23.14l111.77-40.35-1.05-20-110.72-39.38ZM99.74,403.93h-16.95v82.78h15.46l1.5-1.5v-30.42h94.75v-19.95h-94.75v-30.92ZM333.12,550.04c1.25-12.96-.93-27.72,0-40.89l-1.5-1.5h-108.71l-1.5,1.5v17.95l1.5,1.5h43.38c.63,12.42.49,17.51-10.3,24.1-7.48,4.57-34.58,13.87-34.58,23.27v18.45l45.81-25.5,5.07-7.41,1.98.65c7.27,24.85,42.38,24.42,54.29,3.27,2.21-3.93,4.12-10.95,4.55-15.4ZM194.48,508.65h-111.7v19.95h111.7v-19.95ZM194.48,554.53c-1.45-.25-2.45.25-3.71.78-7.84,3.32-41.83,22.89-46.21,28.63-.77,1.01-1,2.26-.96,3.5l-1.98-.65c-7.34-27.53-47.87-24.46-56.33.68-.72,2.15-2.52,9.63-2.52,11.44v41.39h111.7v-19.95h-44.88c-.71-13.55-.17-18.19,11.3-25.1,6.39-3.85,28.56-12.5,31.48-17.39.36-.6,2.11-5.56,2.11-5.87v-17.45ZM333.12,586.44c-1.18-.22-1.92.14-2.94.55-9.5,3.81-59.8,33.36-63.38,33.36h-43.88l-1.5,1.5v18.45h44.38l67.32,34.91v-17.45c0-.28-2.94-3.82-3.63-4.35-7.12-5.53-24.94-12-33.93-16.93-1.31-.72-9.29-5.11-9.29-5.65l46.86-24.93v-19.45ZM82.78,695.65c-1.42,13.45,1.06,29.17,0,42.89l1.5,1.5h108.71l1.5-1.5v-41.89c0-3.92-3.15-14.11-5.16-17.78-10.89-19.86-44.97-22.98-51.7,1.32l-2.07-.63c-5.07-11.47-16.96-13.64-28.34-12.34-13.77,1.57-23.06,15.49-24.43,28.43Z"/>
        <path d="M177.53,720.09h-31.92v-21.44c0-1.67,3.02-8.92,4.44-10.52,6.99-7.86,19.62-5.58,24.69,3.33.62,1.09,2.78,6.43,2.78,7.19v21.44Z"/>
        <path d="M129.66,720.09h-30.92v-20.45c0-.35,2.18-5.77,2.57-6.41,4.73-7.79,18.94-8.78,24.37-1.57,1.39,1.85,3.98,9.05,3.98,10.98v17.45Z"/>
        <path d="M270.28,215.43v21.44c0,.35-1.87,5.92-2.25,6.72-5.31,11.17-21.38,10.54-27.07-.34-.44-.85-2.59-6.04-2.59-6.39v-21.44h31.92Z"/>
        <path d="M317.16,215.43v19.45c0,2.37-3.43,8.76-5.47,10.48-4.98,4.2-15.98,4.28-20.48-.49-1.34-1.42-4.96-10.43-4.96-11.99v-17.45h30.92Z"/>
        <path d="M317.16,528.6v17.45c0,.33-1.47,5.45-1.78,6.2-4.16,10.07-19.36,10.65-26.68,3.31-1.87-1.87-5.45-9.18-5.45-11.5v-15.46h33.91Z"/>
        <path d="M132.65,620.35h-32.41l-1.5-1.5v-16.95c0-2.49,2.9-8.15,4.96-10,8-7.2,20.97-4.33,26.17,4.8.62,1.09,2.78,6.43,2.78,7.19v16.46Z"/>
        <path d="M317.16,316.16v18.45c0,.76-2.16,6.11-2.78,7.19-4.14,7.19-15.82,8.23-22.48,4.11-4.07-2.51-8.65-9.57-8.65-14.29v-15.46h33.91Z"/>
        <polygon points="263.3 427.86 309.19 442.33 265.33 457.35 263.3 456.29 263.3 427.86"/>
      </g>
    </g>
  </g>
</svg>