<?xml version="1.0" encoding="UTF-8"?>
<svg id="uuid-084c8922-f91d-4cca-8873-d9c46cba4049" data-name="Layer 2" xmlns="http://www.w3.org/2000/svg" viewBox="0 0 280.54 267.03">
  <g id="uuid-78817fc9-b699-4944-9cba-ae9c99648f9a" data-name="Layer 3">
    <g>
      <path d="M174.68,39.76c3.61,3.64-.39,7.26-1.3,10.84-1.74,6.87-3.3,37.59-6.51,40.61-1.62,1.53-5.17,1.6-6.26-.64l-4.33-22.47c-2.14,3.89-4.2,11.2-2.38,15.35,1.1,2.49,3.75,2.26,2.36,6.22s-4.81,4.6-8.52,4.29c-11.03-.93-4.05-9.85-2.38-16.01,1.87-6.86,1.58-14.13,2.68-21.09-1.27.87-3.59,2.66-4.34,3.87-.99,1.59-4.19,16.04-4.24,18.32-.1,4.59,4.46,10.36-1.78,12.86-2.8,1.12-7.21,1.59-10.04.47-8.17-3.25.43-6.62,2.42-11.54,1.33-3.27,6.21-21.72,5.86-24.33s-2.75-3.33-.92-6.16c2.19-3.38,8.04-5.44,11.58-3.06,1.29.87,1.21,5.05,3.17,3.52.61-.47.3-5.77,6.37-4.38l5.75,13.89c.63-2.14,1.13-4.2.92-6.48-.36-3.89-4.21-5.47-2.18-9.93,1.56-3.44,11.12-7.1,14.05-4.14Z"/>
      <path d="M65.6,44.13c3.7,4.4,2.03,15.63,4.5,21.03-.91,3.63,1.45,23.12.55,24.57-2.19,3.54-16.27,4.07-15.15-2.94.69-4.26,7.75-8.46,5.16-15.23l-2.58,6.49c-6.79,8.07-9.15-7.37-9.96-7.37-.36,0-1.03,6.35-.99,7.23.2,4.36,6.08,8.11,3.24,11.46-2.35,2.76-18.12,3.11-19.79.17-2.56-4.48,4.05-7.5,5.29-11.2,3.01-9.01.89-23.53,8.32-31.46,6.01-6.41,9.32,12.36,11.28,10.85,1.27-.98,2.77-22.35,10.13-13.58Z"/>
      <path d="M81.99,102.13c4.72,5.13,6.4,12.6,2.43,18.68-.54.82-4.96,5.36-5.6,5.65-2.39,1.08-9.93,0-10.37.44-.6.6.47,7.48,1.1,8.86,1.47,3.23,5.06,2.81,1.89,7.54-2.97,4.42-13.01,6.67-18.09,6.12-10.12-1.11-.1-7.34,1.67-12.15,2.16-5.88,2.49-24.85-1.2-29.68-.87-1.14-7.53-1.8-6.96-4.4,1.06-4.89,12.16-5.34,15.78-5.87,1.32-.2,2.52-1.45,4.53-1.6,4.88-.37,11.59,2.9,14.83,6.42ZM72.55,108.97c-.94-1.16-5.97-2.89-7.18-1.14-.64.93.6,9.57,1.29,10.05,3.8,2.66,8.78-5.36,5.89-8.91Z"/>
      <path d="M122.78,39.38c-1.09.76-11.42,2.95-12.75,2.37-.85-.37-2.64-2.39-2.65-3.48,0-.7,2.7-.68,3.32-2.77.51-1.7.29-7.66-1.55-8.47-4.27-1.87-7.12.46-6.71,4.83.33,3.53,6.54,8.56-.63,9.47-2.43.31-10.87.42-12.16-1.76-3.23-5.46,3.92-7.38,5.04-9.75.56-1.18,4.74-17.59,4.72-18.54-.03-1.69-3.69-4.59,1.09-6.72,4.67-2.08,9.14,1.18,10.81,1.05.49-.04,5.21-3.37,8.86-3.87,13.61-1.83,6.33,4.07,4.28,10.32-.81,2.46-3.61,13.85-3.6,16.14.02,3.26,4.84,9.17,1.94,11.19ZM112.55,17.9c.44-.42,2.96-10.85-.81-11.2-.35,3.26-7.04,6.4-6.03,9.85.54,1.83,6.44,1.74,6.84,1.35Z"/>
      <path d="M175.64,95.89c2.45,1.5,2.45,14.28-.25,16.39-3.57,2.79-8.36-2.69-10.45-.08-4.47,5.58,2.1,4.07,3.68,5.39.85.71,2.07,5.69,1.93,7.06-.85,8.5-7.79,3.05-8.64,3.97-.22.24-.88,6.12-.82,6.44.49,2.57,4.8-.49,7.22-.36,5.94.32,4.68,11.48,2.07,14.92-3.64,4.8-7.77-.73-11.88-1.59-3.55-.75-10.94,1.02-10.46-4.22.14-1.49,4.4-7.43,5.36-10.29,1.66-4.89,3.39-21.5,3.39-26.96,0-2.96-3.36-10.47,1.95-9.72,3.91.55,5.14,3.42,11.19,1.31,1.54-.54,3.36-3.72,5.71-2.28Z"/>
      <path d="M200.71,50.06c4.12,6.61-14.21,18.66-14.14,5.07-6.55,2.17-9.16,22.66-4.32,25.07,1.44.72,1.36-1.01,1.72-1.68,3.01-5.66-1.55-4.58-.98-7.85,1.53-8.65,17.2-9.17,16.95-2.13-.09,2.34-3.68,4.73-4.66,6.54-1.24,2.3-1.76,6.23-3.2,8.91-3.42,6.39-11.51,11.26-16.71,3.94-6.69-9.42-3.03-29.28,2.8-38.59,2.19-3.49,5.69-6.68,10.13-6.4,3.35.22,4.07,3.18,6.55,4.76,1.17.74,5.57,1.92,5.85,2.37Z"/>
      <path d="M146.95,97.65c9.45-2.12,7.57,16.99,1.5,18.02-4.35.74-4.67-2.39-6.91-2.63-7.52-.82-9.29,14.39-6.89,19.92,3.33,7.68,6.46-5.1,7.32-5.7,2.61-1.81,6.99,2.4,7.62,5.47,2.28,11.16-15.83,19.63-23.15,6.71-6.86-12.11-1.23-33.27,12.15-38.86,1.55-.65,3.15-.25,4.49-.7,1.42-.48,2.37-1.89,3.87-2.22Z"/>
      <path d="M47.69,260.94c-12.66-8.67-13.44-30.14-7.1-42.98,11.13-22.57,31.99-32.61,56.14-22.89,2.55,1.02,9.6,5.47,9.76,8.32.29,5.08-12.56,20.1-15.91,24.75-1.63,2.26-2.82,5.41-4.44,7.67-1.78,2.49-5.41,4.76-6.01,7.82,4.58-4.24,11.43-6.29,16.44-9.53,4.55-2.94,11.12-9.2,15.6-12.96,1.06-.89,2.99-5.19,5.66-3.08.35.27,2.87,7.19,3.06,8.25,1.78,9.97-4.86,22.91-12.22,29.42l-11.66,7.8c10.6,1.79,20.78,2.34,31.53,1.63,5.74-.38,11.98-2.16,17.4-2.52,13.85-.91,28.85,2.3,44,.81,5.64-.55,14.56-3.61,20.03-3.27,22.3,1.39,44.86-.94,67.45.78,1.15.09,3.63-.77,3.04,1.28-.55,1.91-14.53-1.16-16.79-1.2-17.02-.33-33.13,2.21-50.37.87-10.48-.81-21.39,2.82-31.85,3.38-12.54.67-26.33-2-38.17-.91-12.83,1.19-22.84,2.8-36.12,2.31-15.64-.58-31.08.37-46.95.36-18.54-.01-37.52-1.18-56.12-3.59-1.37-.18-4.72-.3-3.98-2.49,3.27,1.29,6.56.55,9.84.97,9.93,1.25,19.43,2.81,29.53,3.42,3.08.19,6.6-1.11,9.94-.07.44-1.99-.97-2.93-1.73-4.32,6.34,4.34,20.89,4.48,28.96,3.92,17.16-1.18,31.54-5.64,39.56-22.36,1.9-3.96,5.65-21,.25-22.21-1.26-.28-17.17,13.84-20.38,15.93-4.87,3.17-15.7,10.07-20.51,12.37-.74.35-3.73,1.67-3.64-.19.04-.8,9.76-9.61,11.23-11.48,4.66-5.95,12.29-16.17,16.32-22.37.65-1.01,5.29-9.73,5.35-10.31.78-7.42-20.27-11.26-25.73-11.3-25.59-.2-47,29.66-39.46,54.01,1.68,5.42,5.52,9.34,8.06,14Z"/>
      <path d="M114.32,115.65c.2.22,3.41-1.25,5.68.81,2.58,2.34,3.05,10.87-.5,12.64-3.87,1.94-8.11-8.29-9.84,2.3-1.51,9.25,5.33.35,6.99-.09,6.35-1.69,3.04,15.59-1.02,16.12-1.57.2-2.23-2.25-2.78-2.36-4.12-.87-9.8,2.06-10.69-4.73-1.46-11.11,4.81-21.49,5.18-32.18.14-4.01-3.5-9.93,3.17-10.66,2.36-.26,3.96.8,5.97.86,2.81.08,3.92-2.06,7.34.45,5.83,4.28-.99,13.76-2.9,13.32-1.14-.26-2.1-3.18-4.41-2.53-1.14.32-2.4,5.8-2.19,6.04Z"/>
      <path d="M130.69,65.44c-1.92,1.33-5.19-2.4-5.99-1.66-.32.3,2.17,6.75,2.37,8.43.76,6.31-2.17,17.72-9.84,18.34-2.15.18-4.53-1.01-5.78-.7s-2.42,2.64-4.84,2.93c-3.82.46-5.38-4.55-4.23-7.62,2.4-2.84,2.33-16.51,7.92-12.63,2.41,1.68,1.74,6.45,5.38,3.43,5.32-4.42-3.26-14.76-2.06-20.2.99-4.51,8.73-4.72,11.9-8.02,9.73-3.13,6.97,16.46,5.17,17.71Z"/>
      <path d="M139.41,11.03c-.12.12-.11,3.32,0,3.45.19.22,2.65-1.42,3.45-.86s1.04,6.71.81,8.16c-1.1,7.08-6.29,1.78-6.85,2.21-.25.2-1.08,3.38-.5,4.33,2.75,4.48,7.93-2.63,9.58-2.63,4.71-.02,6.56,13.86-2.05,14.28-2.46.12-3.87-1.56-5.7-1.74-2.41-.23-9.04,1.04-10.86-.81-4.16-4.21,5.2-17.99,3.3-24.07-1.05-3.36-5.45-3.64.17-8.82,5.82-5.38,13.04-6.21,19.36-1.17,2.85,2.28,3.13,8.58.99,11.12-3.27,3.88-8.63-6.53-11.69-3.45Z"/>
      <path d="M103.06,60.32c-1.53-.03-.96,3.81-.85,4.74.92,7.83,3.02,9.91-.7,18.34-3.11,7.05-14.2,11.64-15.7,2.37-.77-4.8,2.2-19.81,6.96-11.26.83,1.49.32,4.84,3.41,2.7,3.49-2.41-6-16.17-2.95-22.11,2.13-4.15,6.9-5,10.62-6.54,1.72-.71,1.93-3.21,5.25-1.67,6.35,2.95,1.76,17.75-3.03,17.78-1.99.01-2.79-2.77-3.03-4.36Z"/>
      <path d="M89.83,100.24c3.45-1.05,12.7,2.47,13.26,6.39.55,3.83-4.24,5.61-5.16,9.51-.81,3.41-1.36,18.2-.94,21.59.53,4.32,5.45,6.34-.37,9.57-3.78-1.73-19.05,1.84-19.57-3.56-.43-4.5,7.25-4.44,9.07-7.29.71-7.13,4.03-16.91,3.99-23.85-.01-3.04-6.94-10.32-.28-12.36Z"/>
      <path d="M96.15,5.83c.39.39.22,9.53-.8,10.88-2.51,3.33-7.25-3.36-8.59.94-.21.67-1.17,8.8-1.07,9.31.17.91,2.43.34,3.14,1.3,2.34,3.13-3.22,8.12-6.14,8.67-3.07.58-13.47-.33-11.23-5.14.8-1.72,3.84-2.29,4.59-4.08.92-2.19,2.64-11.96-1.93-10.56-.58.18-4.39,6.24-7.34,4.2-.55-.38-3.27-10.13-.68-11.8.71-.46,13.68-2.48,15.86-2.74,1.83-.22,13.67-1.47,14.18-.97Z"/>
      <path d="M87.28,49.27c3.69,3.7-1.5,8.23-2.18,10.81-1.6,6-1.22,16.73-1.11,23.18.03,1.95,1.23,4.18.79,5.83-1.06,3.95-9.58,1.88-11.18-.62-2.67-4.18,1.23-6.68,1.73-10.53.46-3.54.54-15.66.1-18.98-.37-2.83-3.84-5.21-3.35-7.63.92-4.58,12.3-4.98,15.21-2.06Z"/>
      <path d="M71.05,203.86c-.9.89-3.47-1.72-2.59-2.59s3.47,1.72,2.59,2.59Z"/>
    </g>
  </g>
</svg>