<?xml version="1.0" encoding="UTF-8"?>
<svg id="uuid-a7f5c55f-5f6a-48ee-85a6-7886603e41de" data-name="Layer 2" xmlns="http://www.w3.org/2000/svg" viewBox="0 0 398.76 312.84">
  <g id="uuid-0eb45e86-74e6-4e69-960b-61613568d6f0" data-name="Layer 3">
    <g id="uuid-aeedf094-ecba-4917-a657-246ebb78ab4e" data-name="p2eWC9">
      <g>
        <path d="M211.78,35.39c.25.95-.91,1.95-1.12,2.73-.09.91-.54,1.78-.19,2.7.11.26.08.63.31.77.47.22,2.9-.13,3.81-.03.57.02.45,1.01.06,1.23-.72.3-1.6.05-2.38.07-.7.03-1.29-.12-1.91-.4-.52-.3-1.31-.03-1.66-.43-.32-.58.46-2.42.63-3.65.08-.67.01-.94.37-1.46.42-.63.87-1.36,1.3-1.97.15-.23.34-.08.44.02.11.1.23.22.31.35l.04.07Z"/>
        <path d="M3.19.28c.03.37-.32.82-.47,1.18-.6,1.1-.63,2.26-.64,3.71.09.67-.32,3.05.51,3.06,1.04-.14,2.15-2,3.15-3.16,1.22-1.1,1.43-2.79,1.98-4.33C7.94,0,8.74-.06,9.26.44c.67.59.45,1.73.6,2.55.12.97,1.3,1.52,1.72,2.38.24.59.43,1.61-.12,2.05-.27.17-.65.14-.95.21-.97.22-.48,1.45-1.2,2.09-1.4,1.62-2.58,2.46-3.17-.28-.54-2.68-3.38,1.48-4.84.43-.29-.2-.42-.55-.51-.88-.17-.77-.54-1.55-.48-2.32.07-.74.52-1.35.64-2.08.15-1.23-.03-2.47-.61-3.52C-.28.08-.08,0,1.21.02c.7.07,1.52-.18,1.96.22l.02.05ZM9.06,3.83c-.57.51-2,1.72-2.45,2.18.09.53.44,2.18.62,2.77.51-.4,1.41-1.1,1.84-1.56.01-.79.01-2.52,0-3.38h0Z"/>
        <path d="M14.15.35c1.26,3.29-1.14,6.61-2.49,9.44-.26,2.21,4.71-.44,5.34-1.11,1.01-.66,1.05-2.06.95-3.17.2-1.23.13-3.14.55-4.46.46-.89,1.33-.97,1.5.25.08,1.04.13,2.28.04,3.21-.33.87-.6,3.16.81,2.19.59-.46.99-1.24,1.58-1.71.73-.7,1.8-.5,2.08-.91.14-.19.1-.42,0-.64-.52-1.07-1.64-1.93-2.46-2.73-.3-.31-.39-.5-.18-.59.8-.17,2.32-.19,2.8.34.4.46.57.97.98,1.45.43.53,1.16.84,1.45,1.47.27,1.08.27,2.41,1.19.9.59-1.06.46-3.43,1.55-4,.55.14.53.91.28,1.64-.33,1.1-1.04,2.38-.71,3.53.94.77,2.79-4.6,2.91-2.29-.06.9-.81,1.76-.84,2.64.05.64.01,1.23-.46,1.71-1.19.81-1.74,6.65.77,4.61,1.31-1.12,2.11-2.4,2.74-3.9.49-1.1.13-2.14.97-2.77,1.41-1.32-.84-2.71-1.92-3.16-.91-.6.06-1.82.95-1.88.98-.27,2.72,2.77,2.65,3.66-.04.88-.55,1.8-.11,2.64,2.02,2.18,4.04,4.31,4.96,7.2.45.47,2.47,3.18,2.92,1.8.03-.8-.02-1.92-.69-2.49-.95-.62-3.27-.89-2.27-2.46.6-.53,1.89-.67,1.97-1.71.04-.38-.12-.81-.43-1.05-1.53-.82-3.51-.74-5.03-1.46-.43-.21-.83-.55-.73-1.03.25-.35.71-.18,1.13-.11,2.04.79,3.02-1.37,2.39-3.19-.23-.6-.54-1.31-.36-1.86.41-.29.73.88.85,1.2.43,1.29.41.19.94-.73.51-.83,1.73-.9,2.59-.71.89.22.92,1.23,1.09,1.98.2,1.1.52,1.72,1.35,2.69.84,1.18,1.81,2.14,3.26,1.12,3.58-1.85-1.47-3.44-3.08-4.14-.56-.31,1.33-.48,1.94-.3.9.17,1.51.81,2.04.38.56-.7,1.44-2.6,2.24-1.01.67,1.79.76,3.54,2.86,1.34.66-.69,1-1.58,1.86-1.91.51-.28,1.69-.38,1.59.49-.05.69-.64,1.45-.28,2.03.83.5,1.46,1.24,2.17,1.92.76.55,1.86.61,2.72.92.8.35,1.69.48,2.2-.37,1.73-1.74-1.23-3.81-2.82-4.05-.48-.11-.92-.37-.84-.65.14-.26.37-.39.67-.45,1.24-.16,2.14.41,3.12,1.26,1.72,1.36,1.26.49,1.4-.86.26-.73,1.05-.02,1.53.08,2.9-.91,2.99-.23.91,1.73-2.83,2.02-4.16,5.2-5.4,8.31-.29.57-1.1,1.61-.8,2.17,2.22-.23,3.81-2.6,4.71-4.26.54-.75,1.34-1.39,1.74-2.26.19-.98,3.22-7.54,3.7-5.5-1.07,2.17-.1,4.28-.05,6.52.51,1.98,2.98,3.17,4.57,4.65.73.56,1.19,1.06,1.17-.05.47-5.41-3.1-5.95-5.19-9.61,2.12-.32,4.13,3.65,5.54,4.14.5-.95.72-4.36,1.27-5.86.4-.76,1.78-.68,1.47.43-1.08,3.12-2.46,6.91-1.53,10.26.08.51.5,4.11-.55,3.56-.63-.38-1.26-1.11-1.93-1.48-.9-.59-2.17-.55-2.78-1.15-.33-.29-.52-.74-.88-.95-.84-.13-.67,1.46.02,1.58,3.32,1.05,5.97,4.7,7.87,7.59.48,1.5-.8,2.67-1.45,3.88-.56.87-.76,2.26-1.92,2.47-.75.12-1.58-.57-1.81-.37-.34,1.5,1.06,4.59,2.82,4.86.59.02,1.16-.77,2.13-1.32,1.02-.64,2.71-1.01,2.6-2.5-.29-6.18,1.68-4.62-1.96-10.8-1.44-3.61-1.86-7.95-.58-11.67.72-1.23.25-5.56,2.25-4.7.78.64-1.41,3.27-.26,3.82.58-.09,2.21-1.22,3.46-2.24.59-.67,2.42-2.35,2.96-1.5-.97,3.43-6.03,4.33-8.02,7.09-1.23,2.57.85,8.56,3.54,9.57,1.67-.37,2.66-1.66,4.16-2.69.97-1.08,3.2-2.74,3.32-3.87.1-.92-.97-.49-1.38-.08-1.6.91-7.94,5.55-8.05,1.51.77-1.54.99-3.19,2.05-4.66.6-.72,1.37-1.31,1.84-2.12.81-1.82,2.33-3.27,3.86-4.54.12-.1.54-.37.68-.17.45,1.22-4.96,6.27-5.83,8.26-2.75,5.12.13,3.03,3.1,1.62,2.17-.72,2.64-2.87,3.49-4.69.62-1.57.08-4.24,1.83-5.21,1.09-.24.46,1.21.9,2.04.71.92,3.86,8.41,5.21,6.44.51-2.18,2.6-5.78.75-7.43-.67-.7-2.49-.81-2.87-1.39,1.46.05,3.61-.29,5.08.14.51.7.09,1.71,1.33,2.18,1.01.59,1.13-1.56,1.81-1.95,5.34-2.66-.48,8.14,3.27,7.06,1.6-.72,3.35-1.69,3.41-3.63.26-1.13-.4-2.97.58-3.67.44-.23.89.28.98.62.12.77.54,1.91,1.46,1.17,1.05-1.3,1.37-2.45,1.76.22.53.99,2.83.87,4.04.9,2.02.36,2.15,3.22,2.51,4.92.57,1.05,2.43,2.01,3.74,1.72.85-.31,2.74.26,2.49-1.19-1.04-2.07-1.75-4.2-2.55-6.32-.97-1.5-3.22.93-6.76-1.82-1.01-.84,2.79-.21,2.97-.14,1.54.67,3.14-.67,4.58.33.36.15.82.5,1.16.32,2.13-1.77,2.46-.07,2.73,1.98.25,1.56,1.81,2.69,3.13,3.47,6.16,2.36-.99-3.23,1.04-5.84,1.22-.97.95,2.74,1.62,3.25.62,1.22,1.7,1.05,2.17-.14.64-1.06.3-3.92,2.03-3.21.53.32,1.04.88.99,1.47-.09.58-.81.43-1.17.73-.49.36-.34,1.68-.97,2.64-.6.99-1.7,1.86-2.01,2.88-.5,1.35,1.04,1.85,2.05,1.38,1.25-.92,2.17-1.7,3.51-2.55.86-1.48,1.49-3.16,1.23-5.03-.08-.54-.33-1.22.08-1.62,1.18-.56,1.66,1.38,1.67,2.26.51,1.72,1.87-3.69,3.42-2.23.1.8-.83,1.45-1.21,2.11-.61.84-.66,1.56-1.06,2.45-1.37,1.93-1.75,4.01.21,5.57.86.38,1.63-1.42,1.61-2.16,0-.78-.17-1.5.46-2.1,1.08-1.19,3.47-2.91,4.37-4.63.29-.95,1.55-2.17,2.38-1.23.01.47-.77,1.3-.88,1.83-.36,1.26.79.97,1.63.2.85-.7,1.53-2.34,2.78-2.2.54.2.23,1.47.73,1.44.79-.21,1.16-1.42,2.04-1.4,1.05.2,1.19,1.84,2.03,2.28.53-.01,1.04-2.07,1.98-2.34,1.82.08-2.04,5.44.97,3.21,1.03-.83,2.84-.41,1.66,1.17.16.75,1.34,1.4,2.1,1.29.65-.13,1.01-1.01.37-1.36-.69-.29-1.29-.7-1.37-1.51-.3-1.13-.57-3.91.94-2.33.58.5.78,2.15,1.32,2.51.5-.86-.12-3.57,1.66-2.93.3.19.92.71,1.26.71,2.84-1.76,5.33-.63,8.14.56.47.08.65-.47,1.08-.89,1.69-1.52.21,3.62.62,4.33.24,1.49.47,3.31,1.34,4.5.59-1.85-.2-6.52-.04-8.49.12-2.05,3.32-.08,4.66-.13.91.25,1.98.57,2.69.23.47-.18.81-.68,1.29-.75.3,0,.54.3.78.44.24.13.32-.07.53-.22.17-.13.36-.26.51-.32,4.07-1.03.56,6.36,6.03.08,2.29-.88-.27,2.94,2.85,4.27,2.87.8,1.17,3.02,2.59,4.04.91.28,1.86.53,2.71,1.01,2.03,1.36,4.35.66,6.45-.09.94-.27,1.97.11,2.09,1.14.14.81-.76,1.78-.74,2.35.66,1,1.99-1.16,2.93-1.19,2.67-.78,8.26,2.69,4.45,5.28-1.39,1-2.75.5-4.26-.03-1.76-.75-2.61.21-1.24,1.75.45.49,1.05.86,1.24,1.52.2,1.05-.47,2.18.49,2.96.89,1,2.05-.23,2.98-.44,2.26.06-.69,2.81-1.72,2.98-1.12.5-2,1.19-3.15,1.29-1.7.11-1.86.59-.36.69,3.16.6,5.95-2.92,8.97-1.95.49.19,1.08.46,1.33.89.23.51-.3,1.33-.37,1.83-.09,1.03,1.22.32,1.71.06,1.83-.88,2.47-3.24,3.63-4.76,1.73-.63,1.86,2.15,1.75,3.34.04,2.02-1.23,4.01-2.33,5.68-1.11,1.68-4.29,3.37-4.85,5.37.18-.04.84-.56,1.07-.78.9-.67,1.63-1.5,2.67-1.87.98-.18,1.76.17,2.84-.12,2.69-.04,4.5-1.72,6.74-2.93,2.24-.9,2.47,2.43,3,3.85.31,1.35-.6,2.42-1.54,3.28-5.85,5.06-7.99-1.2-9.33,3.83-.47,1.32-2.81,1.59-3.3,2.64,1.44-.25,2.84-.07,4.31-.63,2.12-1.35,4.18-3.63,6.72-1.51.63.66,1.81,1.16,2.89,1.03,2.71.03,5.32-2.16,7.84-.5,1.01.71,1.51,1.75,2.91,1.82,1.31.06,2.57,1.13,3.85.77,1.16-.76,2.08-2.23,3.25-3.04,1.01-.74,2.43-.96,3.43-1.76.7-.44,1.25-1.26,2.06-1.32.52,0,.56,1.01.42,1.87-.08.61-.19,1.2-.28,1.81-.24,1.21-.24,2.26.35,1.3.72-1.68,2.04-.46,2.6.77.51.98-.12,1.79.57,2.24,1.03.63,2.6.61,3.56,1.44.52.43.91,1.26,1.59,1.65,2.09.86,4.18-1.39,4.86-3.25.63-3.45,3.06,1.1,3.51-2.93.17-.9.03-2.81,1.14-2.91,2.44.5,2.06,3.81,2.52,5.96.14.42.19.89.48.52.08-1.01.88-1.95,1.57-2.47.33-.4.9-.62,1.33-.18,2.94,3.57.14,10.11-4.41,10.68-3.39-.39-5.94.78-8.91,2.23-2.22-.26-4.1-3-6.59-2.1-.78.35-.18,1.15-.52,2.04-1.2,1.73-1.67,4.08-2.35,5.94-.39.65-.87,1.2-.94,1.99-.08,2.24.17,7.79-2.6,8.24-1.05-.5-.27-2.52-.47-3.54.07-1.71-1.02-3.04-1.69-4.55-1.17-3.03-5.04-.7-7.4-1.96-2.62-.93-2.68-3.6-5.88-3.5-1.92-.22-4.11.41-5.52-1.54-.55-.71-1.02-1.46-1.91-1.73-.83-.21-2.54-.7-2.9.39-.16.83,1.33,1.96,1.13,2.87-.54,1.25-2.4.51-3.4,1.19-2.12,1.31-5.15,2.16-7.56,1.15-.43-.18-.77-.49-1.14-.15-.7,1.63-.55,1.82-2.17.74-2.01-.87-4.85-1.57-6.25-3.55-1.03-3.44-2.37-6.84-2.82-10.49-.07-1.12.51-2.14.03-3.16-.52-.93-1.92-1.82-2.49-1.33-.52,1.51.47,3.32,1.19,4.62.31.52,1.02,1.57.56,1.72-4.44-.08-7.36-5.09-8.5-8.91.43-3.63-1.06-3.68-2.47-6.5-2.98-8.04-3.27-.51-5.99,2.38-.59.67-2.4,2.86-3.01,1.14-1.02-4.07-1.97-8.08-2.29-12.36-.09-1.07.6-2.39-.37-2.96-.25.02-.31.18-.42.39-.58,2.84-1.37,5.7-2.09,8.61-.22,1.31-2.09,4.8-3.69,3.14-.69-1.17-.05-2.73-.7-3.95-.72-1.2-1.44-2.17-1.28-3.66-.07-.6.25-1.43.04-1.93-.44-.16-1.32.77-1.75.65-.68-.44-.49-2.07-1.44-2.21-3.83.38,2.28,6.35.84,8.44-.48.07-1.44-.99-2.24-1.66-.94-.92-2.97-1.22-3.98-1.33-.74.3-.3,1.92-.78,2.74-.33.98-1.55,3.01-2.71,2.01-1.42-2.34-3.65-4.81-4.76-7.24-.34-.46-1.05-.73-1.37-.63-.55.58.7,1.59.78,2.32.74,2.95.54,6.78-1.1,9.37-1.94.62-1.27-2.39-1.76-3.42-.41-1.04-1.79-1.82-2.46-2.85-.58-.74-.88-1.99-1.69-2.46-.62-.08-.79.93-1.09,1.36-2,2.61-1.7,4.01.16,6.37.03,2.07-4.04,1.68-5.3,1.42-1.12-.2-1.6-.94-2.3-1.65-2.13-1.4-5.11-.5-7.55-.76-5.45-1.23.71,2.75.28,5.11-.19.54-1.1-.06-1.94.19-1,.28-1.87,1.06-2.98.89-2.13-.39-1.77-1.32-3.87-.35-2.04.16.89,1.61-.18,2.59-1.05,1.33-2.44,2.56-4.19,2.31-2.74,1.09-4.71,9.46-6.57,12.37-1.48,3.45,6.27,2.22,5.13,4.34-2.62,3.26-.82,1.85,1.52,3.16.93.82-.06,2.54.13,3.66,2.43,3.18,5.03-1.41,6.84-2.14.77.89,1.17,2.82,1.44,4.07,0,2.16-1.61,4.4-3.42,5.42-.55.22-.79.75-.66,1.33.36,4.05,10.39,1.54,8.93,5.6.05.57.75.39,1.28.41,3.24-.7,4.22,1.56,6.33,3.31,2.24,1,1.77-.28,2.9,2.37,2.45.84,4.57-2.98,7.27-1.78,1.34.66,2.33.94,3.59.2,1.09-.56,2.46-.16,3.46-.88,1.78-.96,1.01-4.81,3.2-5.36.7-.07,1.59.16,2.04-.52.75-1.85.57-4.2,2.64-1.39,1.59,2.41,2.22,4.94.85,7.67-.53,1.25-2.01,1.4-2.92,2.21-.69,1.3-1.09,3.6-3.08,3.79-1.11.25-2.35-.65-3.49-.34-.97.37-1.42,1.35-2.44,1.71-2.34,2.14-4.92,1.24-7.61,1.1-2.15,1.92-2.82,5.09-6.53,4.95-3.5.16-3.67-2.65-5.95-2.47-.69.08-1.51-.03-2.15-.27-3.06-1.9-4.36-6.34-4.19-9.88.02-.41-.13-1.73-.77-1.17-.49.64-.63,1.56-1.69,1.46-.99.06-1.99.26-2.97.74-2.6,1.54-5.17-1.85-6.03-4.03-.51-.93-.55-2.21-1.3-2.96-.71-.33-2.16-1.32-.88-1.9.8-.13,1.79-.19,1.64-1.31-.05-1.01-2.85-4.19-3.45-3.26-.4.61.14,4.81-1.06,3.34-1.47-1.63-3.61-3.51-5.52-4.94-1.24-.4-1.89,2.06-2.59,2.99-2.21,8.75-7.39,17.02-10.72,25.45-3.63,8.99-5.28,18.76-9.17,27.65-11.01,33.78-30.94,65.59-32.13,101.97-.38,5.01-.49,10.12.49,15.06.15,1.3,1.05,2.17,1.45,3.49.31.93.49,1.96,1,2.77,2.47,2.88,4.79,6.99,7.92,9.25,4.68,1.56,6.03,6.13,9.23,9.77,2.97,2.53,5.74,5.25,8.45,8.03.97,1.27.55,3.19,1.82,4.05,2.56,1.73,5.2,4.38,8.39,4.58,2.76.69,6.63,2.1,8.44,4.51.45.97,1.91,1.57,2.04,2.5-.54,2.02-3.1,1.36-4.52.63-2.08-.63-4.17-.88-6.21-1.31-4.92-2.15-11.55.24-16.2-1.59-1.38-.34-2.18-2.18-3.66-2.16-.83.41-2.05,1.18-1.17,2.24.12.15.25.29.39.42,1.25,1.03,1.45,2.64,2.6,3.85.73.8,1.71,1.45,2.18,2.44.39.79.36,2.01-.32,2.07-8.18-1.67-5.24,1.21-13.06-4.56-1.12-.77-1.74.92-2.66,1.07-1.26-.63-.33-7.5-2.84-6.65-2.12,0-1.39,7.11-3.54,4.09-.41-1.06-.38-2.12-1.71-2.38-1.13-.33-2.27-.93-3.56-.84-2.31.88-5.46,1.29-6.7,3.58-2.01,5.36-17.82,7.58-23.05,9.46-4.94,2.38-11.78,4.19-4.05-3.34,2.06-2.9,9.35-7.78,9.28-11.19-.4-.45-1.14-.17-1.67-.18-.65.08-1.03-.12-1.68.18-1.77.94-5.26,3.38-6.45,5.34-2.68.8-5.58,2-7.94,3.85-1.14.75-2.43,2.4-3.86,2.77-1.56.71-4.31.57-5.98.12-2.74.19-5.37.63-8.1-.15-3.01-.46,2.47-3.51,3.13-4.09,3.76-2.56,18.94-5.8,15.06-12.01-.42-1.03.3-2.71-.63-3.49-1.51-.68-3.24-1.15-4.55-2.13-1.32-3.43,10.98,2.78,3.85-6-.1-.12-.31-.36-.32-.38-.35-.26-.87-1.21-.36-1.43,1.32-.23,2.43,1.42,3.54,1.88,2.5.14,2.93-3.9,2.63-5.93-5.34-33.69,2.19-67.55,10.43-100,11.11-33.39,27.39-65.16,39.55-98.01,1.18-3.73,3.05-7.43,4.17-11.07-.89-3.15-2.85.53-4.5.68-1.71-.26.07-4.39-1.43-5.73-1.17-1.61-1.9-4.85-3.21-1.37-.62,2.07-5.86,5.75-5.45,1.55.44-9.13.44-5.26-5.77-10.97-1.5.05-2.93,2.77-4.39,1.28-.39-.6.34-1.85.3-2.78-.3-2.01-.51-5.41-1.49-6.92-1.46.09-3.49,1.39-3.48,3.02.6,3.22-1.31,7.57-5.07,7-.64-.52-.1-1.55,0-2.25.48-2.08-.6-3.96-.49-6.06-.13-.66.25-1.69-.28-2.14-.51-.11-.81.5-1.43,1.15-2.52,3.35-2.83,1.73-2.61-1.45.05-1.51-.98-2.73-1.18-4.17-.16-.79.21-2.29-1.12-1.8-1.61.52-3.33,1.78-4.95.58-.73-.4-1.86-.9-1.61-1.85,1.34-1.58,3.4-3.83,1.8-5.99-1.95-3.13-2.48.98-4.14,1.7-1.21.17-1.64-1.44-1.9-2.36-.41-1.46-1.11-2.41-1.31-4.04-.1-2.03-.92-5.2-2.17-1.27-1.52,2.98-3.49,6.67-7.31,6.63-.85.12-1.5-.18-1.51-1.07-.28-3.06,1.91-5.69,1.65-8.73-.25-1.27-1.48.22-2.05.55-3.39,2.51-7.41.77-11.14.48-2.43-1.36,5.28-5.33,5.41-6.78.01-.36-.6-.59-1.25-.84-2.66-1.02,1.24-3.29,1.05-5.14.32-1.8,2.05-3.16,1.73-5.02-.13-.4,0-1.31.53-1.06l.05.04ZM110.44,3.2c-.24-.77.88-1.64.68-2.38-.44-.64-.61.22-.63.6-.02.27-.07.34-.22.57-.32.47-1.04,1.27.15,1.25l.02-.03ZM45.46,1.31c-1.55-.9-3.01,3.91-2.3,4.83.54.67,1.78,1.87,2.47,2.49.39.29.71.21,1.48.25.7-.07,1.75.22,1.54-.51-.78-2.03-2.78-3.48-3.1-5.71-.07-.45.08-.97-.07-1.3l-.03-.05ZM187.66,2.63c-.13-.2-.8-.31-1.27-.53-1.39-.61-3.44-1.51-4.63-.17-1.06.95-1.87,2.08-2.37,3.06-.74.9-2.19,2.53-2.74,3.21-.28.39.2.71.53.92,1.88,1.17,3.8-.67,5.65-1.2,1.49-1.06,3.25-3.27,4.6-4.76.11-.12.31-.35.25-.48l-.02-.05ZM56.82,12.84c-.26.37.3,1.13.39,1.71.08.46.12.93.42,1.31.44.57,1.49,1.64,2.04,2.1.41.32.68.08,1.01-.36,2.94-4.07-.02-9.39-1.25-13.49-.18-.56-.28-1.29-.32-1.82-.03-.37-.18-.28-.34-.08-.44.6-1.35,1.84-1.84,2.59-.33.52-.26.92-.28,1.82.06,1.53-.31,3.35.04,4.49.28.33,1.45.33,1.28,1.02-.24.44-.8.34-1.11.65l-.05.06ZM198.29,4.53c.39-.43,1.76-.53,1.44-1.38-.74-1.11-2.15-.8-3.39-1.01-.6-.06-1.05-.1-1.17.01-.17.29.39.82.77,1.51,1.14,1.75,2.79,4.2,3.9,5.08.4.33.89.34,1.38.45.61.15,1.07.5,1.53.15.22-.15.41-.34.62-.5.34-.28.96-.48,1.11-.84.08-.27,0-.57-.12-.82-.73-1.33-.52-2.9-.84-4.37-.18-1.8-1.17.22-1.53,1.02-.18.33-.49.51-.82.66-.67.28-1.18,1.07-1.97,1.14-.55.07-1.25-.51-.95-1.04l.05-.07ZM103.6,15.53c.01-.93-.58-2.13-1.46-2.63-1.81-1.25-1.45-2.73-1.89-4.66-.23-1.36-1.36-2.35-2.19-3.53-.28-.36-.54-.7-.74-.96-.25-.33-.41-.49-.52-.39-.68,1.77-1.13,4.9-.09,6.2.27.31.69.37,1.04.54.44.18.59.76.7,1.2.29.76-.07,1.05-.02,1.71.06.28.28.52.53.67.35.2.69.21.85.46.17.26.16.52.21.92.13.96,1.15.55,1.99.64.67-.05,1.14.13,1.56-.12l.02-.05ZM109.91,8.14c.28-.81-.86-1.26-.68-2.09.02-.52.15-1.1-.1-1.53-.46-.77-1.84-.62-2.56-1.18-.19-.1-.39.05-.56.12-.07.07-.2.22-.26.29-.1.16-.23.37-.22.55-.02.43.41.69.53,1.04.12.45,0,1.24,0,1.73-.11.81.45.39.94.59.19.07.33.23.45.36.26.36,1.08.26,1.61.28.27-.02.65.03.82-.1l.04-.05ZM161.68,7.45c.17-.12.16-.5.39-.89.23-.43.5-.83.79-1.26.29-.52,1.19-1.56.74-2.07-.34-.02-3.3,2.03-4.41.83-.15-.12-.28-.18-.42-.11-.73.56-1.53,1.85-1.93,2.54-.37.64.28,1.11.82,1.34.83.28,1.37,1.33,2.32.99.7-.24.41-1.22,1.26-1.25.13-.03.14-.01.35-.08l.06-.04ZM164.29,4.99s.1.07.2.08c1.09.07,2.62,1.9,3.17,1.84.15-.05.21-.12.33-.27.34-.49,1.2-1.42,1.22-2-.4-.83-2.08-.73-2.67-1.3-.5-.29-1.08-.34-1.52-.07-.31.24-.61,1.25-.74,1.66v.06ZM193.55,3.21c-.45.15-1.14,1.11-.77,1.63.27.41.42.36.99.81.8.55,3.18,2.31,3.54,2.5.25-.15-.12-.88-.39-1.08-.48-.49-1.21-.84-1.16-1.58-.33-.82-1.09-2.43-2.12-2.31l-.08.02ZM119.79,14.94c.29-.69-.43-1.55-.6-2.12-.27-1.45.12-3.39.52-4.68.32-.67.91-1.12.45-1.89-.49-1.13-1.34-2.38-2.67-2.3-.22.11-.13.75-.46,1.26-.65,1.2-2.35,2.38-2.79,2.97-.19.27-.09.5.09.79.39.61,1.07,1.31,1.49,1.89.9,1.33,1.09,2.94,2.77,3.75.33.16.83.6,1.15.39l.04-.05ZM134.49,3.82c-.24-.1-1.18-.13-1.22.52-.08.67.29,1.44.81,1.77.32.25.52.44.49,1.04-.01.25-.04.52-.04.77.03.46.39.26.83.3.61-.03,1.65-.06,2.13-.08.13-.06.15-.13.07-.29-.85-1.41-2.84-2.22-3.03-4.01l-.04-.02ZM205.05,6.96c.29.42,2.16-2.2,1.81-3.1-1.04.18-2.38,2.11-1.85,3.06l.03.04ZM127.74,13.71c0-1.86-1.76-3.99-1.87-5.9-.02-1.66-.31-3.61-2.4-3.52-.7.03-1.94-.16-2.5.16-.33,1.22-.11,4.01-.07,4.95.18.83.92,1.59,1.38,2.26.29.33.46.72.52,1.07.05.24.11.47.38.55.66.18,1.51.45,2.07.8.58.38,1.93,0,2.46-.32l.03-.05ZM188.94,4.49c-.07-.1-.54.09-1.12.21-.51.14-1.03.22-1.19.34-.19.29.01.78-.26,1.04-.24.3-.79.09-1.05.24-.17.2-.02.7-.21.96-.23.41-.84.79-1.07,1.21-.29,1.25,3.41-.6,4.07-.27.47,0,1.12.59,1.5.5.54-.89-.74-2.99-.65-4.2l-.02-.04ZM73.88,17.67c.24-.45.09-.94.31-1.53.13-.43.31-.82.37-1.22.04-2,.24-4.11.09-6.09-.1-.58-.5-.99-.59-1.56-.09-.57.07-1.37-.11-1.87-.83-1.59-2.89,4.77-3.48,5.27-.15.21-.19.49-.24.73-.03.68.53,1.18.59,1.83.05.79.22,1.68.9,2.19.43.35.83.24.95.45.22.37.08,2.73,1.17,1.86l.05-.07ZM210.09,6.82c-.11-.11-.07-.46-.25-.88-.19-.49-.72-1-1.28-.93-.64.18-.24,1.3-.58,1.73-.58.87-1.92.95-2.72,1.47-1.13.65-1.95,2.16-.73,3.15.67.61,2.06.85,2.86.44.48-.24.95-.68,1.43-.92.71-.35,1.38.07,1.23-1.08.03-.73-.31-1.52.35-1.62.26-.03.61,0,.85-.14.47-.28.34-.76-.11-.93-.41-.17-.9-.15-1.03-.25l-.04-.03ZM23.19,12.23c.32-.43.54-1.07,1.09-1.67.41-.57.32-1.3.64-1.92.22-.45.37-.94.21-1.43-.27-.58-.86-1.36-1.5-1.42-.7.21-1.28,1.03-1.77,1.57-.56.69-.24,1.52-.56,2.28-.25.58-.37,1.02-.09,1.71.14.4.29.84.27,1.19-.01.32-.21.72-.61.65-.51-.09-.5-1.06-.86-1.29-.78-.28-1.81-.11-2.66-.13-1.32.04-1.85.67-2.97.8-1.05.42-1.64,1.63-2.55,2.28-.8.63-2.24,1.05-3.03,1.8-1.03.87-1.27,1.7.36,2,1.89.29,5.21.34,6.7.14.3-.07.48-.2.74-.41.86-.79,2.26-2.16,3.01-3.11.76-.98,1.8-2.31,2.97-2.69.2-.08.4-.15.55-.29l.06-.06ZM54.67,5.58c-.66-.47-1.72.46-2.35.8-1.77.85-3.3,2.81-3.13,4.8.15.97,1.08,1.8,1.29,2.79.29.65,1.07.55,1.65.89,1.07.41,2.22.28,3.23.98.61.27,1.04.66.98-.13-.09-3.51-1.26-2.61-3.59-4.33-.88-.83.38-1.67.69-2.42.15-.42.39-.81.82-.87.77-.13.62-.98.63-1.62-.01-.36-.05-.66-.17-.83l-.05-.06ZM174.13,11.23c.19-.77.55-2.67.6-3.31-1.21-2.93-5.23-2.66-5.04.45-.02.97.85,1.99,1.46,2.71.36.4,2.49.26,2.96.17l.03-.03ZM65.27,8.21c-.26-.11-.71-.12-1.04-.31-1.08-.47-2.18-1.61-2.64-1.63-.39,1.06,1.22,2.12,1.29,3.16.18,1.03-.27,2.5.01,3.58.06.07.16.07.28,0,1.44-.98,1.85-3.23,2.12-4.76l-.03-.04ZM169.23,11.17c.07-.41-.06-.9-.31-1.2-.55-.56-1.52-.3-2.13-.75-.66-.49-1.8-2.05-2.56-2.72-.17-.14-.31-.25-.5-.09-.7.75-2,1.86-2.53,2.65.47,1.32,2.4.86,3.47,1.05.46.05.91.41,1.22.55.7.22,2.08.4,2.89.57.23.05.37.06.43-.01l.03-.05ZM29.52,7.56c-.25-.27-1.91-.67-2.27-.58-.31.1-.33.67-.56,1.14-.28.56-.3,1.23-.55,1.79-1,1.6-3.18,3.28-4.19,4.66-.32.38-.43.96-.1,1.37.66.76,1.54-.13,2.38-.24.61-.13,1.17-.06,1.62-.5.83-.86,2.32-1.97,2.91-2.76.47-.75.01-1.85.23-2.67.17-.58.92-1.49.58-2.13l-.05-.07ZM195.78,8.17c-.66-.29-2.95-1.19-3.09-1.23,0,.01.06.08.13.19.75.99.19,3,.52,2.91.2-.04.4-.14.64-.26.6-.31,1.68-.92,1.8-1.57v-.04ZM38.67,20.63c.29-.46.37-1.41.65-1.94.99-1.55,1.83-3.58,1.19-5.41-.45-.82-1.06-1.6-1.29-2.52-.38-.64-1.55-1.73-2.11-2.28-.3-.28-.5-.41-.69-.34-1.06.8-.81,3.52-.82,4.67.02.67.59,1.07.75,1.7.38,1.59.84,3.21,1.1,4.83.08.6.33,2.07,1.17,1.34l.05-.06ZM151.26,13.12c.47-.92-1.61-4.87-2.18-4.94-.45.25-.85.78-1.24,1.16-.6.49-.15,1.12.13,1.67.61,1.1,1.87,2.69,3.25,2.16l.04-.04ZM158.71,11.24c.56-.93-1.12-1.55-1.29-2.31-.06-.27-.03-.93-.39-.92-1.25.73.6,4.25,1.63,3.29l.06-.06ZM107.96,9.32c-.51-.08-1.53-.04-2.09-.4-.1-.04-.21-.08-.31-.01-.2,1.55-.28,3.67,1.17,4.72.29.21.82.5,1.1.15.24-.33.17-1.03.17-1.43-.02-.7.11-2.46-.01-2.99l-.02-.02ZM19.56,9.38c-.58-.34-1.85.61-1.87,1.21.5.61,2.13-.79,1.9-1.18l-.04-.03ZM55.4,9.36c-1.53-1.46-1.63,3.25-.09,2.01.03-.04.1-.11.14-.15.04-.14.06-1.54,0-1.81l-.04-.05ZM121.35,15.92c-.49.29-1.24.19-1.82.18-.9-.06-1.33-.4-2.08-1.17-1.24-1.24-2.16-2.63-3.15-4.04-.74-1.18-1.2-1.93-2.72-1.09-.51.24-1.06.53-1.54.84-1.32.74-1.37,2.41-1.68,3.77-.07,2.08,2.1-.24,3.05-.21,1.39-.24,1.74,1.45,1.21,2.71-.48,1.04-1.64,1.74-2.38,2.56-.75.76-.05,1.24.76,1.4,1.25.15,2.23.54,3.25,1.23,2.06,1.1,3.33,2.74,3.74,4.92.2.63.74,1.22.63,1.56-.1.32-.76.44-1.39.39-1.13-.09-2.1-.89-3.14-1.28-1.07-.52-1.72.2-2.84.42-1.54.3-3.46.64-4.57.28-.48-.16-1-.28-.96.41.04.98.74,1.94.79,2.95.05.94.07,2.32-.01,2.96-.05.39-.27.51-.73.28-.74-.29-1.74-1.33-2.27-1.14-.18.14-.2.51-.18.77.11,1,.54,1.89.89,2.78.15.36.44.62.75.84.29.21.6.47.79.75.61,1.25,2.2.1,3.2.16,1.27.09.55,1.7.23,2.41-.72,1.38-.9,2.53-2.2,3.12-1.71.68-3.36,1.79-5.19,1.89-1.12.13.07,1.64.7,1.5.72-.17,1.36-.99,2.08-1.27,2.81-1.06,5.35,1.08,7.45-1.71,1.14-1.1,2.18-1.61,2.02.45,0,.56-.03,1.17-.04,1.74-.02,1.24.49,1.85.59,2.99.07.76-.17,1.93.97,1.84,2.43-.26,4.52.85,6.81.73,1.56.02,2.85-.04,4.21-.45.26-.04.45,0,.55.19.67,1.96-.89,3.8-2.63,4.61-1.05.46-2.94,1.05-3.16,2.07-.11,1.81,1.89,1.49,3.25,1.5,1.01.08,1.86.54,2.62,1.18,1.22,1.43-1.01,1.86-1.99,2.25-1.45.79-2.89,1.98-4.61,1.54-1.12-.33-2.18-.58-3.24-1.06-1-.63-1.8-1.52-2.8-2.09-1.29-.72-2.57-3.58-.09-1.59,1.84,1.85,4.31,3.08,6.88,3.4,1.01-.05,1.84-.72,2.52-1.43.64-.76.14-.89-.6-.92-.81-.05-1.67-.26-2.26-.85-.59-.6-.68-1.41-1.17-1.6-1.46-.43-4.06.61-5.43-.56-.62-.49-1.2-1.41-1.97-1.66-1.7-.2-.79,2.47-.28,3.59.8,2.28,2.84,3.65,4.73,5.6,1.09,1.1,2.49,1.87,4.02,2.29,2.06.43,4.93-.41,7.18.24,1.07.32,2.06,1.07,3.22.91,1.68-.23,3.25-1.53,3.84-3.18.28-1.29-2.26-1.57-3.16-1.7-2.68-.02-5.08,1.31-7.51,2.27-1.28.76-2.95,1.36-4.25.31-.25-.31.14-.39.5-.46.96-.16,2.03-.11,2.87-.6,1.47-.89,3.44-1.97,5.01-2.48,1.22-.43,2.81.1,3.29-1.48.76-1.53,1.63-3.05,1.98-4.73.22-.9.56-1.75,1.02-2.56,6.42-11.32,8.11-23.54,13.79-35.16.6-1.24,1.13-2.63,1.83-3.79.28-.49.59-1.04.13-1.47-1.19-.68-2.37-1.86-3.35-2.94-.32-.35-.5-.8-.79-1.15-.16-.25-.61-.27-.81-.2-.55.14-1.08.34-1.68.36-2.29-.13-1.69.75-1.72,2.5.02.96.26,1.8.49,2.57.15.5.25,1.16-.18,1.5-.47.4-1.43.23-2.21-.04-1.37-.44-2.47-1.69-3.39-2.71-.77-.84-1.04-1.96-1-3.09.03-1.03-.1-1.6-1.33-1.19-1.28.33-2.64,1-3.99,1.02-.78,0-1.69-.63-1.82-.15.15.83,1.32,1.83.34,2.63-.92.61-2.14,1.24-3.29,1.29-1.36.02-2.33-1.19-3.34-1.62-.38-.19-.72-.4-.98-.74-.29-.39-.52-.94-.85-1.27-.16-.15-.3-.19-.35-.11-.15,1.35,1.64,3.41.99,4.21l-.05.04ZM141.27,16.11c-.53-1.08-.55-2.35-.39-3.56.22-1.49-.29-2.54-1.74-2.99-.59-.19-1.5-.44-2.02-.15-.11.08-.17.21-.21.37-.17,1.46.05,2.89.65,4,.62,1.18,2.05,2.3,3.66,2.37l.03-.04ZM190.18,11.79s.02-.11-.02-.2c-.45-.8-2.07-2.05-2.69-2.17-.37.16-.62.64-1.11.59-1.04.05-2.95-.17-3.51-.06-.31.1-.47.38-.53.62-.08.52,1.08.6,1.61.64.33.03.52.15.76.42.4.45.67.88,1.23.93,1.43.15,2.8-.62,4.21-.76l.04-.04ZM47.89,10.07c-.63-.46-2.39.14-2.58.65-.08.67,1.5,1.16,1.81,1.67.42.47.22,1-.33,1.24-1.12.41-.25,1.68-.04,2.44.16.77.23,1.93-.25,2.48-1.41,1.41-3.13-2.85-4.55-2.21-.48.39-.31,1.64-.35,2.31-.06.5-.61.54-.92.82-.37.42-.23,1.52-.19,2.09.07.75.55,1.3.92,1.99.46,1.28,1.36,2.2,2.35,3.13.84.76,1.72,1.96,2.68,1.94,1.29.11.73-1.16.73-1.93,0-.64-.51-1.33-.78-1.94-.35-1.57-1.19-2.99-2.35-4.5-.28-.47-.98-1.1-.82-1.52.1-.14.47-.07.86.25.71.59,1.17,1.55,1.84,2.14.48.41,1.11.75,1.51.15.74-1.52,1.51-3.16,2-4.72.17-.36.39-.71.35-1.13-.23-1.02-1-2.03-1.14-3.06-.24-.79-.29-1.61-.72-2.26l-.05-.05ZM208.14,14.5c-.73-.27-1.63-.67-2.3-1.14-1.02-.61-2.63-.09-3.89-.77-1.08-.53-1.59-1.83-2.78-2.14-1.11-.43-2.34-.68-3.55-.57-1.61.09-1.38,1.31-.53,2.31.46.56,1.1.91,1.76,1.16,1.71.63,3.69,1.66,5.56,2.14.51.22,7.27.64,5.82-.93l-.08-.05ZM222.95,10.78c-.81-.03-1.58.99-2.43,1.09-1.5.2-3.89-.14-5.3-.69-1.06-.48-2.52-1.89-3.6-.73-1.09,1.44,0,2.71,1.63,2.65,1.19-.08,1.17.53.86,1.44-.23.64-.62,1.2.48,1.14.44,0,.76-.11.88-.45.12-.37.06-.86.53-.98.83-.27,3.03-.68,4.22-.98.46-.11.83-.46,1.29-.47.21,0,.41.07.62.07.77-.01,1.14-1.81.87-2.05l-.05-.03ZM103.67,13.75c.32.03.76-.42,1.01-.65.16-.17.25-.26.18-.37-.15-.17-.36-.29-.51-.46-.2-.32-.02-1.05-.03-1.42,0-.13-.02-.22-.1-.23-.08-.02-.21.04-.36.14-.48.35-1.05.71-.81,1.36.11.25.35.38.49.55.24.21.08.73.11,1.05l.03.03ZM154.34,11.85c-.09-.24.29-1.27-.4-1.24-.27.09-.17.19-.21.34.05.56-.55.85-.37,1.37.12.23.3.48.54.59.39.15.76-.49,1.39-.46.15-.03.23.08.32-.18.03-.7-1.05-.29-1.24-.4l-.03-.03ZM179.32,12.75c.32-.07.51.22.66.44.67,1-.59,2.16,0,3.11.37.95.71,1.93,1.37,2.73.62.94,1.16,1.94,2.26,2.4.47.2.89.37,1.36.27.77-.26,1.55-1.15,1.6-1.99-.04-1.48-2.02-1.64-2.55-2.88-.58-.96-.31-2.38-.62-3.3-.35-.84-1.14-1.44-1.93-1.84-.59-.3-1.22-.63-2.04-.58-.4,0-.82.03-1.2-.06-.64-.2-1.93-.86-2.69-.39-.47.24-.68.75-.85,1.23-.35.89-.51,1.59-.43,2.56.15.91-.31,1.89-.08,2.74.16.38.39.76.45,1.19.2.68-.34,2.11.32,2.5.83-.02,1.24-1.18,1.58-1.84.81-1.78,2.09-3.68,2.45-5.66.04-.22.1-.51.26-.62l.05-.03ZM171.83,16.18c.2-.34-.3-1.04-.57-1.42-1.45-1.94-3.19-3.44-5.76-2.99-.77.08-1.51.02-2.16-.41-.63-.37-1.63-.25-2.42-.18-.44.08-.16.48-.01.75.86,1.4,1.17,3.78,2.36,4.27.88.33.86-1.21,1.67-1.12.68.14.91.75,1.1,1.31.14.6.66.51,1.14.73.26.1.56.22.83.1,1-.65,2.74-.56,3.8-1.01l.04-.04ZM192.03,11.24c-.04.08,0,.19.12.36.33.46,1.08,1.35,1.1,2.04.02.25-.01.54,0,.79.04.45.47.72.77,1.05.3.27.56.61.87.73.56.01,1.88-.16,2.57-.2,1.14-.04.79-.2.14-.73-.72-.51-1.32-.86-2.16-1-1.06-.74-2.34-3.63-3.38-3.06l-.03.04ZM37.67,22.72c-1.55-2.47-2.2-5.79-2.68-8.61-.15-.7-.15-1.96-.95-2.17-.45-.03-1.19.77-1.71,1.34-.54.58-.53,1.15.08,1.81.84.94,1.95,1.72,2.41,2.94,1.33,3.26-.12,6.56,2.84,8.54.29.26.57.52.76.78.46.62.45,1.24,1.21,1.27.82.04,1.12-1.01,1.85-1.23,1.64-.39.63,1.19-.17,2.06-.69.75-1.81.79-2.7,1.06-.68.41-.61,1.23-1.2,1.83-.84,1-.92,2.37.84,1.91,1.37-.41,3.51-.96,4.25-2.29.22-.59-.02-1.59.26-2.29.71-1.32.24-2.26-.66-3.33-.85-1.05-1.6-1.87-1.91-2.98-.2-.8-.54-1.03-1.41-.69-.44.13-.74.26-1.04.1l-.06-.04ZM63.23,22.12c.36-.39.34-.9.58-1.43,1.29-2.7,3.19-6.02,5.2-8.31.46-.85-.51,0-.72.24-1.2,1.13-2.85,1.76-4.43,2.06-1,.04-1.01.87-1.21,1.64-.25.82-.84,1.43-1.01,2.19-.14.55-.15,1.16-.36,1.69-.69,1.54-1.32-.38-1.86-.57-.15.03-.19.17-.23.32-.14.84-.18,1.94-.11,2.81.07,1,1.16,1.66,1.7,2.52.48.82,1.22,1.89,2.27,1.87.33-.02.62-.25.97-.55,1.02-.86,2.17-1.9,3.11-2.75.43-.45,1.17-.64,1.58-1.01.41-.36.61-1.08,1.03-1.51.36-.4,2.23-2.14,2.26-.9-.04.5-.26,1.07-.36,1.58-.31,1.22.09,2.39.09,3.54-.01.63-.17,1.43-.13,2.12.06.91.49,1.5.56,2.29.07.41.04.92.31,1.25.19.22.51.24.85.12,1.47-.57,1.39-2.46,1.32-3.85-.16-1.05-.77-1.97-.64-3.07.08-1.49.26-2.96-.89-4.12-.55-.55-1.08-2.03-1.93-1.06-1.33,1.3-2.6,2.93-4.23,3.81-1.62,1.3-2.46,2.3-4.64,1.64-.87-.24-.4-1.63.1-2.05.23-.17.52-.26.73-.45l.06-.05ZM209.99,13.1c.04-.27.03-.85.02-1.1-.05-.52-.62.18-.78.34-.27.29-.95.14-1.21.39-.16.08.04.36.14.39.18.04,1.45.07,1.82,0h.01ZM96.87,12.46c-.84-.53-2.23,1.68-3.12,1.83-.44.08-.59.33-.96.65-1.1,1.03-3.37,3.12-3.9,3.62-.13.15.05.14.25.14,1.45-.14,3.29-.8,4.54-1.49.62-.75,4.09-3.24,3.23-4.7l-.05-.05ZM158.67,12.48c-.48-.23-1.49.34-2.02.67-.86.56-1.55,1.33-1.08,1.82.13.11.28.18.46.14.67-.14,1.44-1.29,1.78-1.39.75-.15,1.91-.26.91-1.19l-.05-.04ZM172.87,13.09c-.53-.43-2.12.5-.86.77.37.04,1.24-.27.91-.72l-.06-.05ZM189.61,13.05c-.97.21-4.19,1.11-4.93,1.3-.07.04.07.02.18.03,1.42-.06,2.75-.13,4.03.51.06-.05.06-.23.09-.44.04-.39.66-1.16.64-1.38v-.02ZM230.98,14.36c-.3-.04-.77.06-1.04-.15-.42-.29-.67-.79-1.14-1.03-.29-.17-.82-.19-1.16-.07-.4.22-.94.8-1.39,1.17-.41.37-1.1.95-1.38,1.24.18.01.83-.06,1.08.09.38.13.69.42.99.57.49.15,3.54.17,4.03.05.13-.08.11-.16.13-.37,0-.37.07-1.14-.06-1.47l-.04-.03ZM76.15,13.76c-.48-.31-1.03.14-.61.62.46.53.75,1.21.89,1.91.74,3.01.98,6.57,3.48,8.68.74.56,1.52,1.04,2-.15.45-.84,1.11-1.91,1.39-2.53.21-.74.21-1.81-.31-2.39-1.18-1.09-1.88-3.01-3.23-3.77-.93-.53-2.18-.74-3.13-1.17-.39-.21-.2-.84-.43-1.15l-.05-.06ZM161.47,20.72c1.06-.48,1.65,1.63,2.28,2.41.2.33.34.68.44,1.05.16.85.64,1.53.49,2.33-.2.77-1.1,1.72-1.39,2.58-.44,1.08.52,2.05,1.61,1.88,1.58-.2,4.19-2.68,5.06-.21.31.86.31,1.93.78,2.7.13.21.3.4.47.6.86.8,1.81,2.16,2.65,2.6.58.14.8-.68.93-1.16.38-1.53-.29-2.91-.84-4.26-.37-.55-1.04-1.06-1.33-1.7-.25-.56-.61-.94-1.28-.89-.5,0-1.03.02-1.52-.1-1.49-.37-2.15-1.71-2.77-.1-.9,1.67-.69-2.46-.84-2.92-.04-.51-.23-.97-.36-1.46-.18-.61.14-1.23-.1-1.81-.67-1.28-1.17-2.85-2.53-3.61-.43-.28-1.07-.56-1.45-.09-.76,1.69-1.17,2.21-3.05,2.55-1.01.24-1.83,1.51-3,.98-.7-.36-.31-1.07-.02-1.57.49-.78.35-1.56.96-2.5.39-.69,1.15-1.5,1.21-2.29-.02-.15-.18-.17-.44-.1-.68.19-1.58.45-2.31.31-1.16-.08-.77-1.49-1.66-1.92-.97-.31-1.06.68-.53,1.3.52.7.95,1.24.92,2.04-.03.72.21,1.37-.06,2.07-.1.29-.22.64-.25,1.05-.01,1.33-.38,5.14,1.57,4.75,1.26-.54,2.81-2.26,4.22-1.27.79.57,1.8,2.04,2.38,2.36.6.27.51-1.92.57-2.32.03-.98-.54-1.57-.86-2.45-.09-.27-.17-.62,0-.82l.04-.04ZM160.56,19.24c.27-1.23.87-2.41.64-3.82-.14-.54-.76-1.06-1.07-1.52-.2-.25-.23-.11-.28.12-.4,1.96-1.31,3.74-2.23,5.52-.04.09-.22.36-.11.4.25,0,1.67-.33,2.45-.47.33-.08.51-.07.58-.17l.03-.05ZM32.08,27.24c.18.06.45-.2.63-.34.35-.28.73-.57.94-.78.67-.76.53-2.24.94-3.13.13-.32.39-.62.32-.98-.09-.38-.32-.68-.32-1.14.04-1.08-.05-1.48-.79-2.58-1.04-1.77-2.28-3.52-4.52-4.22-.6-.16-1.42.03-1.22.77.22.7,1.05,1.17,1.29,1.84.63,2.18.71,5.37,1.22,7.61.17.75.72,1.28,1.06,1.98.21.41.27.83.39.94l.04.03ZM64.14,23.08c.77.34,1.76-1,2.42-1.57.56-.41,1.14-.34,1.62-.95.62-.59,1.31-1.27,1.91-1.89.62-.71.97-.76.76-1.71-.15-.69-.47-1.42-.83-2-.25-.35-.39-.62-.72-.59-.47.1-1.11,1.77-1.78,2.44-.46.49-.61,1.04-1,1.61-1.03,1.62-2.99,4.07-2.44,4.64l.05.04ZM106.08,14.3c-.79-.73-1.51.44-1.07,1.21.23.5.97.85,1.53.9.45-.02-.18-.71-.37-1.06-.16-.31,0-.66-.05-.99l-.05-.06ZM191.32,14.32c-.3-.03-.66.44-.92.63-.9.7-.78,1.26-1.23,2.22-.51,1.15-1.45,1.93-1.62,3.19-.47,1.98-.61,3.85-.39,5.96.09.44.41.47.71.09.41-.43.28-1.09.73-1.46.43-.27,1.52-.75,2.13-.99.73-.24,1.19-.16,1.37-.79.15-.48.44-.89.58-1.37.13-.94.19-2.48-.05-3.51-.26-.65-.94-1.64-1.06-2.41-.15-.48-.07-1.09-.21-1.54l-.03-.03ZM103.26,16.29c-.14-.1-.32-.05-.48.02-.89.44-2.41.77-3.16-.3-.43-.45-.89-1.16-1.54-1.14-.52.05-.56.69-.66,1.08-.05.15-.13.25-.26.35-.57.39-2.08,1.13-3.2,1.72-1.19.69-2.34,1.02-3.16,2.08-.52,1.04,2.46.32,2.98.48.77-.05,1.17.66,1.88.56.17-.03.36-.1.58-.18,1.02-.43,1.98-.75,2.79-1.41.55-.45,1.17-1.04,1.87-1.31.71-.35,2.82-.88,2.42-1.91l-.04-.04ZM224.88,20.51c-.01-.71-1.04-1.62-1.14-2.26-.18-.97.16-4.36-1.75-2.9-.39.26-.79.58-1.24.72-.77.23-1.9-.14-2.64.17-.57.24-1.05.69-1.63.94-.38.16-.75.24-.84.41-.11.52.71,1.19,1.02,1.48.43.38,1.13.19,1.63.34.54.34-.05,1.26.93,1.21.8-.1,1.36.53,2.1.63.75.02,1.16-.6,1.88-.63.51-.07,1.2.13,1.65-.07l.03-.04ZM187.77,17.42c.92-1.21-2.73-2.81-3.29-1.63.03.5,1.07.22,1.29.59.47.4,1.28,1.59,1.94,1.1l.06-.06ZM27,19.3c.07-.21-.06-.54-.01-.78.18-.69,1.36-1.68.57-2.37-.23-.1-.53.39-.78.57-.19.15-.51.11-.75.07-.23-.05-.39.06-.27.28.16.21.38.39.55.59.26.24-.08,2.29.65,1.7l.04-.06ZM55.34,16.85c-.95-.46-2.2-.78-3.29-.78-.26.02-.51.07-.73.21-.52.41-1.23.97-1.44,1.62-.07.39,0,.81-.14,1.18-.55,1.4-2.14,2.84-1.71,4.45.08.08.24.05.47-.03.76-.29,1.98-.69,2.75-1.02.98-.65,1.69-1.76,2.37-2.7.48-.62.59-1.5.68-2.22.08-.25.79-.1,1.01-.35.07-.1.15-.1.08-.31l-.04-.06ZM110.4,17.49c.4-.42.52-1.53,0-1.34-1.15.52-2.3,1.54-3.44,1.48-.48-.02-1-.16-1.48-.22-.91-.12-1.35.13-2.25.49-.89.3-1.62.8-2.35,1.39-1.54.98-.58.93.32,1.83.46.49.5,1.02-.36.91-.28,0-.73-.08-.72.27.2.44.77.46,1.18.42.44-.06.72-.22.84-.05.23.51.09,1.68.52,2.37.27.59.89.3,1.38.24.46-.05.87.23,1.21.57.47.48.93,1.03,1.6,1.19,1.63.37,4.6-.34,5.87-.56.32-.06.56-.05.84.09.71.43,1.51.54,2.43.66.73.15.9-.29.65-.94-.49-1.51-1.68-2.25-3.05-2.92-.77-.41-1.45-.99-2.35-1.07-2.37-.18-4.68.55-7.04.66-.96.08.46-.87.66-1.1,1.22-1.22,3.21-1.68,4.14-2.98.12-.19.22-.42.35-.61.23-.4.64-.48.99-.73l.07-.06ZM152.48,16.23c-.09-.07-.31.18-.66.46-.46.46-1.05.7-1.23,1.28-.08.78-1.38,2.16-1.16,2.93.41.62,1.17,1.28,1.7,1.82,1.23,1.14,1.34-.13,1.56-1.18.1-.35.35-.6.45-.95.24-1.43-.22-2.96-.62-4.32l-.03-.04ZM214,17.55c-.42-.35-1.34-.57-1.85-.97-1.91-1.23-4.05-.23-6.23-.06-1.05.15-2.42,0-.59.91,1.43.67,3.11.52,4.66.87.69.07,3.99-.85,3.29.83-.49,1.31-.93,2.5-1.98,3.54-.34.4-.62.71-.56.88.33.4,1.77.42,2.32.59,1.6.22,2.77,2.04,4.47,2.09.81.11,1.59.63,1.75.23-.06-1.22-1.21-2.22-1.62-3.3-.29-.75.08-1.2.65-.79.5.38,1.03.99,1.57,1.18.64.29.85.83,1.19,1.39.82,1.23,1.77,1.42,3.06.78,1.19-.53,3.61.55,1.93-1.64-.45-1.06-1.48-1.49-2.64-1.69-1.01-.1-2.23.19-3.25,0-.88-.2-1.42-1.04-2.2-1.45-1.04-.58-2.29-1-3.11-1.98-.35-.4-.47-.99-.8-1.37l-.06-.06ZM75.99,29.16c1.42-.36,1.89-2.79,1.76-4.07-.09-.59-.51-.94-.73-1.51-.42-1.39-.96-2.91-1.15-4.14-.07-.64.08-1.41,0-2.04-.04-.31-.19-.57-.35-.6-.14-.03-.29.09-.39.31-.22.56-.37,1.24-.5,1.85-.22.98.03,2.18.18,3.2.39,2.04.1,4.95,1.13,6.96l.06.03ZM165.5,18.72c.56.95,1.96,2.65,2.73,3.1.64.23,1.56-.21,2.11.3,1.92,1.63,3.52-1.91,3.23-3.56-.09-.5-.57-.83-.65-1.34-.05-.2-.2-.41-.48-.26-.89.32-1.69.44-2.46,1.01-.93.25-3.59.38-4.48.71v.04ZM211.37,19.39c-.15-.17-.47-.16-.96-.16-1.02,0-2.56.12-3.7.09-.4-.01-.72-.05-1.09-.15-1.07-.36-2.85-.81-3.93-1.46-1.45-1.16-2.52-1.08-4.16-.44-.52.16-.43.52-.17.87.59.8,1.38,2.01,2.01,2.79.5.58.74.88,1.4.92,1.66.12,7.53.12,9.21,0,1,.01,1.69-1.59,1.42-2.4l-.03-.05ZM25.12,17.4c-.75-.15-2.16-.18-2.81.12-.32.19-.71.4-1.07.48-.17.05-.32.08-.41.23-.11.21-.06.6-.06.87.04,1.62-.39,3.11-.52,4.7-.05.76-.43,1.18-.73,1.98-.08.26-.11.68.07.84.3.35,1-.15,1.52-.12.98.16,1.35-.55,2.09-1.14.4-.36.81-.7,1.07-1.05.3-.48.4-1.01.73-1.43.45-.76.23-1.6.32-2.89-.04-.76.11-1.95-.17-2.55l-.04-.03ZM57.88,17.42c-.15-.04-.55.34-.74.49-.88.67-1.09.97-1.41,1.97-.34.89-.94,1.66-1.03,2.62-.25,2.26.55,5.09-.25,7.34-.04.13-.22.54-.14.56.52-.27,1.37-1.01,1.61-1.38.28-.74.83-1.79,1.44-2.38.41-.45.68-.8.74-1.4.24-2.12-.32-5.54-.19-7.79l-.03-.02ZM181.52,26.17c.43-.68-.9-1.64-.37-2.33.93-.96.26-2.37-.12-3.39-.12-.34-.28-.52-.53-.8-.56-.59-1.4-1.69-1.98-2.19-.1.06-.04.33-.06.48.04,1.94-1.83,4.2.16,5.66.37.36.72.64,1,.99.36.53.89,2.26,1.83,1.65l.06-.07ZM193.81,26.81c.11-.04.14-.21.17-.49.2-.97.3-2.65.62-3.62.6-.81,1.19-1.78.91-2.8-.17-.81-1.07-2.12-2.04-2.35-.08.04-.08.17-.04.36.34,1.29.66,2.61.48,3.98-.19.93-.58,1.79-.64,2.76-.04.6-.34,2.02.49,2.18h.05ZM99.23,29.66c-.09-.62-.8-1.2-1.28-1.59-1.16-.88-2.81-.91-4.01-1.55-.88-.69-1.7-1.64-2.51-2.45-.96-.91-1.24-1.56-1.86-2.54-.94-1.11-1.3.74-1.5,1.42-.55.95-.76,1.77-.65,3.01,0,1.06.76,1.82.89,2.86.18.63.77.98,1.36,1.18,1.71.88,2.81.6,4.51-.24,1.39-.77,2.74-.43,4.23-.04.24.03.62.14.81,0l.02-.04ZM99.02,21.15c-.4,0-.4.62,0,.62s.4-.62,0-.62ZM176.58,21.74c-.36-.02-.84.49-1.1.75-.16.18-.16.21-.02.37.37.35,1.24,1.45,1.62,1.36.45-.21-.45-.72-.46-.94-.11-.35.1-1.37,0-1.51l-.03-.03ZM53.57,22.34c-.94-.9-1.09.15-1.21.89-.08.37-.69.57-.45,1.01.06.18.93.94,1.03.56.05-.17-.02-.52.02-.74.13-.51,1.07-1.05.67-1.66l-.06-.07ZM91.89,22.45c-.06.09.06.27.25.51.74.91,1.71,2.07,2.45,2.49,1.48.55,3.5,1.07,4.57,1.98.32.24.27.21.52.32.57.17.94-.65.84-1.14-.3-.97-.36-2.71-1.09-3.42-.55-.51-1.74-.12-2.62-.27-.45-.1-.74-.47-1.19-.58-.98-.17-2.16.03-3.17,0-.15,0-.43,0-.53.07l-.03.03ZM149.88,22.25c-.49-.2-1.13.29-1.47.65-.65.66-.68,1.85-.91,2.59-.19.8-1.08,1.44-1.15,2.24.25.99,1.54,1.74,1.73,2.75.08.32.23.55.54.62.22.06.51.06.68.2.13.11.15.32.35.55.17.19.41.38.61.55.63.45,1.05,1.09,1.66,1.54.11.06.27.15.39.11.23-.04.35-.38.47-.8.38-1.31,1.25-2.79.97-3.68-.22-.66-.8-1.23-1.1-1.85-.3-.56-.38-1.17-.63-1.75-.29-.8-1.28-1.37-1.59-2.31-.18-.43-.2-1.03-.49-1.37l-.05-.04ZM177.89,27.98c.34-.64-.22-1.6-.61-2.16-.63-.98-1.45-1.04-2.35-1.63-.84-.28-2,.09-2.79-.08-.52-.1-.86-.34-1.43-.66-.77-.45-1.28-.71-2.09-.8-.72-.17-1.36-.44-1.4.41-.18,3.7,3.17,4.88,6.44,4.52.45-.02.92-.28,1.23-.44.46-.15.96.22,1.35.3.45.06,1.36.68,1.6.56l.04-.03ZM185.87,22.96c-.61-.12-1.97.08-2.66-.34-.22-.12-.36-.23-.41-.12-.05.25-.06.8-.07,1.1,0,.37.12.5.46.79.42.35,1.27.95,1.65,1.14.74.19,1.34-2.06,1.05-2.52l-.03-.03ZM197.03,35.23c.81-2.66,2.03-5.07,1.98-7.93-.01-.46.13-.89.3-1.31.44-.82-.4-1.37-.37-2.21.05-1.3-1.97-1.71-2.82-1.57-.5.11-.36.63-.46,1.07-.1.59-.42,1.16-.55,1.71-.22,2.09-.82,4.05-.74,6.24.03.64.17.99.62,1.57.47.63,1.2,1.62,1.6,2.16.19.26.31.38.4.3l.03-.03ZM64.11,29.21c1.01.42,2.28-.29,3.1-.87.85-.61,1.41-.81,2.03-1.48.77-.82,1.9-2.69.89-3.28-.53,0-2.06,1.43-2.84,2.13-.31.38-.68.34-1.09.46-.67.49-2.55,2.23-2.14,3l.05.04ZM204.42,23.62c-.19-.04-.8-.04-1.09-.04-.5.05-.82-.12-.92.3.06.53,2.72.49,2.05-.23l-.04-.03ZM208.76,23.62c-.76-.17-3.63-.13-3.72.01-.06.26-.04.65-.03.98-.03.44.44.44.77.26.26-.13.53-.38.72-.55.3-.3,2.98.16,2.31-.66l-.04-.04ZM53.54,26.13c-.15-.1-.55-.04-.9-.15-.32-.09-.63-.26-.91-.41-.58-.25-1.02-1.04-1.53-1.32-.5-.25-1.02.32-1.62.49-.13.04-.28.1-.39.17-.17.12-.21.31-.19.52.29,2.33,1.67,4.4,3.76,5.51.25.12.56.23.82.16.46-.1.56-.83.81-1.24.06-.11.13-.25.18-.37.24-.51-.48-1.06-.53-1.88-.13-.54.57-1.1.55-1.45l-.03-.04ZM60.48,27.11c-.29-.14-.26-.74-.68-1.22-.31-.36-.91-.7-1.32-.32-.32.44-.38,1.22-.53,1.76-.19.75,0,1.29.52,1.91,1.16,1.15,1.73,2.65,2.42,4.06.22.34.64.2,1.04.46.83.62,0,1.71-.14,2.39-.03.45.38.47.71.38.5-.2.79-.67,1.08-1.11.81-1.33,1.46-2.92,1.73-4.43,0-.45-.56-.18-.86-.12-1.46.42-3.9-.02-3.26-1.54.15-.29.46-.54.63-.82.51-.83-.73-1.22-1.27-1.37l-.06-.03ZM185.3,29.1c-.16-.26.11-1.28-.19-1.69-.45-.56-1.48-1.66-2.2-1.88-.19.03-.1.59-.14,1.07-.02.41-.05.82-.08,1.22-.26,2.22.56,2.24,2.19,3.12.51.16,1,.06,1.63.3.65.16,1.24.6,1.79.47.48-.55-.84-2.11-1.36-2.41-.34-.25-1.27,0-1.6-.17l-.04-.04ZM191.13,25.47c-.4,0-.4.62,0,.62s.4-.62,0-.62ZM205.73,26.15c-.06.11.05.28.28.52,1.06.91,2.08,2.27,3.22,2.56.58,0,1.44.08,2,.32.55.09.97-.15,1.54.1.63.16,1.19-.32,1.73-.05.55.25,1.28-.17,1.78,0,.26.08.57.21.96.1.7-.22,3.06-1.31,1.57-2.05-.89-.4-2.04-.15-2.96-.46-.79-.28-1.71-1.28-2.34-1.67-.97-.42-2.15-.21-3.21-.26-1.77,0-3.19.09-4.56.86l-.03.04ZM106.09,33.47c.29-1.47-.83-2.97-1.55-4.21-.22-.32-.23-.7-.33-1.05-.37-.77-1.34-1.33-1.87-1.96-.12-.12-.19-.19-.2-.15.14.68.64,2.47.85,3.22.21.48.59.92.82,1.44.53,1.01,1.03,2.43,2.23,2.74l.05-.03ZM157.99,26.02c-.7-.31-1.22.74-1.89.69-2.02-.1-3.11.6-1.75,2.54,1.31,2.14-.34,2.04,2.57,1.36.26-.08.43-.05.54-.25.12-.68,1.14-3.59.6-4.28l-.06-.05ZM204.53,39.14c.66.23,1.52-.68,2.03-1.11.93-.85,1.15-1.67,1.6-2.72.09-1.32.26-2.61-.62-3.69-.5-.71-1.32-1.3-1.26-2.23-.03-.98-.72-1.34-1.46-2.18-.59-.54-.88-1.03-1.4-1.08-.7.22-.79,1.42-.85,2.06-.11,2.41,1.31,4.72,1.28,7.28,0,.86.52,1.57.54,2.49.03.34-.07.91.1,1.15l.04.04ZM162.39,31.65c.11-.14-.06-.65-.29-1.26-.33-.76-.42-1.49-.42-2.12-.24-.55-1.19-1.31-1.67-1.53-1.24-.39-.66,2.51-.72,3.83.02.63.66.33,1.13.55.51.12,1.65.76,1.94.57l.03-.03ZM234.1,27.32c-.63-.28-1.81-.41-2.46.06-1.7.83-3.37,1.21-4.98,1.8-.94.11-2.45.19-3.29.27-.71.04-.15.4.11.6,1.77,1.31,4.04,2.03,6.23,1.68.61-.15.98-.63,1.57-.71.61-.04,1.29-.29,1.57-.9.23-.72.65-1.47,1.09-2.13.17-.31.29-.52.21-.63l-.04-.04ZM105.2,27.33c-.4,0-.4.62,0,.62s.4-.62,0-.62ZM222.66,27.33c-.4,0-.4.62,0,.62s.4-.62,0-.62ZM71.63,32.76c-.26-.26-.02-1.24-.23-1.88-.16-.55-.49-.94-.64-1.52-.47-2.61-2.42-1.24-3.02.37-.24,1.1.43,2.12.97,3.05.43,1.01,1.11,1.87,1.61,2.86.2.54.32,1.39.49,1.97.07.22.13.28.25.18.35-.38,1.75-2.3,2.47-3.23.49-.62.57-.96.95-1.65.39-.69.98-1.39,1.24-2.19.66-2.04-1.63,1.36-1.95,1.37-.36.26-.91.47-1.41.66-.21.07-.49.16-.66.04l-.05-.04ZM231.65,36.69c.58.21,1.72.46,2.29,0,1.67-1.15,3.2-2.72,4.69-4.27.35-.36.51-.61.66-1.12.25-.85.81-2.61.95-3.16.05-.28-.13-.13-.39.05-1.69,1.34-3.75,2.67-5.82,3.28-.25.1-.44.22-.57.46-.33,1.1-1.29,2.74-1.78,3.87-.15.42-.23.7-.08.84l.05.04ZM72.18,39.83c1.47.62,4.89-2.15,5.79-3.07.29-.32.33-.74.53-1.11.19-.37.46-.67.49-1.11.1-2.02.06-4.1-.72-5.86-.08-.04-.21.04-.37.23-.47.53-.84,1.12-1.06,1.79-.5,1.35-1.62,2.38-2.09,3.74-.6,1.28-1.67,2.33-2.21,3.74-.2.5-.59,1.23-.41,1.62l.03.04ZM100.56,31.68c.45.56,1.77-1.94,1.34-2.95-.1-.26-.48-.55-.57-.1-.13.41-.07,1.36-.19,1.52-.21.24-.97.97-.62,1.46l.04.06ZM46.03,40.83c.32-.51.44-1.2.88-1.73.27-.4.48-.69.56-1.01.21-1.17.16-2.95.01-3.98-.11-.41-.43-.69-.56-1.09-.18-.5.02-1.13-.13-1.64-.26-.76-2.17-2.34-2.97-2.26-.4.23-.13,1.01-.39,1.48-.18.5-.35.92-.24,1.41.65,2.32.75,4.67,1.56,7.06.22.51.08,1.32.3,1.71.19.26.62.27.9.11l.06-.06ZM58.44,31.39c.06-.13-.06-.26-.15-.4-.33-.44-.97-1.32-1.28-1.64-.07-.05-.14-.12-.23-.12-.17.05-.24.37-.32.56-.69,2.01-2.52,3.44-2.45,5.69.01.7-.43,1.38-.19,1.96.08.25.15.5.14.77-.02,1.03-.79,2.44-.59,3.18.16.56.75.03,1.01-.2.34-.32.76-.54,1.08-.64.75-.2.58-1.06.95-1.6.5-.89,1.26-1.78,1.53-2.57.23-.87.18-2.11.07-2.92-.27-1.05-1.35-1.82.38-2.04l.03-.03ZM180.27,29.17c-.68-.25-2.3-.13-2.86.14-.18.15-.17.32-.03.56.47.78,1.25,1.41,1.67,2.12.42.72.83,1.13,1.26,1.86.13.28,1.72,1.95,1.87,1.31-.09-1.14.28-3.94.01-4.71-.43-.27-1.37.17-1.81-.14-.16-.18,0-.92-.09-1.09l-.03-.05ZM221.11,29.19s-1.03.83-1.4,1.12c-.07.07-.12.09-.22.08-.16-.03-.46-.07-.61.04-.39.19-.46,1.04-.24,1.23.21.19,1.09-.18,1.73-.43.29-.13.52-.16.66-.41.21-.4.2-1.18.1-1.62h-.01ZM148.21,35.2c.4-.92-.82-3.23-1.05-4.14-.18-.57-.8-1.39-1.44-1.18-.64.58-.41,1.84-.69,2.61-.41,1.6-1.15,3.3-1.67,5.06-.24,1.04-1.12,1.84-1.34,2.89-.11.65.7,1.13.99,1.81.18.39.34.58.68.15.88-.88.76-2.15.77-3.32.08-.97-1.2-1.93-.51-2.82.77-.45,1.52-.98,2.55-.95.52-.03,1.21.14,1.66-.09l.05-.04ZM48.94,30.42c-.4,0-.4.62,0,.62s.4-.62,0-.62ZM83.21,33.48c1.11.4,3.03-.24,4.18.17.62.4,1.69.77,2.46.46,1.3-.77,3.38-2,4.52-2.75,0-.01-.03-.01-.09-.01-.58.01-3.31.26-4.37.27-.29-.05-.57-.43-1.08-.54-.14-.03-.31-.07-.45-.09-.71-.13-1.42-.69-2.12-.59-.69.08-1.06.99-1.65,1.18-.72.15-1.65,1.04-1.45,1.87l.03.05ZM211.2,30.4c-.53-.43-2.12.5-.86.77.37.04,1.24-.27.91-.72l-.06-.05ZM66.37,45.29c.25-.25.43-.96.81-1.39.71-1.01,2.25-2.2,2.6-3.09.11-.76.55-1.78.49-2.28-.06-.37.03-.74.1-1.12-.1-.89-1.12-1.5-1.58-2.23-.74-1.17-1-2.95-2.21-3.88-.42-.32-.72-.16-.77.39-.12,2.59.22,5.42.08,8.01,0,.92-.76,1.59-.74,2.51.04,1.07.13,2.16-.32,3.12-.23.6,1.12.29,1.49.03l.06-.06ZM95.7,35.27c.09-.3.01-.8.06-1.14.05-.88,1.22-1.35,1.28-2.32.06-.27-.12-.96-.49-.66-.18.2-.24.62-.5.88-.19.21-.46.36-.71.51-1.32.77-2.23,2.14-3.49,2.21-.47.05-1.01-.07-1.46.06-.3.09-.56.3-.95.43-.52.16-1.13.15-1.62-.03-.43-.09-1.04-.54-1.4-.25.04,1.22,2.31,1.28,3.28,1.14.6-.06.99-.57,1.56-.69.94-.11,2.83.06,3.77.03.34,0,.55,0,.63-.14l.03-.05ZM99.32,31.03c-.05.08-1.11,1.35-1.24,1.58-.16.69-.62,2.72-.6,2.74.02,0,1.06-1.31,1.19-1.48.23-.68.62-2.77.66-2.84h0ZM217.39,31.02c-.55-.16-2.45-.32-2.48.55.31.47,1.19,1.01,1.73,1.53.89.73,1.81,1.53,1.98,1.63.08.03.15-.48,0-.78-.2-.54-.93-.87-1.17-1.31-.19-.37.06-1.45-.04-1.59l-.02-.03ZM103.6,39.04c.2-.43.12-1.18-.04-1.64-.2-.45-.78-1.1-1.03-1.62-.28-.86-.04-2.09-.05-3.08.02-.4,0-.78-.21-.96-.54-.36-.49.78-.77,1.11-.48.82-.91,1.28-1.18,2.27-.31.88-.45,1.35-.45,2.42,0,.84-.06,1.69.1,2.47.09.3.28.69.59.76.6.13,1.39-.92,1.91-1.39.27-.3.81-.23,1.1-.32l.05-.04ZM166.84,31.78c-.82-.08-1.75,1.06-2.65,1.11-1.58.25-3.89-.01-5.3-.86-.64-.43-1.24-.27-1.95.06-.34.15-.61.29-.66.45-.14.27.69.97,1.08,1.43.26.27.54.56.89.69.62.28,2.9.04,2.6,1.18-.46.65-1.78,1.13-2.22,1.87-.33.49-.09.88.57.91.73.05,1.79.05,2.43-.04.77-.1,1.14-.84,1.82-1.12.78-.27.86-.68,1.24-1.35.3-.44.8-.83.89-1.32.09-.37.08-.75.27-1.09.23-.52,1.27-1.21,1.02-1.89l-.04-.03ZM218.26,38.97c-.25-.41,0-1.18-.22-1.55-.74-1.25-1.96-2.87-2.73-3.89-.65-.64-2.02-2.32-3.02-1.72-.54.34-.4,1.01-.02,1.43.99,1.18,1.48,2.61,1.79,4.07.11.59.44,1.09.85,1.52,1.31,1.38,2.09,3.4,3.39,3.19.65-.13,1.85-.93,1.4-1.81-.18-.39-.16-1.04-.67-1.09-.25-.04-.57,0-.73-.12l-.06-.05ZM224.27,34.11c.42-1.24-2.15-3.28-3.27-2.22-.62.65-.42,1.86-1.05,2.46-.05.06-.05.09,0,.11.25.05,1.29.19,1.77.26.28.08.35-.06.61-.28.39-.44,1.65-.21,1.9-.31l.03-.03ZM52.94,37.86c.25-.75.11-2.02.14-2.9-.11-.87.22-1.69-.52-2.22-.86-.52-2.03-.58-2.99-.6-.55.04-.85-.06-1.01.29-.23.57.67,2.06.7,2.92.02.15.05.32.13.45.78.96,2.54,2.69,3.51,2.09l.04-.04ZM59.75,32.27c-.07-.04-.97-.05-1.19,0-.26.22.16.5.32.66.41.31.27.69.46,1.2.19.56.73.28,1.06.01.15-.27-.13-.43-.36-.65-.45-.28-.21-.94-.25-1.18l-.03-.03ZM153.78,37.24c.79.04,4.3.3,4.25-1-.24-.46-2.54-2.4-3.23-3.2-.15-.16-.18-.2-.24.16-.16.91-.73,3.1-.82,4.02l.03.02ZM231.63,32.89c-.6.15-3.15.94-3.1.93.21.15.37.23.63.41.42.22,1.55,1.06,1.82,1.1-.01-.1-.02-.4.09-.65.15-.55.8-1.23.58-1.77l-.02-.02ZM81.94,33.42c-.21-.13-.56-.08-.84-.09-.33.02-.7,0-.9.3-.28.51-.4,2.05-.58,2.67-.1.49-.38.83-.72,1.18-.7.72-1.32,1.53-2.22,1.94-.39.21-.98.22-.96.75.02.52.62.98,1.14,1.16.98.4,1.94.85,2.86,1.37.57.34,1.21.78,1.67.47.42-.28.54-.79.71-1.25.23-.63.3-.81.45-1.34.32-1.39-.82-.04-1.23.22-.95.46-1.33-1.88-1.12-2.48.17-.77,1.5-1.41,1.77-2.13.18-.48.14-1.03.15-1.56-.02-.39.04-.88-.15-1.15l-.05-.04ZM226.59,34.26c-.34.41.16,1.33.43,1.8.06.46-.6.76-.49,1.31.08.95.82,2.4,1.53,2.9.5.35,1.22.44,1.76.7.75.47,1.55,1.1,2.38.41.37-.31.75-.68,1.24-.81.46-.12,1.01.24,1.17.13.07-.05.03-.18-.09-.35-.47-.53-1.07-1.14-1.58-1.67-1.35-1.57-3.54-1.99-4.87-3.48-.38-.34-.88-1.13-1.43-.99l-.06.05ZM239.1,37.37c1.38,2.17,4.69,3.42,7.21,3.05.6-.13,1.11-.59,1.67-.75.44-.12.97-.63,1.35-1.05.38-.47.98-1.01.9-1.64-.14-.49-.44-.91-.57-1.51-.13-.46-.29-.9-.65-1.15-.45-.33-1.31-.52-1.68,0-.42,2.06-2.75,2.11-4.42,2.22-.77.11-1.22.79-2.07.71-.56.05-1.24-.18-1.72.08l-.02.04ZM83.89,37.2c.05-.23-.1-.63.02-.88.06-.16.2-.26.33-.36.57-.33,0-.59-.29-.88-.27-.23-.83-.63-.74,0,.01.57.26,1.19-.31,1.57-.39.32-.51.65.11.61.24,0,.64.02.85-.03l.03-.03ZM152.51,37.83c.25-.51-1.03-3.19-1.88-3.06-.06.15-.58,2.2-.6,2.41.03.04.38-.09.66-.03.47-.01,1.63.68,1.8.7l.02-.02ZM225.48,34.7c-1.29-.25-3.8,2.31-5.4,1.72-.67-.35-1.02-.45-1.01.47.05.35.25.36.6.36.41-.01,1-.07,1.39-.04,1.12.23,2.38.49,3.1,1.47.27.3.56.62.89.83.43.28,1.12.39.81-.26-.66-1.35-.03-3.82-.34-4.52l-.03-.03ZM59.97,49.49c.21.03.52-.18.73-.34,1.66-1.22,2.48-2.51,2.31-4.65-.08-.84-.74-1.41-.69-2.25.22-1.6-1.28-2.41-1.77-4.06-.17-1.02-1.68-2.78-2.22-.99-.2.71-.61,1.41-.98,2.05-.02-.01-.12.41-.09.38,0,.31.33.51.64.57.66.07.62.4.6,1-.02.72-.1,1.68-.03,2.24.13.99,1.02,2.03,1.23,2.93.19.8,0,1.84.04,2.67.01.22.06.37.17.43l.06.02ZM64.1,42.8c.15-1.34.58-5.66.62-6.14-.08-.07-.13-.02-.27.03-1.08.48-1.51,1.68-2.15,2.56-.17.37.26.67.58,1.38.39.7.9,1.63,1.2,2.16h0ZM87.02,43.99c.18-.08.16-.32.17-.69,0-1.22-.24-3.45-.07-4.35.17-.6.91-1.12.34-1.76-.54-.6-1.75-1.07-2.28-.27-.45.83-1.14,2.03-1.37,3.06-.14.97-1,1.69-1.31,2.54-.3.87-.12,2.15-.81,3.12-.71.87.41.46.91.44.93-.09,1.28-.54,1.93-1.04.66-.57,1.61-.97,2.43-1.02l.06-.02ZM98.05,36.65c-.12-.1-.63.38-1.33.52-.3.06-.67.03-.91-.14-.68-.62-1.27-.48-2.36-.51-.74.05-1.27-.1-1.54.18-.14.73-.12,1.81,0,2.58.15.56,1.16.97,1.2,1.62.05.2,0,.52.17.64.1.06.26.06.47.07.7,0,1.59.08,2.14-.13.22-.11.39-.29.61-.41.45-.25.98,0,.97-.53-.03-.51-.04-1.17.37-1.55.43-.53.33-1.68.22-2.32l-.03-.03ZM52.23,38.99c-.33-.16-1.26.03-1.7-.36-.46-.26-1.02-1.36-1.61-1.27-.38.07-.66.77-.72,1.27-.2,1.18.94,2.06.91,3.24-.13,2.15.91,3.56.75,5.79.03.63-.18,1.51.09,2.04.25.26.74-.01,1.05-.2.76-.48,1.51-1.12,1.4-2.11-.15-1.01.64-1.65.71-2.6.01-.56-.06-.92-.39-1.21-.22-.19-.54-.11-.77-.25-.42-.39.23-1.16.37-1.6.17-.49.14-1.04.15-1.57-.02-.39.06-.87-.16-1.13l-.05-.04ZM146.79,37.12c-1.45-1.16-1.02,2.32-1.16,2.81-.16.37-.64.65-.58,1.12.01.58.75.81,1.08,1.38.16.26.16.64.37.87.88.51,3.02-.58,3.5-1.31.22-.4-.05-.89-.35-1.18-.38-.41-.38-1.44-.53-1.74-.27-.76-2.16-.22-2.2-1.25-.02-.24.02-.46-.08-.63l-.05-.08ZM89.5,38.74c-.36-.47-.54-.98-.62-.68-.17,1.36.23,3.66-.21,5.04-.47.91-3.13,2.22-4.24,3.06-.39.29-.63.68-.49,1.18.41,1.92,4.07,3.22,1,4.82-.66.43-1.59-.09-2.14.23-.3.4.08.94,0,1.4-.03.55-.34,1.18-.23,1.77.43,2.9,4.53,2.59,6.5,1.39.29-.27.22-.58.15-1.08-.1-.5-.16-.96-.38-1.4-.36-.65-1.4-.4-2.02-.99-.52-.42-.74-1.39-.15-1.81.45-.29,1-.46,1.33-.93,1.45-1.78.9-4.87,1.72-6.83.42-1,1.84-1.85,1.59-3.05-.23-.88-1.26-1.39-1.75-2.04l-.07-.09ZM165.51,40.28c.13-.24-.44-.62-.57-.81-.22-.26-.01-.72-.08-.98-.21-.16-2.63,1.28-2.54,1.72.02.1.06.15.19.15.81.05,2.25.1,2.97-.04l.03-.03ZM239.68,39.08c-.34.05-1.42.35-1.97.48-.83.22-1.67.38-1.75.46,0,.04.05.13.14.26,1.29,1.73,4.5-.11,3.6-1.17l-.03-.03ZM222.83,39.07c-.3-.23-1.69.05-2.13.62-.29.38.27.71.06,1.07-.15.24-.28.51-.08.76.34.41.47.95.56,1.49.16.87.42,1.47,1.12,1.86,1.37.83,3.56,2.18,4.68,2.23,1.63-.47.11-2.33-.37-3.26-.39-.73-.63-1.5-1.13-2.02-.54-.62-1.95-.05-2.52-.39-.32-.37.12-1.9-.14-2.32l-.04-.05ZM107.96,40.94c-.77-.27-1.95.31-2.55-.48-.32-.33-.72-.81-1.24-.78-.6.11-1.07.78-1.48,1.2-.31.35-.04.48.16.92.09.21.11.46.05.68-.45,1.36-3.63.59-3.52,2.02.25.79,2.63,1.13,3.57.52.4-.25.73-.38,1.22-.47,1.25-.42,3.28-.9,3.76-2.31.1-.37.27-.93.09-1.26l-.04-.04ZM71.51,47.13c-.05-.21-.5-4.38-.71-4.93-.16-.38-.47-1.22-.52-1.25-.13.05-.18.3-.38.61-.35.69-1.25,2.21-1.47,2.76.72.74,2.28,2.08,3.08,2.8h0ZM74.59,40.92c-.38-.11-1.92-.1-1.87.24.04.25.58.82.86.92.79.42,1.7-.44,1.05-1.13l-.04-.03ZM98.68,44.61c.07-.28.14-.76.34-1.03.3-.49.72-.88.83-1.3.11-.33-.12-.76-.38-1.01-.01-.01-.33-.36-.43-.29-.61.53-1.69.91-2.43,1.05-1.61.24,1.21,3.24,2.02,2.65l.04-.07ZM227.27,41.56c-.24.43.27,1.23.57,1.58.39.47.49.18.81-.11.13-.13.39-.39.47-.51.2-.28-1.28-1.31-1.82-.99l-.03.03ZM78.98,45.94c.27-.31,1.57-.41,1.57-1.02-.16-1.07-1.69-1.16-2.49-1.57-.72-.31-1.21-1.2-2.07-1.24-.66-.03-.85.53-.31,1,.52.49,1.12.94,1.58,1.47.8.85,1.11,2.36,1.43,3.47.12.43.41.77.6,1.17.17.33.26.8.56.96.54.2,1.16.58,1.77.73.35.06.82.05,1.31.06.51-.04,1.42.11,1.69-.18-.03-.61-1.08-2.01-1.76-2.67-.18-.15-.36-.25-.58-.31-.71-.2-1.81.16-2.49-.2-.51-.28-1.03-1.02-.86-1.59l.04-.06ZM239.61,42.27c-.61-.19-1.63-.04-2.35-.15-1.03-.03-1.98-.19-2.77.42-.26.1-.43-.08-.7-.23-.43-.11-.75.42-1.47.83-.64.49-1.53,1-1.97,1.43,3.18.09,7.83.86,9.27-2.25l-.02-.05ZM78.18,51.37c.08-.07.09-.18.05-.37-.14-.58-.41-1.3-.44-1.9.04-2.03-1.26-3.78-2.53-5.29-.47-.47-1.05-.38-1.77-.59-.33-.1-.65-.23-.89-.33-.31-.13-.46-.18-.53-.04-.16,1.01-.1,2.6,0,3.62.11.49.52.81.6,1.31.12.96-.16,2.48.4,3.24.42.67,1.39.36,1.96.72.14.08.29.18.43.24.69.31,1.35-.44,2.2-.48.14-.02.35-.04.46-.09l.05-.04ZM88.92,52.16c.8.44,1.78-.52,2.36-1.03.48-.47,1.33-.05,1.83-.49.64-.6,1.52-1.3,1.94-2.05.08-.35.11-.72.02-1.07-.1-.69-.61-1.04-.64-1.72-.01-.82.12-1.78-.45-2.5-.41-.56-1.19-.81-1.82-.44-.62.37-1.06,1.23-1.43,1.9-.62,1.22-.42,3.26-1.03,4.58-.3.65-.26,1.34-.61,2.02-.08.22-.35.54-.22.76l.04.05ZM221.12,50.92c-.14-1.19-.44-3.71-.61-4.61-.14-.32-.56-.63-.33-1.01,1.03-1.4-1.8-1.23-3.03-1.59-.81-.27-1.17-.39-1.04.58.18,1.08,1.29,1.66,1.7,2.59.26.76.49.9,1.17,1.68.64.71,1.51,1.74,2.12,2.37h.01ZM273.07,47.68c.06-.11.04-.33.09-.56.02-.35.41-.65.44-.95,0-.21-.27-.4-.34-.59-.07-.19.1-.38.29-.69.24-.41.55-1.12.13-1.49-.57-.09-1.02.88-1.46,1.07-1.26.57-3,.66-4.08,1.54-.38.31-.73.73-1.06,1.1-.69.91.71.55,1.48,1.02.37.2.64.59.97.78,1.02.59,1.41-1.07,2.3-1.12.37-.07.89.09,1.21-.07l.04-.05ZM229.75,44c-1.57-1.25-1.48,2.16-.14,1.86.31-.15.02-.38-.19-.62-.14-.14-.26-.23-.26-.29,0-.13.85-.67.63-.9l-.04-.04ZM142.6,47.71c-.03-.1-.55-1.42-.61-1.53-.26-.36-.56-.71-.88-1.11-.28-.31-.35-.56-.41-.34-.18.54-1.14,3.41-1.19,3.6.86-.09,2.27-.43,3.09-.6v-.02ZM254.37,47.9c-.17-.11-.47-.07-.7-.07-2.58.2-4.26-1.49-6.56-2.24-.56-.45-1.19-1.21-2.03-1-.56.08-1.17.79-1.74,1.33-.23.24-.65.61-.64.86,0,.23.33.53.75.97.82.78,1.24,1.41,2.4,1.26.53-.02,1.06-.11,1.53.14.39.2.76.48,1.22.53,2.04.21,4.69.25,5.76-1.41.08-.14.1-.25.04-.33l-.04-.04ZM96.36,52.02c1.48-.55,1.73-2.47,1.75-3.88-.01-.84.18-1.69-.35-2.39-.2-.29-.62-.59-.97-.54-1.12.16-.45,2.2-.55,3.24-.02.4-.54.61-.61.94-.06.5.39,1.02.55,1.53.16.35.1.74.15,1.07l.04.03ZM258.85,47.01c-.26-.87-.64-1.81-1.77-1.81-1.04,0-2.5-.21-3.31.15-.42.44.17,1.18.73,1,.51-.07,1.2-.7,1.65-.26.44.6.55,1.66.36,2.27-.05.23-.1.47-.06.72.18.83.96,1.7,1.84,1.77,1.16.1,4.35.1,5.51,0,.56-.04.85-.4,1.29-.75.41-.34,1-.49,1.01-.68,0-.16-.2-.31-.34-.43-.7-.58-1.19-.65-2.1-.71-1.31-.22-3.77-.55-4.79-1.23l-.03-.05ZM71.5,53.88c.12-.75.23-2.35-.23-2.97-.31-.36-.05-.65.08-.99.03-.19-.1-.32-.24-.46-.36-.32-.75-.75-.85-1.22-.12-.59-1.09-1.39-1.58-1.91-.19-.19-.35-.33-.49-.4-.84-.3-2.01.96-3.03,1-.34.09-.8.04-1.06.23-.38.78.35,1.94.73,2.67.63,1.17,1.61,1.4,2.66,1.94,1.18.51,2.73,1.81,3.99,2.13l.03-.03ZM235.35,45.9c-1,.04-4.2.52-4.94.59.14-.02.7.05.89.18.27.13.48.3.84.3.36,0,.8-.2,1.14-.24,1.12-.04,1.56.65,2.07-.78v-.04ZM292.9,45.88c-.15.05-.15.51-.29,1.14-.15.76-.25,1.52-.41,2.15-.49.69-1.11,1.57-1.22,2.69-.16,1.04.23,2.1,1.27,2.11,1.09-.09,1.18-2.08,1.77-2.86.22-.61.07-1.25-.17-1.77-.21-.42-.4-.54-.41-.96-.06-.8.44-2.3-.5-2.51h-.05ZM100.48,46.49c-.27-.04-.71-.04-1,.02-.41.11.11.4.23.56.35.35.25.66.32,1.26.07.52.11,1.11.63,1,.35-.17.79-.41.57-.88-.2-.54-.73-1.29-.69-1.92l-.05-.04ZM109.38,49.07c.63-.37,1.63.12,2.29-.34.78-.34,2.42-3.28.36-1.7-2.31,1.68-5.62-.57-7.71,1.6-.36,1.14,1.42,1.79,1.7,2.68.25.65.34,1.46.54,2.14.12.47.43.62.86.58,1.29-.02,2.17-1.02,1.52-2.26-.17-.48-.75-.93-.86-1.36,0-.25.78-.09,1-.45.16-.24.11-.58.24-.83l.04-.06ZM251.65,56.59c-.52-.38-1.43-.58-1.92-1.09-1.83-1.6-6.9-7.21-8.3-8.25-.44-.3-.83.31-1.35.25-.72-.07-1.85-.7-2.57-.03-.09.09-.11.08-.21.29-.05.26,0,.25.07.37,1.58,1.13,4.47.51,5.23,2.73.2.52.76.57,1.18.84.68.37.86,1.29.83,2.03.03,1.02-1.34.6-1.94.63-.24.02-.32.11-.27.28.64,1.62,2.35,2.55,4.11,2.43.87-.04,1.55.56,2.4.65.85.06,3.41.05,2.78-1.08l-.05-.05ZM227.88,48.43c.08.58.64,1.36,1.07,1.88.46.48.94.53,1.39.89.51.41.97,1.1,1.48,1.32.56.22,1.06.56,1.61.77.85.18,2.52.12,3.58.03.71-.1,1.11-.66,1.83-.67.89-.07,2.27,0,2.62-.71.08-.23-.12-.49-.47-.76-.67-.49-1.35-.92-2.12-1.19-1.65-.55-4.1-1.48-5.37-1.67-1.58-.07-4.9-.25-5.62.07v.04ZM107.4,61.9c.34-.7-.41-1.54-.6-2.21-.44-1.57-.26-3.39-.69-4.98-.62-1.66-.98-3.16-2.34-4.3-.43-.29-2.08-2.17-1.97-.77.18,2.49-.84,5.33.46,7.52.68,1.28,1.69,2.58,2.22,3.95.29.81,1.09,1.09,1.93,1.04.41,0,.77-.02.94-.19l.05-.06ZM226.76,52.66c.71-.37,2.22,1.36,3.29,2,.7.44,1.56.33,2.34.48,1.43.21,2.15,1.62,3.31,2.28.31.14.63.15.97.09,1.22-.25,3.02-.89,3.82-1.56.36-.31.48-.74.27-1.18-.72-1.4-1.72-.34-2.85-.23-2.31.07-4.85.44-6.74-.94-1.4-.82-2.62-3.02-3.97-4.12-1.11-.88-1.96.03-1.9,1.2-.05,1.32,0,2.35.72,3.52.37.72.83,1.48,1.07,2.25.46,1.49.01,3.18,1.09,4.47.95,1.24,1.9,2.08,3.37,2.32.62.19,1.26.62,1.61.49.37-.08.33-.87.48-1.48.34-1.08.87-2.52.37-3.59-.38-.45-1.04-.57-1.47-1.01-.78-.8-1.9-1.12-2.96-1.56-.92-.36-1.8-1.26-2.44-2.18-.23-.33-.57-.94-.4-1.22l.03-.04ZM271.23,52.62c0-1.26,1.03-2.43,1.5-3.6,0-.06-.11.02-.29.14-.54.4-1.22.72-1.89.85-.94.29-2.07-.05-3,.26-.68.45-3.22,2.19-4.35,2.98-.11.09-.06.1.14.06,1.84-.43,3.43-1.62,5.02-.47.69.63,1.59.27,2.38.06.16-.05.35-.09.46-.22l.03-.06ZM113.51,49.52c-.78-.47-1.94,1.22-2.58,1.74-.23.23-.58.19-.87.2-.39.07-.27.58-.2.86.29.44.53.93.62,1.47.55,2.9,2.75.29,3.64-.67.11-.18-.08-.3-.21-.44-.74-.48-.05-2.53-.35-3.12l-.04-.04ZM298.28,49.64c-.27-.18-.32-.1-.56-.08-.87.22-.37,1.23-1.06,2.03-.49.59-1.23.92-1.64,1.58-.36.44-.26,1.06-.86,1.27-.22.08-.44.14-.67.3-.54.43-1.15.97-1.67,1.41-.43.35-.09.22.31.2.85-.15,2.03-.05,2.78-.42,2.11-1.3,3.84-3.63,3.42-6.22l-.06-.07ZM250.79,51.44c-1.03-.33-3.06-.88-4.19-1.22-.7-.45,2.86,3.19,3.2,3.64.08.06.11.03.19-.07.28-.36.93-1.8.83-2.33l-.02-.03ZM258.29,55.67c-.27-.28.03-1.48.51-2.04.4-.45.68-.78.07-1.27-.59-.43-1.28-.54-1.89-.98-.94-.61-1.84-1.49-2.87-1.16-.43.13-.81.49-.8.95.05,1.15,1.27,2.25,1.71,3.01.3.54.45,1.39.71,1.87.75,1.18,2.98,3.16,4.02,2.97.52-.14.37-.89.41-1.35,0-.48.03-1.24-.08-1.62-.13-.53-1.46-.1-1.75-.35l-.05-.04ZM111.03,68.58c-3.61-1.05-3.17-1.84-5.04-4.76-2.99-3.73-5.34-5.85-5.53-10.99-.29-.69-.65-1.64-1.15-1.99-.13-.06-.23-.02-.34.08-.6.73-1.36,2.12-.93,3.22.33,1.06.71,2.17.58,3.3-.11,1.21-.93,2.41-1.33,3.66-.52,2.13-1.95,2.9-3.03.74-.43-.94-.18-1.98-.35-2.85-.28-1.25-1.16-2.68-1.37-4.09-.16-.68-.21-1.44-.51-2.05-.24-.47-.68-.5-1.07-.25-1.93,1.22,1.27,3.88.16,5.02-1.41.37-3.4.35-4.25,1.79-1.01,1.75-1.58,3.63-2.24,5.54-10.98,25.44-19.67,51.33-32.15,76-4.65,13.53-10.7,27.04-14.34,41.15-2.75,12.67-5.99,25.14-7.99,38.03-.35,6.42-1.98,12.75-2.4,19.13-.07,8.03-.17,16.92,1.47,24.66.03,2.92-.41,7.23-.22,10.15-.03,1.2.47,2.03,1.23,2.95.94.9.46,2.08-.05,3.06-.42.94-.4,1.79-.36,2.81.19,3.14,1.6-.28,1.89-1.44.8-1.94,1.97-3.91,3.14-5.58.69-.81.76-2.15,1.52-2.76.26-.13.56.07.67.44.24,1.29-1.12,2.19-1.56,3.32-1.44,2.72-2.31,5.63-3.86,8.19-.48.75-1.22,1.45-1.56,2.3-.38.86-.12,1.94-.33,2.84-.73,1.79-.39,3.78-.44,5.63-.04.58-.23,1.11-.6,1.32-.47.27-1.06.01-1.09-.62-.32-.35,2.04-5.73.1-4.24-1.43,3.09-2.04,6.61-3.49,9.6-.32.68-.41,1.72-1.28,1.77-.66-.16-.37-1.15.01-1.61.52-.77.79-1.51.96-2.43.32-2.14-1.7-.07-2.49.34-3.44,1.93-7.42,3.46-11.07,5.21-.81.49-2.06.91-2.41,1.72.14.15.7.18,1.02.16,1.71-.06,3.07.12,4.76.37,2,.2,4.5.81,6.29-.6,2.98-2.13,5.8-3.9,8.98-5.42,4.28-1.71,7.44-5.86,11.98-7.19,1.19-.22,1.95-.21,2.09-1.35.13-.8.34-2.06.33-2.51-.01-.17-.07-.24-.16-.22-.22.04-.58.36-.82.15-.2-.21-.29-.57-.38-.89-.27-1.02-3.89-7.26-1.34-7.08.87.2,1.66.88,2.27,1.52.86.81.88,2.5,2.04,2.91.4-.06.58-.54.77-.88.37-.81,1.1-1.48,1.57-2.11.44-.62.73-1.22,1.33-1.54,2.05-.72,1.36,1.71.47,2.56-.82,1.1-1.77,2.53-1.64,3.92.22.27,1.27-.5,2.06-.57.68-.08,1.31.18,1.99.09,1.14-.08,2.91-1.64,2.44.25-.15.35-.49.54-.9.63-1.11.12-2.02.78-2.92,1.45-3.59,2.37-5.48,6.12-8.4,8.92-2.12,1.31-3.33,3.33-5.25,5.12-1.25.87-2.04,2.35-2.97,3.39-.75.77-1.76,1.69-2.24,2.61-.27.53-.32.97-.07,1.07,1.09.06,2.53-.62,3.61-1.03,5.44-2.46,11.08-3.18,16.85-5.15.78-.26,1.69-.63,2.16-1.3,1.41-3.12,7.35-4.94,10.02-7.64.6-.79,1.5-2.83,2.48-1.29.08.12.2.14.44-.02,1.4-.96,1.92-3.23,2.82-4.48,1.33-1.7,3.03-3.26,4.59-4.77.85-.69,1.89-.79,2.91-1.12.77-.27,2.02.11,1.13.99-1.42,1.54-4.67,4.18-5.68,5.44-.56.74-.59,1.99-.35,2.83,1.31,1.53,2.28-2.84,7.42,1.06.69.67,1.25,1.87.98,2.85-.17.69-.49,1.47-.25,2.16.83,1.71,3.07,2.52,4.83,3.54,1.33.74,2.61,1.62,4.22,1.37,1.35-.19,3.75.21,2.4-1.27-2.26-2.37-3.99-5.55-6.3-7.98-.43-1.05-.78-1.34-1.82-1.64-3.17-1.52-3.32-3.41-2.8-6.37.41,1.44.33,3.06,1.96,3.99,1.21.84,2.54,2.22,3.92,2.55.12-.05.14-.2.09-.41-.11-.48-.43-1.18-.28-1.8.78-2.79,1.78-5.8,4.36-7.21,3.16-2.21,4.75,1.98,3.91,4.35-.14.26-.38.56-.69.46-.67-.27-.98-2.03-1.75-2.21-1.83.58-3.41,3.01-3.42,4.8.05.73.56.89,1.12,1.1.64.21.67.82,1.09,1.1.22.15.48.24.71.4.69.41,1.36,1.42,2.2,1.68,6.47,1.6,13.95.48,20.12,2.56,1.21.38,2.91,1.04,4.1.71-.95-2.54-5.19-3.81-7.27-4.94-1.27-.58-2.69.04-3.9-.73-2.42-1.31-4.55-3.08-6.63-4.65-.67-.58-.26-1.77-.59-2.58-.4-1.01-1.58-1.49-2.37-2.18-1.34-1-2.34-2.6-3.4-3.67-2.04-1.78-4.24-3.49-5.27-6.09-1.82-3.82-4.96-5.35-8.29-7.74-2.01-2.82-4.82-5.22-6.42-8.23-2.19-3.75-3.35-7.37-4.05-11.38-.13-2.46-.15-6.37.11-8.12.28-.96.73-2.1.57-3.13-.82-9.91,2.26-19.7,4.36-29.27,1.38-5.43,2.75-10.94,4.95-16.15,9.5-22.2,18.61-44.44,26.1-66.83,2.1-6.53,4.08-13.33,6.61-19.69,2.86-7.35,7.22-14.35,9.26-21.81.35-1.89,1.62-3.64,2.47-5.24.18-.36.23-.62.09-.89-1.75-1.93-2.65-2.43-1.72.82.23.91-.69.93-1.39.87-1.61-.03-2.83-1.02-4-2.01-1.98-1.18-2.49-3.88-3.19-5.89-.25-.56-.75-1.31-1.37-1.06-.21.1-.2.11-.29.19-.2.2-.33.43-.45.72-1.26,3.58-2.97,7.26-5.73,9.76-4.66,2.23-2.42-2.83-1.32-4.91.54-2,.96-5.01.25-7.23-.33-.92-.44-2.06-.32-2.94.04-.26.12-.33.27-.2,1.57,2.16,2.04,6.72,1.45,9.47-.43,1.02-1.99,3.11-1.6,4.24.08.1.25.05.49-.13,1.24-.99,3.16-2.57,3.59-4.31.6-1.8,2.5-3.48,1.75-5.29l-.06-.06ZM80.07,63.99c.64-1.08.5-2.62.87-3.81.29-.65.57-1.25.53-1.98,0-1.49-.3-2.69-.09-3.86.05-.41.08-.8.03-1.23-.02-.88-.8-2.55-1.55-1.1-.17.34-.23.74-.38.89-.26.29-.86-.42-1.22-.1-.79.83-1.16,2.27-1.21,3.41.01.62.63,1.08.4,1.73-.13.41-.43.73-.18,1.17.43.95,1.16,2.17,1.53,3.1.25.56.13,2.62,1.22,1.84l.06-.07ZM289.71,51.36c-1.27-.75-4.02,2.33-4.83,3.51-.08.14-.08.24.09.28.34.07,1.07,0,1.65-.02.71.03,1.27-.24,1.26.36,0,.49-.18,1.47.49,1.6.4.07,1.08-.4,1.21-.83.19-.49.17-1.07.21-1.6,0-.85.18-2.43-.04-3.26l-.03-.04ZM258.74,60.33c-.15-.2-.45-.23-.8-.36-.86-.33-1.75-.93-2.46-1.54-1.17-.86-1.06-1.85-1.39-3.04-.16-.62-.58-1.28-1-2.06-.26-.34-.51-1.31-.95-1.21-.59.24-1.41,3-.39,2.99,1.17-.04,1.08,1.61.91,2.42-.13.64-.65,1.13-.66,1.81,0,.37.1.53.22.74.3.4.92,1.05,1.28,1.24.73.23,1.46-.44,2.24-.42.96-.2,2.08.56,2.85.42.28-.14.33-.64.19-.92l-.05-.07ZM271.24,54.51c.82-.1,1.7.61,2.35,1.05.22.15.32.23.48.2,1.11-.17,1.32-3.89-.63-3.71-.4.17-.74.79-1.13,1.17-.28.34-1,1.1-1.11,1.29h.04ZM280.94,52.06c-.77-.67-3.46,1.32-3.61,2.15.15.52,1.84,1.37,2.4,1.48.38.09.67-.26.97-.39.11-.03.21,0,.33.09.51.43,1.5,1.69,2.09,2.14.63.36,1.8,1.05,2.43.46.18-.18.45-.47.44-.72-.02-.21-.27-.28-.47-.34-2.34-.55-3.92-2.57-4.54-4.79l-.06-.07ZM73.96,52.72s-.1.02-.22.15c-.41.5-1.24,1.44-1.53,1.84-.35.44-.42,1.62-.73,2.19-.42.34-1.36-.13-1.81.19-.15.19-.11.92-.14,1.73.07.92-.13,1.67.23,1.99.35.15,1.44-.5,2.07-.69.44-.29.3-.94.62-1.37.38-.78,1.36-1.47,1.53-2.26.06-.28.17-.53.35-.76.83-.85-.27-2.07-.35-2.97l-.02-.04ZM94.91,52.62c-.27-.27-1.54-.17-1.75.3-.15.28-.04.67.1.96.88,1.81,1.92,3.16,1.81,5.17-.01.31-.07.63.05.91.09.23.32.48.55.77.31.35.51.79.65.33.28-1.79,2.01-3.88.86-5.62-.3-.44-.7-1.12-1.12-1.43-.3-.22-.76-.11-.95-.28-.21-.18-.04-.84-.16-1.05l-.04-.06ZM125.22,54.54c-1.27-.19-2.76.21-4.03-.1-1.06-.24-2.37-1.06-3.49-1.13-.58.05-1.04,1.04-1.69,1.07-.44.08-.76-.36-1.18-.34-.28.03-.7.34-1.13.63-.44.34-.76.49-.81.81.38.82,1.9,2.01,2.42,2.53.18.14.37.25.6.28,1.41.05,3.08.31,4.28-.4.97-.65,2.12-1.29,3.13-1.63.56-.34,1.33-1.08,1.79-1.46.12-.12.17-.19.13-.24l-.03-.03ZM267.48,56.98c.07-.81-.93-2.79-1.5-3.07-.28.04-.71.62-.9.79-.14.15-.08.17.03.31.56.61,1.6,1.67,2.34,1.99l.03-.02ZM114.84,68.17c.82-1.15-1.5-3.28-2.09-4.2-1.08-1.44-1.54-3.34-2.3-4.88-.19-.41-.43-.79-.6-1.2-.26-.6.03-1.56-.51-2.21-.57-.67-2.19-1.87-2.14-.66-.04.79-.05,1.97.09,2.65.46,1.59,1.92,2.96.86,4.73-.26.49-.65.88-1.02,1.22-.19.19-.33.31-.31.54.45,1.79,2.24,3.36,4.22,3.08.34-.05.64-.2.97-.11.62.14,1.8,1.63,2.77,1.08l.06-.05ZM274.23,59.36c.23-.49.07-1.19-.16-1.63-.48-.9-1.61-.98-2.46-1.33-.88-.47-1.93-1.43-2.81-1.82-1.66-.67-.06,1.37-.05,2.56.01.28.11.52.41.59,1.62.35,3.27,1.7,5.01,1.68l.06-.05ZM271.22,62.1c-.27-.2-1.49-.22-2.08-.69-1.82-.99-5.09-6.77-7.14-5.52-.72.93-.29,2.53.51,3.29.3.31.47.58.32.92-.41.82-1.17,1.49-1.53,2.34-.77,1.72,1.71,1.93,2.97,2.07.99.11,1.77.84,2.65.3,1.03-.68,2.54.17,3.4-.83.41-.47,1.08-1.2.92-1.84l-.04-.04ZM245.78,58.34c-.06-.04-.15-.04-.26-.04-1.22.15-2.77-1.32-3.56-1.31-.93.19-1.54,1.37-1.72,2.23-.2,1.26,1.07,1.66,2.04,1.05.13-.07.29-.13.44-.16.84-.09,1.42.34,1.3-.55,0-.2-.09-.54.09-.68.31-.15,1.83.36,1.73-.49l-.04-.05ZM85.77,58.87c-.09-.08-.26-.08-.59-.16-.91-.13-2.36-.58-2.58-.43-.16.52-.49,1.56-.58,2.1.01.12.05.25.09.36.23.6.31,1.43.54,1.85.9.86,1.6-.97,1.86-1.5.43-.61,1.7-1.47,1.31-2.17l-.04-.04ZM270.55,59.47c-.11-.06-.73.16-.99-.07-.27-.19-.59-.63-.84-.91-.17-.23-.43-.38-.61-.16-.06.16.29.45.47.66.28.25.05.75.15,1.09.08.09.37-.01.64,0,.28,0,.45.17.65.39.24.29.6.49.59,0,0-.29.03-.72-.03-.98l-.03-.03ZM238.32,58.85c-.25-.24-2.11-.03-2.67.5-.68.54-.48,1.68.1,2.13.29.28.61.55.69.95.06.22.05.5.15.68.06.1.19.13.38.14,1.12.07,2.47.05,3.63.02,1.12.02,1.63-.16,2.51-.83.16-.14,1.2-.79.69-.78-.6.03-2.5.16-3.57.23-.6.03-.87.11-1.22-.21-.82-.68-.47-2.36-.65-2.79l-.03-.03ZM273.06,62.54c.43-.53-.5-2.12-.77-.86-.04.37.27,1.24.72.91l.05-.06ZM274.83,61.24c-.65-.67-1.1.24-1.2.96-.17.84-.05,1.86.25,2.16.09.15.06.21.03.45-.07.63-.24,1.92-.25,2.06,0,.08.12-.12.35-.4.27-.43.87-.86.86-1.3-.11-1,.27-3.31,0-3.88l-.05-.05ZM272.36,64.4c-3.17.28-.85,2.49-.55,4.33.15-1.02.53-3.31.59-4.32h-.04ZM119.54,69.43c-.19-.22-.68-.25-1.07-.42-.75-.27-1.67-.58-2.4-.1-.56.39-.91,1.45-.56,2.03.18.31.43.57.47.95.04.71-.13,1.39.35,1.9.27.36.33.82.63,1.14.49.44,1.49,1.15,2.37,1.61,1.18.54,1.84.77,1.72-.89,0-.51,0-1.04-.08-1.39-.12-.46-.53-.73-.6-1.22-.1-.68.18-1.69-.13-2.23-.16-.26-.41-.61-.49-.95-.05-.13-.03-.13-.15-.36l-.05-.07ZM124.19,75.44c.33.24.79.19,1.2.44.45.26.88.6,1.33.91,1.06.7,2.2,1.51,3.14,2.26.68.2,1.07-.71.92-1.23-.4-1.53-.59-3.11-1.59-4.34-.57-.59-.68-1.46-1-2.15-.62-1.24-2.05-1.45-3.22-1.89-.82-.36-1.48-.09-2.18.29-1.26.29-1.77.93-1.21,2.18.45.98,1.52,1.52,2.11,2.37.24.33.23.79.45,1.1l.05.05ZM273.64,73.11c.1-.47.27-1.99.32-2.52-.08-.2-.33-.67-.44-.92-.09-.18-.12-.32-.23-.27-1.01.63-.96,1.29-.57,2.44.15.49.17,1.39.87,1.28l.05-.02ZM138.25,70.57c-.79-.62-3.83.77-3.02,1.29.48.12,1.24-.24,1.66.13.19.21.35.53.52.46.49-.18,1.15-1.54.88-1.83l-.04-.05ZM142.62,82.27c.1-.31-.7-.93-.98-1.49-.41-.89-.12-1.96-.47-2.89-.28-.92-.73-1.29-1.6-2.19-.8-.79-1.69-1.7-2.53-2.39-.84-.67-4.6-.51-5.49.45-.45.54.32,1.41.22,1.98-.03.25-.16.5-.16.76.01.38.32.64.63.89,1.92,1.24,3.41,2.91,5.33,4.07.71.35,1.65.33,2.46.58.85.16,1.91.71,2.56.29l.02-.05ZM141.96,75.59c-.65,1.09.88,3.85,1.96,3.75.42-.03.62-.38.94-.66.44-.46,1.01-.98,1.38-1.48.44-1.1-.07-2.66.06-3.93,0-.43-.29.15-.66.52-.44.48-1.03,1.26-1.44,1.64-.17.13-.51.11-.98.09-.54-.01-.91-.1-1.21.03l-.05.04ZM138.3,84.18c.43-.53-.5-2.12-.77-.86-.04.37.27,1.24.72.91l.05-.06ZM150.01,87.13c-.12-.76-1.23-1.05-1.92-1.18-1.83-.42-4.26-1.08-5.78-1.88-.68-.39-1.73-.61-2.45-.56-.24.02-.4.09-.46.23-.29.61,1.4,2.15,2.17,2.89.4.38.31.89.67,1.3.83.9,2.6,1.35,3.84,1.29,1.18-.12,2.25-1.07,3.3-1.53.37-.2.61-.3.62-.49v-.07ZM139.54,87.16c-.17-.12-.17-.52-.34-.96-.52-1.52-1.52-.14-2.1.49-.23.29-.06.5.24.93.27.39.59.79.72,1.13.17.4.06.84.16,1.25.17.48.52.7.98,1.19,1.84,2.29,3.12.51,5.41.43.14-.02.39-.05.41-.2-.02-.46-.58-.78-.95-.99-.88-.39-1.84-.68-2.79-1.07-.57-.18-.58-.46-.54-1.16.13-1.2-.41-.84-1.15-1l-.06-.03ZM185.16,85.38c-.31-.04-.71-.1-.98.06-.38.24.05,1.08-.26,1.56-.33.4-.82.82-.41,1.36.18.22.41.37.47.61.22.78-.2,1.9.06,2.61.16-.01.55-.42.77-.57.41-.35.85-.66.99-.85.13-.18.17-.55.34-.83.16-.26.34-.52.11-.78-.08-.11-.09-.11-.27-.3-.2-.25-.18-.59-.29-.95-.19-.62-.23-1.45-.49-1.9l-.06-.03ZM182.71,91.59c.18-.18.04-.73.08-1.05-.02-.57.04-.87-.04-1.13-.44-.57-1.51-1.79-1.75-2.07-.05-.03-.07-.04-.09.02-.1.36-.48,2.25-.59,2.62-.16.38-.44.69-.69,1.12-.18.36-.64.91-.34,1.09.27.08,1.05-.28,2.06-.46.42-.09,1.04-.09,1.3-.12l.07-.02ZM159.49,94.01c.41-.75-.51-1.74-.89-2.41-.43-.82-1.01-1.69-1.82-2.27-.19-.1-.36-.03-.53.08-.31.22-.67.39-1.07.32-.82-.13-1.94-.22-2.84-.08-.8.1-1.29-.31-2.03-.5-.53-.16-1.16.09-.64.66.45.48,1.21.68,1.69,1.16.35.37.45.9.76,1.3.51.68,1.26.89,1.92,1.36.4.31.76.58,1.3.57,1.03-.02,3.16.25,4.1-.15l.04-.05ZM152,93.88c-.25-.36-.21-.82-.56-1.24-.6-.85-3.03-2.65-2.81-.59.16.97.66,1.86,1.03,2.82.62,1.35.24,2.85,1.11,4.1,1.22,1.87,3.18,2.25,5.24,1.96.64-.15,1.23-.73,1.87-.97.47-.17.83-.24.88-.53.12-.54-.69-1.56-1.44-1.8-1.14-.52-2.56.06-3.33-1.2-.44-.67-.63-1.66-.82-2.06-.22-.41-.8-.2-1.12-.44l-.05-.05ZM158.68,95.58c-.27.25-.13.9.1,1.32.63,1.18,2.35,1.67,3.78,1.62.59.01,1-.4,1.51-.59.49-.16,1.01-.03,1.38-.27,1.33-.8,2.55-2.56,4-2.92.5-.14,1.31-.32,1.5-.82.02-.15-.22-.23-.62-.27-.59-.05-1.19-.18-1.76-.13-.4.05-.78.31-1.13.54-2.17,1.56-3.78,1.16-6.09.7-.6-.05-1.13.39-1.85.54-.24.05-.55.09-.75.23l-.07.06ZM179.84,93.47c-.72-.37-2.13.05-2.97-.11-.67-.08-1.13-.66-1.75-.45-.23.08-.46.21-.69.3-.46.18-.9.21-.93.76.08,2-.58,1.06-2.03,1.43-.24.08-.48.21-.71.32-.41.23-.89.2-1.33.32-.64.2-1.25,1.09-1.52,1.69-.09.23-.11.41-.03.55.35.44,1.01.47,1.52.73.38.14.78.19,1.13.05.54-.26,1.06-.53,1.67-.55.87-.07,1.69-.95,2.39-1.52.36-.29.82-.58,1.13-.9.4-.39.18-.77.86-.95.69-.36,4.36-.37,3.33-1.64l-.06-.05ZM180.62,95.33c-.4,0-.4.62,0,.62s.4-.62,0-.62ZM164.87,99.66c-.36-.33-1.44.56-2.35.58-.52.05-.79-.35-1.24-.54-.42-.21-1.01-.11-1.28.18-.69.8-2.79,1.31-2.59,2.52.16.41.71.86,1.04,1.2.7.8,1.54.37,2.32.02.5-.22,1-.21,1.51-.48.43-.3,1.07-.26,1.3-.48.11-.21.02-.73.28-1.04.4-.53,1.41-1.23,1.05-1.91l-.05-.05ZM28.54,281.41c-.4,0-.4.62,0,.62s.4-.62,0-.62ZM43.69,288.83c-.02-.08-.54-2.56-.64-2.81-.46-.69-1.8-2.72-1.83-2.75,0,.06.5,2.35.61,2.77.44.7,1.81,2.73,1.85,2.79h0ZM27.02,286.95c.43-.53-.5-2.12-.77-.86-.04.37.27,1.24.72.91l.05-.06ZM46.47,286.97c-.4,0-.4.62,0,.62s.4-.62,0-.62ZM28.24,289.44c.04-.19.04-.8.04-1.09-.05-.5.12-.82-.3-.92-.53.06-.49,2.72.23,2.05l.03-.04ZM45.53,290.66c-.24-.77.88-1.64.68-2.38-.44-.64-.61.22-.63.6-.02.27-.07.34-.22.57-.32.47-1.04,1.27.15,1.25l.02-.03ZM49.56,288.82c-.4,0-.4.62,0,.62s.4-.62,0-.62ZM48.05,291.27c.33-.57-.65-1.81-1.15-1.88-.17,0-.02.43-.19.75-.11.3-.29.61-.43.89-.49.93-.03,1.31.62.44.23-.33.94-.09,1.1-.16l.05-.04ZM27.02,291.9c.29-.44-.26-1.18-.59-1.53-1.48-1.55-.84,2.85.54,1.58l.05-.06ZM71.2,290.68c-.4,0-.4.62,0,.62s.4-.62,0-.62ZM70.28,296.87c-.15-.6-.94-3.15-.93-3.1-.15.21-.23.37-.41.63-.22.42-1.06,1.55-1.1,1.82.1-.01.4-.02.65.09.55.15,1.23.8,1.77.58l.02-.02ZM72.76,296.9c.81.48,2.41-1.21,1.84-1.89-.31-.22-.6.39-.83.53-.63.34-2.06.12-1.07,1.31l.06.05ZM78.93,299.34c.2-.92.13-2.67-.2-3.63-.1-.24-.27-.26-.4-.11-.1.12-.1.41-.12.88,0,.61-.02,3.41.69,2.91l.03-.04ZM58.21,301.19c-.23.17-.74.68-.9.89-.07.1.03.33.2.28.29,0,1.39-1.01.75-1.16h-.05Z"/>
        <path d="M310.7.3c-.99.86-2.79.4-4.01.47-3.5.02-7.04.02-10.54,0-1.05-.04-2.23.21-3.26-.11-.51-.19-.92-.5-.52-.54,2.04.14,17.21-.27,18.35.15l-.03.03Z"/>
        <path d="M283.52.22c-.06.23-.39.59-.72.57-1.99.22-4.36-.76-6.03.51-.69.43-.73-.59-.66-1.04.02-.07.04-.11.08-.13.25-.05,1.3,0,2.55-.02,1.44.06,3.78-.12,4.79.06v.05Z"/>
        <polygon points="284.17 .13 284.79 .13 284.48 .75 284.17 .13"/>
        <path d="M317.51,230.01c-.03-.14-.51-.29-.84-.64-.21-.21-.35-.6-.05-.82.34-.34,1.04-.3,1.14-.51.08-.13-.04-.37-.17-.68-.21-.54-.33-1.11.27-1.42.57-.28,1.29-.15,1.89-.28.73-.13,1.35-.47,2.11-.57,1.87-.15,4,.12,5.95.08,1.93-.16.66-.73-.41-.72-.85-.07-1.55-.43-2.35-.45-.82-.01-1.69.4-2.3.12-1.51-.8.81-1.19,1.47-1.3,1.07-.23,1.53-.62,2.66-.75.96-.14,2.09.09,3.02-.03.71-.15.48-.99,1.2-1.32.81-.32,1.83-.43,2.68-.69,3.26-.88,6.36-1.97,9.76-1.73,1.37.31,2.58.87,4,.82,1.78.09,3.3.73,4.63,1.94.55.58.61,1.33.96,2,.4.75,1.36,1.31,1.49,2.22.2.68-.17,1.7.48,2.17.22.16.49.23.67.44.43.68.23,1.94.21,2.78-.21,1-.55,1.94-.25,2.97.06.6-.11,1.38.46,1.73.36.17.37.18.7.21,2.3-.06,4.33-1.66,6.58-2,2.68-.5,5.3-.24,7.93-.81,1.33-.34,3.04,0,4.1.72,1.17,1.42,1.74,3.4,2.41,5.11,1.66,2.93,2.63,6.14,3.84,9.14,1.48,3.13,3.91,5.87,5.54,8.89.59,1.46.61,3.43-.71,4.51-1.05,1.24-2.15,1.8-3.58,2.47-.73.5-1.5,1.18-2.45,1.11-1.37.05-1.11-1.93-2.21-2.62-.9-.66-1.63.37-2.44.67-1.12.32-2.11.79-1.59,2.08.42,1.03,1.45,1.38,2.33,2.26.81.86,1.96,1.26,2.54,2.38.38.69.31,1.54.6,2.25.7,1.39,1.17-.42,1.35-1.09.82-1.89,1.47-3.7,2.52-5.42.72-.78,1.64-2.02,2.71-2.26,5.35.97,8.5,5.56,10.89,10.23.62,1.18,1.66,2.23,1.53,3.62-.04.88.03,1.96-.4,2.48-.8.81-2.22,1.03-3.28.62-.41-.17-.79-.42-1.18-.62-1.12-.68-2.55-.16-3.79-.45-.77-.22-1.25-.33-1.47.61-.67,2.46-1.69,5.28-3.64,6.98-1.58.85-3.99.89-5.6.08-1.77-.92-4.13-1.89-5.74-3.07-1.31-.94-2.47-2.56-4.17-2.76-.85-.21-1.64-.95-2.49-1.09-.84-.16-1.74.04-2.58-.07-1.04-.28-1.9-.22-2.93.01-1.43.12-3.06.29-4.14,1.4-.26.24-.52.51-.81.7-1.58,1.12-4.11-2.08-5.15-1.94-.48.08-.51,1-1.05,1.65-.46.59-.96,1.09-1.56,1.7-1.5,1.51-3.3,3.16-4.3,4.47-1.59,2.32-2.8,4.81-4.07,7.33-1.32,3.48-1.9,7.44-6.69,7.05-.75-.09-1.36-.41-2.07-.56-.79-.17-1.58-.1-2.3-.5-2.6-1.51-6.06-2.74-7.84-5.27-2.25-2.83.99-6.25,4.03-6.17,1.16-.11,2.12.46,3.08,1,3.96,1.59,5.77-3.29,7.08-6.09.89-1.7,2.68-3.66,3.63-4.86,1.03-1.27,1.64-2.96,2.16-4.53.16-.44.34-.87.64-1.22.93-1.1,3.49-3.22,5.03-4.7.67-.68,1.1-1,1.26-1.7.17-1.09-.47-2.03-.68-3.07-.46-2.42-.82-4.81-1.4-7.16-.37-1.71-1.6-4.13-3.71-3.42-.98.32-1.63,1.05-2.53,1.51-2.07,1.12-4.38,2.59-6.52,3.22-1.07.1-2.35.51-3.36.47-1.02-.31-2.08-.29-3.13-.45-.9-.19-1.9-.95-2.6-1.36-.72-.42-1.39-.29-2.13-.74-.74-.5-1.24-1.35-1.6-2.16-.25-.7-.44-1.27.1-1.67.45-.26.92-.68.58-1.19-.26-.42-.77-.61-1.21-.75-.81-.21-1.88-1.06-2.31-1.9-.22-.46.03-.96.25-1.41.88-1.41.19-2.82-.87-3.99-.94-1.2-2.12-1.96-3.55-2.39-.98-.28-1.92-.95-1.62-2.11.41-1.9,1.98-1.94,3.58-1.88.94-.03,1.5-.74,2.37-1.22,1.26-.56,2.06-.91,3.04-2.21.27-.34,2.73-3.2,1.16-2.58-.61.35-1.11,1.54-1.87,1.95-1.29.69-.95-.9-.75-1.6.04-.25,0-.38-.15-.39-.41.03-1.24.55-1.69.85-.65.37-1.37.91-2.11.54-1.03-.61-2.05-2.2-2.95-2.89-.83-.72-2.3-.11-2.13-1.68.32-3.49-.93-6.75-1.22-10.29-.15-1.1-.83-2.1-1.39-3.11-.15-.25-.26-.38-.33-.36-.2.2-.09,1-.14,1.39-.33,2.36.74,4.35,1.16,6.56.32,1.36-1.28,2.48-2.43,1.68-.51-.31-1.02-1.04-1.52-1.4-.36-.28-.63-.27-.64,0,.03.55.65,1.19,1.09,1.62.86.79,1.59,1.76,1.73,2.94.04,2.22.33,4.65,2.92,5.32.64.18,1.29.73,1.84,1.07.56.28.95.84.6,1.44-.54.86-1.65.11-2.23-.35-.81-.67-1.78-1.24-2.51-1.91-.96-.92-1.89-2.48-2.43-3.78-.4-1.12-.37-2.27-.8-3.33-.4-1.3-1.96-2.87-1.85-4.25.07-.23.24-.43.34-.65.28-.5.03-1.22-.14-1.93-.13-.59-.14-1.27-.52-1.82-.27-.43-.63-.84-.59-1.38.09-.76.68-1.88,1.5-2.14.93-.3,1.67.73,2.39.68.52-.07.64-1.21.92-1.73.5-.75,1.93-.4,2.51.23.83,1.27,1.73,2.63,2.16,4.12.39,1.35.59,2.66.51,4.04-.18,1.22-.23,2.44.21,3.61.27,1.16-.26,2.47.63,3.36.81.85,2.01,2.2,3.08,2.92.51.32,1.26.24,1.77.05.14-.06.22-.12.22-.19v-.03ZM305.83,217.09c.28-.72-.52-1.49-1.04-1.97-.83-.77-1.73-.64-1.41.5.43.53,1.8,1.37,2.42,1.49l.03-.03ZM306.73,220.82c-.4,0-.4.62,0,.62s.4-.62,0-.62ZM345.68,220.82c-.4,0-.4.62,0,.62s.4-.62,0-.62ZM346.61,225.15c-.11-.07-.38.03-.66.02-.33.02-.54-.28-.75-.5-.24-.27-.48-.25-.49-.04-.03.26-.03.96-.02,1.32.02.34-.03.6.31.47.31-.18.53-.69.96-.67.29-.03,1.06-.12.72-.54l-.06-.05ZM331.74,225.12c-.43-.44-1.5-.08-1.03.63.07.17.69.68.83.66.32.05.34-1,.23-1.26l-.03-.04ZM337.97,226.38c.42-.54-2.45-2.18-2.49-.76,0,.14.09.15.21.12.76-.06,1.52.96,2.24.68l.04-.03ZM350.62,226.39c-.4,0-.4.62,0,.62s.4-.62,0-.62ZM319.71,227.01c-.4,0-.4.62,0,.62s.4-.62,0-.62ZM340.4,226.98c-.43-.44-1.5-.08-1.03.63.07.17.69.68.83.66.32.05.34-1,.23-1.26l-.03-.04ZM335.32,239.81c-1.28.57-2.91-.73-3.6-1.8-.94-1.3-2.29-2.92-2.82-4.19-.26-.61-.23-1.29-.37-1.93-.13-.65-.38-1.13-.3-1.77.06-.55.38-1.38.39-1.96.05-1.29-1.58-.23-2.1.49-.55,1.01.56,2,.84,2.94.67,1.94,1,3.84,2.22,5.57.21.5,3.26,3.31,1.53,3.18-2.17-.88-3.09-3.13-4.07-5.11-.54-1.07-1-1.99-.94-2.96.03-.71-.01-1.86-.99-1.09-2.32,1.93-3.94,4.63-6.7,6.01-.93.6-1.67.85-2.65.81-1.44-.13-2.05.51-.61,1.57,2.1,1.26,4.49,2.73,4.61,5.39.03.56-.16,1.14-.29,1.66-.15.71.11,1.37.63,1.88.93.91,2.53,1.09,3.84.92.75-.07,1.51-.63,2.31-.96.5-.2.9-.2,1.02.09.23.81-.41,1.86-.85,2.56-.5.77-1.3,1.02-2.12,1.41-1.1.59-2.21,1.58-1.37,2.17.67.49,1.53.85,2.28,1.24,1.13.58,1.87,1.05,2.84,1.06.98-.08,1.91.21,2.87.26.73-.09,1.88-.26,2.78-.3,1.06-.16,1.95-.9,2.8-1.52,1-.79,1.79-.94,2.7-1.81.57-.52,1.07-1.26,1.78-1.56.89-.3,2-.23,2.97-.12,5.27,1.8,2.95-.4,3.71-4.04,1.25-3.55-2.85-.02-4.22,0-1.82.51-.55-1.8-.15-2.67.71-1.4,1.48-3.33.21-1.53-.44.67-1.23,1.1-2.13,1.58-1.04.62-1.94.99-3.2.96-.63-.02-1.68.2-2.04-.43.07-1.14,2.95-.92,3.81-1.47.95-.45,2.06-1.54,2.4-2.44.46-1.43,1.34-3.12.35-4.55-.28-.42-.79-.95-1.31-.84-.72.23-1.15,1.12-1.92,1.32-.73.24-1.61-.24-2.5.15-.81.28-1.15,1.2-1.59,1.79l-.05.05ZM330.51,227.6c-.53-.43-2.12.5-.86.77.37.04,1.24-.27.91-.72l-.06-.05ZM334.27,230.07c.25-.54-.57-1.4-.65-2-.04-.16,0-.33-.06-.42-.12-.17-.39-.05-.47.2-.1.21-.15.52-.17.85-.03.38-.01.77.01,1.04.04.24.02.36.14.38.31.03.89.05,1.16-.01l.04-.03ZM332.41,229.46c.44-.43.08-1.5-.63-1.03-.17.07-.68.69-.66.83-.05.32,1,.34,1.26.23l.04-.03ZM319.09,228.86c-.4,0-.4.62,0,.62s.4-.62,0-.62ZM337.96,228.88c-.05-.06-.35.4-.68.78-.37.53-.62.58-.55.91.16,1.02.5,3.23.58,3.78.07.12.15.1.31.05.53-.17.5-.67.28-1.22-.36-.88-.8-1.49-.35-2.3.29-.56.65-1.35.44-1.95l-.02-.04ZM346.01,231.31c.47-.61-.46-2.55-1.21-2.49-.7.58.56,2.81,1.18,2.53l.03-.04ZM349.72,231.93c.42-.74-.1-2.02-.54-2.7-.19-.24-.4-.56-.67-.41-.71.59.42,3.55,1.18,3.16l.04-.05ZM342.59,230.1c-.4,0-.4.62,0,.62s.4-.62,0-.62ZM345.92,239.95c.68-1.66.84-3.53.63-5.37-.18-.53-.56-1.36-.75-1.82-.06-.12-.13-.18-.21-.16-1.44.9-.84,2.89-.41,4.14.09.38.14.77.17,1.15.09.57-.41,2.2.51,2.11l.06-.05ZM349.39,232.57c-.4,0-.4.62,0,.62s.4-.62,0-.62ZM342.87,233.78c-.73-.64-1.98.73-1.11,1.35.71.47,1.73-.64,1.17-1.29l-.06-.06ZM383.64,256.6c.42-.33.63-1.3.54-1.95-.1-.54-.41-.85-.85-1.35-1.09-1.37-2.64-2.51-3.36-4.07-.84-2.43-1.49-5.12-2.42-7.51-.36-.7-.97-1.21-1.26-1.94-.45-1.57-.54-3.29-1.69-4.48-.8-.96-2.35-1.35-3.45-1-.53.17-1.01.41-1.58.46-.4.03-.82,0-1.21-.05-1.83-.33-3.46.52-5.28.71-1.09.05-1.25.47-1.19,1.51.04,1.04-.45,1.82-.6,2.79-.09,1.17.25,2.3.46,3.42.08.28.17.53.37.71.24.19.47.22.79.12,1.76-.75,3.79-1.2,5.63-1.59.49-.08.91-.13,1.33-.04.76.18.72.94,1.3,1.63.28.36.64.74.97,1.09,1.04,1.13,2.19,2.17,2.56,3.55.19,1.46.71,2.46.99,3.81.12.71.36,1.51.22,2.03-.07.33-.17.66-.19,1.02-.04,1-.06,1.9-.07,2.86.02.65-.24,1.48-.28,1.73-.02.15.08.07.31-.2.46-.48.98-1.28,1.23-1.77.17-.29.39-.49.73-.57.6-.16,1.12.23,1.29.83.35,1.34.36,2.89,1.55,3.74.11.04.15-.04.17-.15.09-.6-.02-2.89.08-3.39.1-.34.37,0,.57.17.48.38,1.15,1.37,1.72,1.47.3-.06-.16-1.39-.36-2.23-.25-.88.27-.98.91-1.29l.07-.05ZM360.6,236.28c-.66-.58-1.94.44-2.76.81-.82.44-1.76.11-2.61.54-.24.12-.48.27-.71.42-.8.59-1.82.79-2.23,1.58-.4,1.04-.21,2.47-.17,3.57.1.78.51,1.26.61,2.02.07.46.05.96.3,1.37,1.73,2.09,2.86,4.61,4.25,6.92.37.54.54,1.52,1.34,1.3.7-.27,1.32.04,2.05.13.95.02,1.91-.51,2.39-1.34.99-1.46,1.25-3.13.44-4.68-.21-.54-.22-1.2-.66-1.6-.86-.78-3.11-.65-3.63.3-.34.55-.29,1.29-.75,1.78-.79.83-1.2.08-1.45-.71-.24-.59-1.19-.91-.5-1.56.9-1.01,3.03-1.57,3.83-2.11.31-.19.3-.49.18-.8-.4-.77-.17-1.88-.44-2.68-.16-.45-.37-.85-.36-1.35.04-1.07.49-2.32.91-3.18.09-.26.12-.51.03-.68l-.04-.06ZM356.4,255.5c.33-.23-.57-1.18-1.32-2.36-1.32-1.92-3.42-4.64-3.7-6.83-1.78-4.28-2.54-.78-2.36,1.6.3,1.71,1.09,3.44,1.58,5.05.4,1.44,1.47,2.45,2.21,3.73,1.44,3.17,1.21-1.18,3.54-1.17h.05ZM373.73,258c.14-.11.19-.31.23-.5.12-.78.36-2.59.46-3.46.06-.59-.06-.94-.31-1.46-1.24-2.51-1.68-5.6-3.9-7.35-.75-.46-1.41-.92-2.32-1.01-.75,0-1.32.79-2.23,1.03-.49.15-.96.17-1.11.33-.12.12-.09.34.04.65.53,1.16,1.58,2.37,2.2,3.55,1.53,2.79,3.11,5.81,5.76,7.84.29.22.85.55,1.13.42l.05-.03ZM371.89,261.2c.32-.43-.29-1.84-.72-2.39-1.42-1.85-3.07-4.57-5.01-5.79-.6-.34-.99.15-1.26.64-.45.78-1.35,1.8-2.08,2.39-.69.58-1.66.41-2.48.45-1.33.06-.42,1.97-.95,2.79-.36.9-1.35,1.39-2.04,1.84-.51.29-1,.85-1.63.8-.36-.03-.71-.33-1.1-.56-.51-.32-1.15-.34-1.61.09-.83.72-.73,2.23-.92,3.1-.13.6-.49,1.14-.51,1.76-.04,1.02.86,1.61.96,2.55,0,.52-.29,2.08-.96,1.41-.67-.49-1.42-2.3-2.3-1.15-1.34,1.45-4.22,3.86-5.07,5.04-.44,1.15,3.65,1.68,4.49,2.03,1.3.35,2.45.79,3.5,1.54,1.39,1.13,2.69,2.98,4.33.95.53-.6.11-1.22-.23-1.79-.46-.86-.73-1.57-1.36-2.21-2.03-2.14-.14-3.29,1.38-.86.65.89,1.1,1.95,1.78,2.8.52.62,1.27.48,2.11.82,2.97,1.16.49-1.1,2.04-1.5.57-.07,1.1.31,1.55.66,1.96,2.03,4.77,1.1,7.34,1.15.78.01,1.44-.32,1.92-.95,1.98-2.56,5.48-5.69,2.95-7.66-1.24-.88-2.76-1.67-3.61-2.93-.53-.92-4.23-5.04-1.44-5.06.38.04.73.16.88.06l.04-.03ZM352.18,260.35c.11-1.65-.9-3.67-2.46-4.28.05.6.49,2.3.58,2.74.27.33.85.72,1.21,1.06.18.13.54.51.65.51l.02-.04ZM349.7,261.63s-.56-2.54-.61-2.76c-.23-.34-1.03-1.31-1.24-1.56.09.2,1.85,4.32,1.85,4.32h0ZM384.62,257.3c-.4,0-.4.62,0,.62s.4-.62,0-.62ZM355.24,259.18c-.06.27.45.8.65,1.01.25.24.3.3.61.02.5-.49,1.57-1.65,1.2-2.27-.68-.06-.99.95-1.54,1.2-.27.13-.77-.05-.88.01l-.04.03ZM396.74,277.62c.36-.44-.68-1.78-.97-2.51-.51-3.61-3.57-6.24-6.39-8.25-1.11-.79-2.37-2.25-3.81-1.4-.5.3-.52,1-.03,1.35.37.28.88.37,1.31.55,1.11.42,1.76,1.49,2.41,2.43.35.52.82.98,1.04,1.57.51,1.69-.74,5.18,2.03,5.22,1.11.21,2.99,1.7,4.35,1.09l.04-.05ZM383.2,271.44c.19.14.65.12.98.27.89.32,1.53,1.01,2.21,1.66.49.43,1.44,1.49,2.05.76.62-.98.24-2.21-.5-3.04-1.7-2.15-4.46-3.43-4.83-.29-.04.19-.02.4.04.58l.06.06ZM384.79,284.48c.67-.82.67-2.23,1.22-3.27.42-.68.89-1.34.91-2.17.16-2.27-.98-4.68-3.13-5.5-.23-.06-.4-.09-.67.06-.92.86.87,1.65.9,2.59.11.48-.16,1.22-.56,1.26-.51.07-.99-.45-1.39-.75-.98-.97-1.86-.88-2.59-2.05-.45-.76-1.29-2.02-2.16-1-.35.39-.58,1.16-.93,1.6-1.24,1.46-3.98,3.33-3.77,4.95.64,2.23,4.01,2.21,5.49,3.5.65.49,1.42,1.34,2.2,1.55.47.15.98.08,1.45.19.62.15,1.01.45,1.48.06.41-.39,1.08-.66,1.49-.97l.06-.06ZM343.86,276.44c-1.52.71-2.39,3-3.6,4.13-.43.46-.74.99-.99,1.57-.56,1.34-1.42,2.56-2.23,3.76-.27.39-.39.86-.03,1.22.76.73,1.88,1.64,2.68,2.35.45.37.71.62,1,.56.24-.05.56-.34.96-.72.62-.59,1.22-1.17,1.25-1.97.04-.37.06-.67.27-.95,1-1.29,5.03-5.04,6.47-6.8.39-.64-.27-1.52-.97-1.88-.36-.17-.82-.23-1.31-.39-1.02-.3-2.49-1.08-3.42-.88l-.08.02ZM339.24,293.74c.2-.47.39-1.41.52-1.91,0-.18-.03-.35-.15-.49-1.17-1.24-2.63-2.67-4.47-2.48-.36.13-.26.74-.53,1.02-.42.45-.88.84-1.1,1.47-.15.36-.26.88.17,1.04.52.18,1.18.05,1.72.12.39.03.65.25.95.61.42.52.7.73,1.28.72.46,0,1.17.06,1.58-.06l.04-.03ZM337.82,295.83c-.21-.18-.58-.25-.9-.46-.41-.28-.72-.74-1.15-.94-1.65-.61-3.59-.67-4.95-1.92-.41-.36-.67-.68-1.27-.73-1.01-.08-3.01-.5-3.94-.47,0,.06.25.26.59.56.75.63,1.32,1.32,2.33,1.33,2.21.25,4.05,1.84,5.9,2.87.63.21,1.55.24,2.22.52.41.13.77.25,1.02.18.33-.12.48-.57.21-.89l-.06-.06ZM336.67,298.27c-.52-.28-1.38-.01-1.97-.17-2.28-.58-4.72-3.52-7.4-3.78-.55-.06-1.06-.19-1.52-.52-.96-.68-2.63-1.87-3.24-1.34-.73.97.65,2.24,1.26,2.98,2.68,2.88,6.25,3.7,9.84,4.44.64.07,1.2.47,1.74.66,1,.27,1.69-1.54,1.34-2.22l-.05-.05Z"/>
        <path d="M321.87,238.75c-.2-1.03,1.05-2.77,1.88-3.44.51-.46,1.42-.35,1.6.34.03,1.13-.66,2.17-1.66,2.77-.66.43-1.32.7-1.78.37l-.04-.04Z"/>
      </g>
    </g>
  </g>
</svg>