<?xml version="1.0" encoding="UTF-8"?>
<svg id="uuid-ed8d7073-a4d1-4888-b331-dcae19206abb" data-name="Layer 2" xmlns="http://www.w3.org/2000/svg" viewBox="0 0 121.96 71.97">
  <defs>
    <style>
      .uuid-f8bd2bfd-f5c2-4814-9100-0ead354fae3f {
        fill: #e7a614;
      }

      .uuid-32f128d7-65af-4cb4-864c-34384bdc4ffc, .uuid-3cfef0a6-9362-4ca1-903b-8638d6beb740, .uuid-16600043-399c-4537-9607-f41eb951a88d {
        fill: none;
        stroke: #e7a614;
        stroke-linecap: round;
        stroke-linejoin: round;
      }

      .uuid-3cfef0a6-9362-4ca1-903b-8638d6beb740 {
        stroke-dasharray: 0 2.02;
      }

      .uuid-32088811-301a-4386-aed7-134a9d6065ec {
        fill: #005596;
      }

      .uuid-16600043-399c-4537-9607-f41eb951a88d {
        stroke-dasharray: 0 2.03;
      }
    </style>
  </defs>
  <g id="uuid-31d9bbdd-cf6f-4b05-8d7f-0923a00d8bf8" data-name="Layer 1">
    <g>
      <g>
        <path class="uuid-32088811-301a-4386-aed7-134a9d6065ec" d="M73.65,38.98s-.06,0-.09-.01h0c-.05-.32-.34-1.38-1.84-2.14.08-.08.44-.37,1.93-.61l-1.91-2.07-.51,1.3s0,0,0,.02l-.83-.89-.99-1.1,3.09-9.58-4.91-3.51,2.34-2.65.28-2.05-2.01.49-2.59,2.8-4.73-3.38-4.56,3.36-2.57-2.78-2.01-.49.28,2.05,2.34,2.65-4.75,3.49,2.96,9.56-1.01,1.13-.83.89s0-.02,0-.02l-.51-1.3-1.91,2.07c1.49.24,1.85.52,1.93.61-1.5.76-1.79,1.82-1.84,2.14h0s-.06,0-.09.01c-.42.11-.67.54-.56.95.11.42.54.67.96.56.34-.09.57-.39.58-.73.31-.08,1.34-.47,1.94-2.05.08.06.4.39.79,1.86l1.82-2.05h0s14.26,0,14.26,0v-.02s1.83,2.07,1.83,2.07c.4-1.47.71-1.8.79-1.86.61,1.57,1.64,1.96,1.94,2.05.01.34.24.64.58.73.42.11.85-.14.96-.56.11-.42-.14-.85-.56-.95M52.55,37.09l.78-.91.07-.07.41,1.34-1.26-.35ZM64.64,28.74l2.9,8-6.48-5.24-6.69,5.1,2.83-7.86-6.83-4.69h8.14l2.43-7.38,2.4,7.38h8.21l-6.9,4.69ZM68.13,37.45l.43-1.34.06.07.78.91-1.28.36Z"/>
        <polygon class="uuid-f8bd2bfd-f5c2-4814-9100-0ead354fae3f" points="63.84 28.47 64.29 28.17 69.31 24.75 63.37 24.75 62.86 24.75 62.7 24.27 60.97 18.91 59.2 24.27 59.04 24.75 58.54 24.75 52.64 24.75 57.62 28.17 58.07 28.47 57.88 28.98 55.85 34.62 60.67 30.95 61.1 30.61 61.53 30.96 66.07 34.63 64.02 28.98 63.84 28.47"/>
        <path class="uuid-32088811-301a-4386-aed7-134a9d6065ec" d="M14.95,47.15c0-.13.11-.25.25-.25h3.11c1.63,0,2.97,1.32,2.97,2.93s-1.34,2.98-2.95,2.98h-1.66v3.11c0,.13-.12.25-.25.25h-1.22c-.15,0-.25-.12-.25-.25v-8.77ZM18.21,51.19c.74,0,1.36-.6,1.36-1.38,0-.73-.62-1.28-1.36-1.28h-1.54v2.66h1.54Z"/>
        <path class="uuid-32088811-301a-4386-aed7-134a9d6065ec" d="M24.04,46.9h1.23c.14,0,.25.11.25.25v8.77c0,.14-.11.25-.25.25h-1.23c-.14,0-.25-.11-.25-.25v-8.77c0-.14.11-.25.25-.25Z"/>
        <path class="uuid-32088811-301a-4386-aed7-134a9d6065ec" d="M33.51,47.22c0-.17.13-.32.32-.32h1.16c.17,0,.32.15.32.32v3.58l3.34-3.76c.05-.07.13-.13.25-.13h1.32c.25,0,.38.28.21.48l-3.46,3.89,3.71,4.44c.13.17.03.46-.24.46h-1.44c-.13,0-.21-.05-.24-.09l-3.46-4.26v4.04c0,.17-.15.32-.32.32h-1.16c-.19,0-.32-.15-.32-.32v-8.63Z"/>
        <path class="uuid-32088811-301a-4386-aed7-134a9d6065ec" d="M42.62,55.83l4.12-8.91c.04-.08.11-.14.23-.14h.13c.13,0,.18.07.22.14l4.08,8.91c.08.17-.03.34-.23.34h-1.15c-.2,0-.29-.08-.38-.27l-.65-1.43h-3.96l-.65,1.43c-.05.13-.17.27-.38.27h-1.15c-.2,0-.31-.17-.23-.34"/>
        <path class="uuid-32088811-301a-4386-aed7-134a9d6065ec" d="M53.74,47.15c0-.13.11-.25.25-.25h3.11c1.63,0,2.97,1.32,2.97,2.93s-1.34,2.98-2.95,2.98h-1.66v3.11c0,.13-.12.25-.25.25h-1.22c-.15,0-.25-.12-.25-.25v-8.77ZM57,51.19c.74,0,1.36-.6,1.36-1.38,0-.73-.62-1.28-1.36-1.28h-1.54v2.66h1.54Z"/>
        <path class="uuid-32088811-301a-4386-aed7-134a9d6065ec" d="M62.58,47.15c0-.13.11-.25.25-.25h3.11c1.63,0,2.97,1.32,2.97,2.93s-1.34,2.98-2.95,2.98h-1.66v3.11c0,.13-.12.25-.25.25h-1.22c-.15,0-.25-.12-.25-.25v-8.77ZM65.83,51.19c.74,0,1.36-.6,1.36-1.38,0-.73-.62-1.28-1.36-1.28h-1.54v2.66h1.54Z"/>
        <path class="uuid-32088811-301a-4386-aed7-134a9d6065ec" d="M69.62,55.83l4.12-8.91c.04-.08.11-.14.23-.14h.13c.13,0,.18.07.22.14l4.08,8.91c.08.17-.03.34-.23.34h-1.15c-.2,0-.29-.08-.38-.27l-.65-1.43h-3.96l-.65,1.43c-.05.13-.17.27-.38.27h-1.15c-.2,0-.31-.17-.23-.34"/>
        <path class="uuid-32088811-301a-4386-aed7-134a9d6065ec" d="M85.18,47.15c0-.13.11-.25.25-.25h3.11c1.63,0,2.97,1.32,2.97,2.93s-1.34,2.98-2.95,2.98h-1.66v3.11c0,.13-.12.25-.25.25h-1.22c-.15,0-.25-.12-.25-.25v-8.77ZM88.44,51.19c.74,0,1.36-.6,1.36-1.38,0-.73-.62-1.28-1.36-1.28h-1.54v2.66h1.54Z"/>
        <path class="uuid-32088811-301a-4386-aed7-134a9d6065ec" d="M94.02,47.15c0-.13.12-.25.25-.25h1.23c.15,0,.25.12.25.25v3.51h4.32v-3.51c0-.13.11-.25.25-.25h1.22c.13,0,.25.12.25.25v8.77c0,.13-.12.25-.25.25h-1.22c-.15,0-.25-.12-.25-.25v-3.65h-4.32v3.65c0,.13-.11.25-.25.25h-1.23c-.13,0-.25-.12-.25-.25v-8.77Z"/>
        <path class="uuid-32088811-301a-4386-aed7-134a9d6065ec" d="M105.52,46.9h1.23c.14,0,.25.11.25.25v8.77c0,.14-.11.25-.25.25h-1.23c-.14,0-.25-.11-.25-.25v-8.77c0-.14.11-.25.25-.25Z"/>
      </g>
      <line class="uuid-16600043-399c-4537-9607-f41eb951a88d" x1=".5" y1="2.53" x2=".5" y2="70.46"/>
      <line class="uuid-3cfef0a6-9362-4ca1-903b-8638d6beb740" x1="2.52" y1="71.47" x2="120.45" y2="71.47"/>
      <line class="uuid-16600043-399c-4537-9607-f41eb951a88d" x1="121.46" y1="69.45" x2="121.46" y2="1.51"/>
      <line class="uuid-3cfef0a6-9362-4ca1-903b-8638d6beb740" x1="119.44" y1=".5" x2="1.51" y2=".5"/>
      <path class="uuid-32f128d7-65af-4cb4-864c-34384bdc4ffc" d="M.5.5h0M121.46.5h0M121.46,71.47h0M.5,71.47h0"/>
    </g>
  </g>
</svg>