<?xml version="1.0" encoding="UTF-8"?>
<svg id="uuid-be283dd2-539d-4e87-a8a6-dfc54a378e15" data-name="Layer 2" xmlns="http://www.w3.org/2000/svg" viewBox="0 0 333.53 387.74">
  <g id="uuid-b0acd64b-17d4-4eb3-b399-25d6fc70f243" data-name="Layer 3">
    <g>
      <path d="M196.2,211.81c-.05-.53-.07-1.85,0-1.92.14-.13,3.7-.15,3.81,0,2.04,2.84-3.33,1.94-3.82,1.91.08.84.26,1.81.94,2.4-.75.61-1.81-.49-2.85-.49.07-.58-.13-1.78,0-1.91.07-.07,1.4-.03,1.91,0Z"/>
      <path d="M107.22,345.67c4.22,1.29-.71-3.76,1.9-4.77-1.21,5.1,6.68,5.69,6.71,8.6-2.86-1.16-6.23-2.91-8.61-3.82Z"/>
      <path d="M145.49,80.82c-1.42,1.06-2.99,2.49-4.78,3.82.78-.91,1.19-2.12,2.37-2.9.92-.61,1.76-.59,2.42-.92Z"/>
      <path d="M139.75,85.6c.3-.34.67-.62.96-.96-.35.26-.6.7-.96.96Z"/>
      <path d="M145.49,80.82c14.25-10.58,44.59-20.61,62.23-16.78,26.22,5.69,40.6,35.11,45.98,59.23,1.42,2.22,4.23,2.03,6.13,3.43,6.8,4.98-3.35,6.92-3.35,9.1,0,.34,3.71,3.22,4.34,5.21,1.58,4.99-.49,13.38-3.92,17.21-4.18,4.67-8.34-1.58-11.47-1.86-1.54-.14-3.21.92-4.81,1-7.85.38-5.59-10.13-6.17-10.57-.38-.29-2.43.43-3.59-.23-.44-.25-1.21-2.29-2.92-3.3s-3.41-1.02-4.93-1.82c-.23-.12-3.46-5.21-3.87-1.82-.36,2.95,3.53,7.15.4,8.07-3.85,1.13-4.81-3.05-6.63-3.76-2.35-.92-1.07,2.54-1.42,2.86-3.02,2.74-3.52-4.55-3.83-4.78-1.55-1.16-4.14,4-5.72,2.86-1.05-.76.2-4.38.03-5.1-.2-.91-2.7-.2-1.95-2.05.8-1.96,6.11-1.62,7.64-2.88l-12.93-5.25-.94,10.5c-.3,1.84-4.15,7.98-6.25,5.17-2.02-2.69,2.53-7.77-1.9-11.36-6.14-4.98-11.91,8.98-13.4,13.33-3.72,10.83-4.84,35.3-3.8,46.9.69,7.74,2.55,2.04,7.27,1.45,6.9-.87,15.96,10.49,15.22,17.18,4.82-4.29,7.18-10.17,6.16-16.67-.72-4.58-4.07-5.85-2.07-11.75,3.74-11.04,27.63-12.75,25.09,1.14-1.03,5.64-11.28,6.72-12.28,8.31-.72,1.15.08,7.57-.17,9.88-.95,8.77-6.95,18.52-16.23,20.2-2.22.4-4.77-.66-5.77-.17-1.23.61-2.07,3.25-3.33,4.38-2.5,2.23-6.43,1.97-7.62,5.77-1.55,4.96,2.65,11.61,1.39,17.17,1.96.09,6.13-8.19,7.64-6.68.93.93-8.91,8.39-7.65,9.55,1.06.97,4.72-4.02,5.73-.96-7.41.7-5.52,7.33-8.16,11.45-1.8,2.82-5.61,3.32-6.63,4.84-2.17,3.24-1.86,11.8-4.82,15.26l3.34-15.29-4.79,11.46c-1.82.23-.56-1.78-.28-2.67.5-1.59,3.78-8.1,3.16-8.8-.23-.26-6.38,1.75-6.56,2.04-.69,1.07-.74,10.3-1.28,12.58-.5,2.13-2.67,3.85-3.43,6.13-2.76,8.21-6.85,21.46-13.55,27.58-1.33,1.21-3.71,1.2-3.93,1.97-2.22,8.06,2.86,3.49,7.17,4.22,3.47.59,6.79,4.81,7.22,8.19,1.08,8.54-8.43,10.04-13.72,13.94-.53.39-5.18,4.93-4.43,5.56,1.2,1.01,15.39-1.14,18.69-.99,4.16.2,8.22,2.08,12.4,2.03,17.61-.23,39.11-3.57,56.47-3,5.32.17,11.54,2.63,17.2,2.91,6.13.31,11.38-1.1,17.26-.99,7.8.15,15.58,2.49,23.62-.03.79-.25.75-1.82,1.29-1.85,16.49-.7,30.71,4.41,47.76,2.89,2.62-.23,9.7-.82,7.15,2.85-.15.22-3.3-.99-5.22-1.01-5.23-.07-9.99,1.58-15.35,1.02-10.34-1.08-21.79-4.94-32.54-3.64-13.14,1.58-26.65,2.04-40,2.32-8.19.17-16-3.35-22.21-3.5-8.34-.2-20.81,1.89-30.61,1.99-9.38.09-19.54,1.59-28.65.9-8.32-.63-20.38-2.29-28.64-.94-1.6.26-2.7,1.86-4.85,2.01-3.06.21-9.39-2.75-14.19-2.6-9.26.28-12.72,6.07-24.24,3.63-19.53-4.14-31.48-.89-50.5.83-5.48.5-13.57.23-19.21,0-2.17-.09-15.03-1.12-15.75-1.46-1.37-.66-1.55-1.52.49-1.48,4.9.1,11.21,1.53,16.25,1.75,11.32.49,22.54-.05,33.63-3.28l29.03.6c-5.47-5.1-10.71-7.08-10.39-15.82.15-4.12,8.25-11.52,7.46-12.81-.05-.09-1.32.11-1.9-.7s-.48-2.54-1.1-2.99c-.55-.4-3.47-.5-5.52-1.65-3.09-1.73-6.91-7.79-8.66-8.55-5.13-2.23-11.58,1.5-7.64-10.05-2.32,2.44-6.49-10.8-5.75-12.43l-1.45,1.87-1.4,6.73c.24-2.47-.53-5.6.18-7.93.43-1.39,2.26-1.96,2.67-4.03.35-1.8-.41-7.56.02-8.11,2.92-3.81.92,4.91.94,5.25.13,2.53.72,7.9,1.19,10.3.39,1.98,3.94,7.99,3.6,8.35.61-1.78,3.21-4.83,4.11-7.84,2.04-6.75,2.29-14.62,4.45-21.37,2.9-9.04,9.16-19.02,12.48-28.16-.66-.66-6.74,4.53-7.61,5.32-1.2,1.08-3.74,3.54-4.8,4.7-2.16,2.35-9.77,14.02-10.57,14.42-4.36,2.18-3.11-2.3-3.2-3.69-.19-2.94-1.22-5.17.36-8.32,1.67-.04,1.43,2.69,1.9,3.82-.04-.1-1.83-1.04-1.9-.96-.36.42,1.82,6.02.96,7.64,1.63.06,1.07-6.36.95-6.69.32.75.56.94,1,2.35.29.94,0,3.11,1.85,1.47.17-.15,1.12-2.95,2.09-4.13,7.54-9.21,13.22-12.05,20.89-19.28,4.49-4.22,7.35-13.32,11.94-18.66,3.81-4.43,9.15-8.09,13.88-11.46-4.04,4.2-9.54,8.32-13.37,12.93-3.41,4.09-9.6,14.45-12.21,19.35-3.72,6.98-6.35,14.64-9.8,21.75,1.35,1.62,4.43-6.94,4.75-2.9-8.58,9.27-8.76,19.91-12.15,30.88-1.08,3.5-7.57,14.62-4.16,17.01,4.94,3.46,11.53-8.9,12.49-8.2,1.12.83.81,10.65,1.93,11.47,2.58,1.89,6.46-7.39,5.74-9.55,2.25.59,3.62,8.2,6.19,7.64,1.76-.38,2.11-12.77,3.37-15.29,2.18,1.2-.19,3.43,3.09,5.03,11.53,5.62,1.27-17.53,3.58-21.56.58-1.01,2.31-.72,3.31-1.66,4.34-4.08,4.48-3.79,9.46-6.84.92-.57,6.09-4.94,6.38-4.61,1.02,1.16-2.31,3.31-1.9,3.81.16.2,5.89.83,3.82,2.88-.25.25-2.95-2.53-6.7-1.5-2.72.74-11.77,7.72-12.88,10.12-2.24,4.84,1.71,6.4,2.32,10.07,3.05,18.23-9.78,9.23-10.47,10-.36.4.62,9.33-1.1,10.38-3.7,2.24-6.87-.93-7.04-4.64-5.08,10.68-10.1,8.1-10.06-2.87l-4.55,5.24c-.12,1.42,5.56,7.06,6.98,8.12,4.32,3.2,10.54,6.91,15.35,8.56,3.48,4.33,19.02,19.78,23.37,21.11-.68-.26-4.16-1.2-4.78-.48,2.13.38,4.65,4.89,4.96,5.07.73.42,8.45,1.49,8.42-.76,2.91,1.18,6.57,4.39,9.59,3.45,4.2-1.31,12.05-12.78,17.2-14.92-.22.87-.89,2.18-.49,2.85,3.51-2.58,5.18-4.17,6.23-8.58l-5.74,5.73c1-3.88,3.66-6.54,3.82-10.51l-5.73,5.73c-.13-2.51,2.92-3.77,2.88-6.25-.09-5.74-15.59,1.41-17.71,4.34-2.19-3.3,6.93-5.13,7.23-6.37.56-2.31-.83-4.18-.9-5.65-.02-.45,1.63-.29,1.82-1.04,1.4-5.43-6.12-17.01-.02-20.41-1.24,5.68.2,10.69,1.7,16,.71,2.51-.76,5.43,1.67,3.14,6.61-6.24,14.83-26.48,17.25-35.35,3.75-13.8-.36-9.18-9.18-10.98-13.02-2.66-17.85-14.34-26.23-21.59-1.94-1.68-6.97-2.54-7.2-2.86-2.37-3.19,3.14-.28,3.82-1.42-2.63-2.54-7.29-13.04-6.56-16.1.16-.67.99-1.6,1.77-1.6-.45,9.96,6.22,18.27,12.42,25.36,4.7,5.38,13.91,14.59,20.61,16.69.49.15,1.56.26,1.41-.46-2.24-2.02-3.02-5.15-4.79-7.44-.79-1.02-2.28-.23-1.9-1.62l3.82-2.88c-2.75,2.88,4,12.69,6.41,13.24,4.37-1.07,10.96.34,14.93-1.74,1.04-.55,1.16-4.02,3.07-4.8.61,1.52.42,5.99,1.93,2.87,1.05-2.17-3.84-12.48-2.41-14.34,2.37-3.09,2.1,7.08,1.92,7.64,1.62.4.59-1.31,1.08-1.73.18-.16,1.97,1.67,3.22-2.09v2.85c3.51-5.57,1.9-17.46-.44-23.45-1.45-3.72-13.44-21.85-16.28-24.84-1.17-1.23-6.01-5.3-7.2-5.21-1.68.12-1.78,10.5-3.35-3.84l-1.89,3.81c.92-9.92-1.59-19.8-6.52-28.39-3.01-5.24-8.1-9.69-11.48-15.3-2.84-4.72-4.71-11.43-7.4-15.55-.95-1.46-14.45-13.89-15.46-14.19-.93-.27-4.84-.43-5.07-.2-.42.41.12,7.18.42,8.67.87,4.19,6.25,17.89,8.16,22.44.88,2.1,9.77,17.98,10.65,18.59.63.44,2.46-1.27,2.77-.93.6.67-.6,4.17-.59,5.42.04,6.75.53,13.75,1.56,20.4l1.91-4.29c1.28-1.57,1.05,1.15.99,1.92-.22,2.65-.55,6.04-2.43,8.1-1.43-.68.32-2.59.4-3.39.05-.48-1.62-.35-2.14-1.58-.59-1.41-1.14-7.09-1.62-7.45-.36-.27-7.46,3.1-8.32,3.62-2.42,1.46-5.37,4.11-7.93,5.94,1.9-1.97,3.45-4.56,5.8-6.15,1.98-1.34,10.27-4.06,10.5-5.01.36-1.5.21-12.49-.23-13.98l-10.8-16.91c-6.78,4.2-16.93,6.78-24.89,8.59-.68.15-3.35-.54-2.37,1.43,1.09,2.18,13.11,7.72,15.84,8.09,5.03.69,9.89-1.51,14.71-2.4.99-.18,3.13-1.26,2.91.52-10.18,3.23-18.62,4.62-28.41-.75-1.08-.59-6.84-4.89-6.97-5.48-.72-3.28,6.9-3.25,8.64-3.76,3.47-1.02,18.6-5,19.63-7.19.31-.66-3.71-12.06-4.34-13.9-2.51-7.3-7.74-14.44-4.79-22.46,2.02,1.59,4.61.04,6.43.71,1.21.44,14.95,13.03,16.01,14.64,1.22,1.85,4.42,11.08,5.84,11.41.89.2,13.58-5.56,17.28-5.66,5.89-.16,11.18,8.54,11.89,13.77,1.34,9.92-4.92,34.48-1.05,41.21.26.46,5.88,5.97,6.28,6.16.23.11,2.17-3.94,2.26-4.53.3-2.14-1.87-3.77-2.33-5.91-3.25-14.95.42-48.36,6.27-62.72,1.06-2.6,7.25-11.48,6.72-11.92-.81-.67-17.91,2.02-20.95,2.28-.91.08-2.84-.5-2.96-.37-1.01,1.1,1.89,3.06,1.88,3.34-.04,1.53-6.44,3.06-6.67,3.36-.38.48,2.81,2.59,1.91,3.8-.38.52-7.82,3.38-8.6.49,3.28-1.5,7.16,1.54,5.22-3.3-2.4-5.98-8.91-6.65-14.12-3.89-.52.28-6,9.91-5.44,10.55.89,1.02,5.34-5.04,5.72-4.78.27.19,1.75,5.33,4.3,4.77,2.28-.49.25-6.6,3.83-6.7.92,3.89-.62,8.95-5.52,7.53-1.33-.38-2.44-2.6-3.07-2.6-.56,0-2.83,3.02-5.75,2.77-5.73-.49,4.05-7.76,2.39-9.6-1.23-1.36-6.57,0-8.05-.08-3.98-.24-9.96-5.47-10.57-9.34-.13-.82.14-6.77,2.35-4.92.45.38,2.24,7.24,4.24,8.68,1.26.9,5.79,1.39,6.29.88.17-.17.04-3.43.44-4.82,3.99-14.1,8.43-30.33,20.62-39.16-.11.13.21,1.05-.27,1.62-1.69,2-6.01,5.27-6.95,7.96-.47,1.35,2.03,2.35,1.48,2.84-.47.42-2.54-1.08-2.79-.9-.92.63-7.78,15.18-6.77,16.21.24.24,6.6-2.02,3.82.95-.29.31-3.71-.2-4.8,1.69-1.23,2.13.18,5.73,0,5.98-.13.18-1.78-1.05-1.9-.97s-.09,2.77,0,2.88c.29.34,2.41-1.36,2.85-.95,1.93,1.77-1.92,1.85-1.92,2.39,0,.57,3.79.55,1.92,2.39-.26.25-4.54-4.88-4.36.94.1,3.43,12.73,2.72,11.08-1.89,1.59-.42.44,1.76,1.54,1.98,1.49.29,7.4-1.35,8.7-2.34.14-.11.52-2.58,1.22-1.55.15.23-.39,1.65.62,1.93,4.28,1.16,23.02-5.83,30.48-5.84,14.58-.01,44.53,8.2,60.99,10.84,6.79,1.09,12.63,4.13,20.14,2.43,2.31-.52,7.68-3.4,4.48-6-.44-.36-9.6-4.94-10.16-5.03-1.09-.17-2.88,1-3.2.7-2.26-2.17,6.63-3.3,4.77-5.74-.06-.08-1.4.81-1.94.42-.68-.5-.69-1.92-1.08-2.19-.31-.21-1.42,1.16-1.75.81-1.03-1.05,1.67-4.44,3.34-.96-.03-7.23-4.78-16.49-8.6-22.96-17.07-28.97-40.21-35.35-71.71-22.95-.78.31.39,1.85-.02,1.9-4.5.62-11.39,1.88-15.28,4.76-.61.45.45,1.89-.03,1.93-3.19.25-4.74.24-8.16,1.94ZM183.75,123.85c-6.31-.93-11.11-2.06-17.59-.87l-15.88,4.67c8.3.31,15.9-2.99,24.38-1.91l9.09-1.89ZM119.65,130.54c-2.43,1.39-5.32.96-7.59-.54-2.81-1.85-2.45-5.48-4.82-7.11-1.15,2.68,3.82,8.19,5.75,9.06,1.21.55,7.64,1.91,6.67-1.42ZM211.5,133.4c.65-.56.31-1.59,2.39-1.92,1.3-.21,6.81.4,7.18.97.33.51-2.66,5.04,1.89,4.77.06-2.9,4.73-4.17,1.25-5.53l-35.67-6.88c.04,1.27,2.57,2.11,3.62,2.58,5.25,2.39,13.67,5.4,19.34,6.01-1.48,1.28-4.1,2.67-4.52,3.14-.17.19-2.37,4.34-2.18,4.5.38.31,2.8-.45,3.69.13.83.55.26,3.85,2.03,3.7l1.07-2.3c1.54.57,3.57-3.69,4.69-2.47.43.46-1.58,3.87-.94,4.73.12.16,3.5,1.25,3.81.99.17-.14-1.06-2.6-1.05-4.29.04-6.33,4.29-8.47-4.1-8.75-.89-.03-2,.67-2.51.62ZM165.58,205.12c2.09-1.91,3.66-1.76,3.83-1.92,1.78-1.74-1.49-1.88-1.67-2.05-.21-.2.49-1.77.27-2.73-3.22-14.41-1.06-51.22,8.65-63.01,2.87-3.49,4.2-4.9,9.11-3.5,1.75.5,1.66,1.87,2.05,2.11.5.31,2.13-.67,2.63.83.29.88-1.81.13-1.81.88,0,2.25.98,5.21-.09,8.2,2.99.31,4.75-6.25,4.82-8.15.48-14.05-19.87-12.16-23.94-2.8-.67,1.54,1.87,1.99,2.85,2.36.26-1.01.78-4.62.96-4.78.47-.41,5.29,1.01,3.81,2.87-.42.52-2.39-2.4-2.85-1.91-2.54,2.73,4.25,6.14-1.92,3.82-.15.57.46,1.98-.47,1.91-3.28-5.76-6.42.32-3.37,3.36-2.08.24-2.02-.42-2.94,1.78-4.44,10.61-6.54,40.92-5.64,52.7.08,1.06.75,6.88.96,7.18.16.24,4.7-1.35,5.73-.95-.64,3.25-4.37.56-4.78.95-1.67,1.6,2.16,2.88,3.82,2.87-7.41,6.76-4.67,9.69-.22,16.95l8.33,10.77c3.36-2.87.44-2.58.2-2.87-2.64-3.2,2.14-.9,3.59-.97,3.48-.16,5.62-4.01,7.23-6.66-1.18-.5-4.25,1.46-4.78.94-.38-.37.9-2.42.86-3.38-.07-1.43-2.49-7.09-4.68-5.21-.34.29,1.7,5.78.75,8.88-.38,1.24-2.79,3.44-3.62,2.58-1.06-1.1,2.69-3.38,2.88-5.28.23-2.34-1.89-4.62-1.85-6.69.05-2.27,2.79-4.17,1.7-7.46-1.38-4.2-7.78-1.62-10.4-1.6ZM144.53,129.58c-.18-.2.25-1.46-.1-1.79-.24-.23-4.97,1.68-6.6.84l6.69.95c.22,2.02-3.29.46-3.82.96-.36.34-.09,4.79,3.86,3.4,6.6-2.32.44-3.83-.04-4.37ZM126.36,131.5c-1.24-.39-4.81,1.43-3.82,1.89,1.25.58,3.6-.31,3.82-1.89ZM239.25,134.37c-7.61-.59-15.6-4.61-15.3,6.68,2.94-.54.79-3.7.95-3.82,2.01-1.47,1.85,1.86,2.48,1.97,1.66.29,4.06-1.18,4.21-1.02.89.97-1.83,2.78-1.93,4.29-.02.24,3.13,1.98,3.39,3.34-1.43-5.73,2.98-7.8,6.21-11.45ZM255.51,156.35c6.64-5.58,6.46-18.17-3.37-20.15-1.4-.28-8.39-.93-9.51-.86-3.1.21-8.36,4.28-7.99,7.87.14,1.38,1.74,8.98,2.17,10.32,1,3.17,5.15,4.07,6.26,1.38.31-.75-12.45-4.15-1.92-11.95,1.88,3.26-4.13,5-2.45,7.66.39.62,12.15,6.98,12.88,7.13,2.02.42,2.74-.4,3.93-1.4-3.39,2.29-2.26-2.62-2.86-4.78.93.86,3.69.82,3.82.96.15.16-.8,3.71-.96,3.82ZM205.76,137.24c-1.12-.89-4.42.43-2.86,1.9.84.79,3.39-1.48,2.86-1.9ZM151.23,204.15c.67-.72-.18-16.49.02-19.58.19-2.88,1.52-5.91,1.78-8.73.66-7.17-.91-22.16-10.01-23.3-2.72-.34-17.49,3.79-17.51,6.19,0,1.63,9.9,11.72,10.55,14.73,2.82.63,2.94-1.96,4.64-2.76,1.24,3.54-1.48,3.72-1.65,4.03-1.27,2.35,4.21,10.53,5.04,13.14,1.22,3.84.82,12.38,3.58,15.06.62.6,3.12,1.7,3.55,1.23ZM194.28,213.72c-.11.97.22,3.57,0,3.82-1.58,1.75-3.17-4.76-4.77-2.86-1.69,2,1.72,2.71,1.9,3.81-1.01.24-2.08-1.45-2.92-.4-3.37,4.24-4.09,5.12,2.36,4.14,6.71-1.01,12.28-7.24,14.24-13.5.64-2.04,2.25-14.44,1.62-15.1-.25-.26-2.81.22-3.36.93-.9-.61.46-1.43.5-2.27.06-1.06-2.37.08-1.92-1.52,1.11-.18,2.06,1.47,2.86.35.21-.29.43-3.51,1.93-1.3.21.31-1.62,1.78-.48,1.91,5.56-.21,1.47-3.72,2.39-4.78,1.62-1.88,1.9,4.69,6.48,2.17.64-.35,4.15-5.13,4.14-5.5-.33-10.04-22.59-8.32-23.13,3.81-.18,4,2.52,6.55,2.9,9.63.4,3.21-1.32,5.77-.18,8.85-2.52.68-3.28,3.8-4.58,5.89-.32.52-2.4.83-1.92,2.38.16,1.26,1.42-.47,1.92-.47ZM180.66,197.7c-4.73-4.75-13.98,4.84-9.81,5.51,3.21.52,2.14-1.72,2.41-1.88,2.24-1.32,1.71,1.52,2.43,2.71.74,1.21,2.18,1.87,2.36,3.5.31,2.75-3.18,4.27-.52,6.17,4.33-2.06,5.94-13.18,3.12-16ZM183.27,200.35c.5,2.9.18,5.98-.72,8.82-.46,1.45-4.71,6.66-1.17,7.41,4.85,1.02,7.94-13.82,1.89-16.23ZM181.85,217.56c-.53.74.63,2.58,1.5,2.82,4.51,1.22,6.92-9.31,6.14-12.39l-3.79,7.19c-.41,1.51-3.72,2.2-3.85,2.38ZM97.66,340.88c.78-.82-15.47-13.44-15.9-16.19-7.09,2.24-12.88,11.97-8.45,19.02.5.8,4.6,5.02,5.24,5.3,1.58.69,4.08.18,4.63.63.37.3.26,2.34,1.01,3.26,1.92,2.33,11.63,2.05,14.69,1.14,1.69-.5,2.41-1.57,3.63-2.11,2.54-1.13,6.05.33,2.16-3.22-2.83-2.58-6.1-4.75-8.91-7.35-.1-.98,1.65-.21,1.91-.48ZM101.01,342.8v.96c.62-.32.62-.64,0-.96Z"/>
      <path d="M39.3,45.43c.22.28,4.89,1.29,6.65,2.44,5.41,3.54,16.6,20.28,23.73,13.58,1.01-.95,3.05-8.57,3.58-8.36,3.57,1.47-1.33,12-6.69,13.47-14.08,3.86-22.74-20.31-32.38-17.18-3.29,1.07,2.16,12.76,3.44,13.99,2.17,2.09,6.87.48,9.32,1.67l-18.17,9.08c1.48-4.66,4.76-3.78,3.61-9.8-1.01-5.25-9.98-23.72-12.99-29.11-3.77-6.76-4.96-2.11-10.71-2.67,7.83-5.47,18.56-16.08,28.7-11.48,7.6,3.44,10.07,11.41,6.27,18.71-.72,1.38-4.58,5.38-4.36,5.67ZM30.7,48.3c2.34,1.72,13.35-9.62,8.04-19.04-2.61-4.64-13.4-7.01-15.59-3.79-1.24,1.83,6.56,22.1,7.55,22.83Z"/>
      <path d="M197.16,24.42c-1.02,1.52,2.94,3.18,4.04,5.03,4.01,6.72.42,16.05-7.08,18.22-9.18,2.65-16.62-3.14-25.66-2.23l7.49-4.46c1.38-9.94,5.85-25.43,3.96-35.2-.94-4.86-8.41-3.04-5.73-5.78l19.56,2.47c9.48,2.27,14.16,12.58,6.8,20.08-1.26,1.29-3.28,1.71-3.39,1.87ZM183.76,23.45c.28.28,6.67.09,7.9-.23,1.6-.42,5.03-3.18,5.73-4.79,4.61-10.62-8.52-17.88-11.26-13.17-.46.79-3.02,17.53-2.38,18.18ZM183.77,25.35c-.72.52-2.95,16.66-2.74,17.52.4,1.72,3.69,3.15,5.34,3.31,10.81,1.06,15.07-14.92,4.8-19.15-.84-.35-7.09-1.9-7.4-1.68Z"/>
      <path d="M275.58,13.92c1.74,2.04-8.19,16.65-6.67,18.13.97.94,9.44-2.71,13.58,5.07,7.39,13.9-11.37,29.14-22.67,15.97-.87-.15-.21,1.27-.66,1.67s-10.85-1.31-11.3-1.67c-3.18-2.59,7.33-1.39,7.19-2.85,1.69-7.11,13.88-27.92,12.95-33.92-.59-3.85-5.14-1.66-4.83-5.28,1.68.05,12,2.41,12.41,2.9ZM263.5,52.75c9.71,9.44,21.33-11.11,11.07-17.27-2.08-1.25-6.54-2.34-8.3-.31-.45.52-4.8,12.14-4.87,12.91-.16,1.65.99,3.59,2.11,4.68Z"/>
      <path d="M248.81,1.46c1.19,1.08-5.68,17.11-4.77,18.16.11.13,2.1-.93,3.33-1,24.36-1.29,9.42,40.07-9.56,21.08-.91.73-.19,4.62-1.9,4.74-.57.04-11.07-3.91-10.06-4.73.7-.58,4.55,1.3,6.61-1.53,1.27-1.74,7.61-22.54,8.41-26.02.42-1.83,1.52-5.61,1.11-7.16-1.03-3.88-6.1-.89-5.6-4.5,1.85.42,11.97.54,12.43.96ZM252.36,22.78c-9.25-7.44-17.19,11.59-10.52,16.97,7.84,6.32,17.73-11.17,10.52-16.97Z"/>
      <path d="M151.22,32.05c.19-3.89,3.97-10.38,3.78-13.93-.15-2.68-6.38-4.54-4.71-6.15.35-.34,7.62,2.26,9.32,2.62.86.18,8.85-.06,5.98,2.15-.66.51-4.9-.59-7.13,2.92-4.07,8.54-5.93,18.06-9.65,26.69-3.52,8.17-10.21,16.35-19.62,9.16-10.57-8.07,2.85-19.34,4.42-11.11.94,4.9-8.02,10.01,3.76,9.72,6.98-.18,10.73-9.32,9.63-15.42-.59-3.28-6.88-21.36-9.16-22.49-.74-.37-7.22,1.54-4.77-1.37.35-.42,10.13-2.82,10.56-2.48,1.96,1.55,3.82,17.5,7.61,19.68Z"/>
      <path d="M231.59,44.49c-1.79,3.6-6.63,5.07-9.98,2.75-1.07-.74-1.35-2.68-2.15-2.83-1.46-.28-3.44.97-5.35.82-11.56-.89-9.58-18.38,2.69-18.97,2.72-.13,5.55,2.59,6.21-1.41,1.02-6.18-7.01-12.47-9.48-8.93-.51.73.9,11.04-4.9,8.04-6.31-3.27,3.66-11.38,10.03-11.1,17.08.74,4.31,24.7,6.36,30.99,1,3.06,4.37.42,6.57.64ZM215.05,29.31c-4.78,1.34-4.22,13.13.73,13.24,6.74.14,7.93-15.66-.73-13.24Z"/>
      <path d="M107.22,34.92c1.25,1.29-.19,1.68-1.2,2.14-1.41.64-8.62,2.37-9.31,1.68-.44-.44.62-3.83.6-5.09-.11-4.92-1.22-15.1-6.38-17.41-3.39-1.52-7.78,2.82-7.44,6.48.09.93,3.69,11.72,4.11,12.21,1.87,2.23,6.06-.8,5.28,2.84-2.7-.72-13.12,4.84-14.35,3.82-.57-.47,3.65-3.21,3.76-5.19.1-1.7-4.5-16.63-5.67-17.35-.69-.42-8.35,1.79-5.75-1.35.34-.41,9.48-3.96,10-3.84,1.24.29,1.22,3.14,1.95,2.86,1.41-.55,2.88-3.91,5.96-4.59,9.04-2,12.15,7.97,13.42,14.88.42,2.31-.26,6.46.68,7.92,1.35,2.08,4.06-.32,4.33-.04Z"/>
      <path d="M137.85,38.75c1.09,2.94-5.58,2.15-7.23,1.95-1.03-.12-2.21,0-2.9-.96-1.15-1.59,3.52-16.73-2.27-22.55-4.57-4.59-10.76-.49-10.61,5.73.04,1.42,2.39,11.59,2.97,12.41,1.87,2.69,5.28-.05,4.72,3.4l-14.34,1.91c-.69-3.23,3.98-1.33,4.57-4.4.28-1.45-3.4-15.84-4.52-17.16-1.85-2.17-8.18.56-5.79-2.33.33-.4,9.48-2.96,9.98-2.84,1.35.32,1.24,3.11,1.97,2.82,1.73-.68,2.75-4.09,6.76-4.73,9.84-1.55,12.42,6.43,12.66,14.77.13,4.43-4,13.06,4.03,11.95Z"/>
      <path d="M322.47,35.88c1.86,2.01-11.54,13.33-11.53,15.79,0,2.78,13.82,8.89,11.53,10.98-1.98,1.8-12.4-8.52-13.87-8.52-.85,0-9.73,12.2-10.25,13.57-3.37,8.81,3.42,12.25,10.25,7.39.56-.4,8.32-10.01,6.01-3.55-4.06,11.36-23.17,11.9-21.84-2.67.49-5.33,11.49-17.05,10.48-18.54-.12-.18-4.48-1.51-2.78-2.97.38-.33,8.04-.31,9.61-2.34,2.11-.22,11.34-10.25,12.38-9.13Z"/>
      <path d="M70.86,24.4c.94.7,5.44,19.47,8.13,22l7.18,1.42c-1.81,1.62-8.81,5.08-10.56,3.88-.82-.56-.66-2.71-1.38-2.43-3.32,1.27-3.29,6.37-11.28,4.58-6.83-1.53-8.32-15.32-9.32-16.04-1.06-.76-4.49,1.93-5.71.47,1.57-1.67,3.47-2.99,5.45-4.11,7.22-4.08,4.04-2,5.5,3.68,1.01,3.95,3.52,10.97,7.51,12.65,2.82,1.19,6.36-2.97,6.34-5.52,0-.84-5.05-15.26-5.73-15.76-1.34-.98-7.19,4.48-5.71-.5.15-.5,9.15-4.61,9.58-4.3Z"/>
      <path d="M298.56,43.54c1,1.32-12.15,16.93-11.51,21.44.2,1.38,2.74,3.54,1.94,4.36-.75.77-7.62-5.07-8.89-5.93s-4.34-1.55-4.49-1.73c-2.6-3.09,5.38-.57,6.69-1.39,1.82-1.14,9.05-13.6,8.68-16.28-.28-2.05-4.63-2.91-2.93-4.3.43-.35,10.18,3.38,10.52,3.83Z"/>
      <path d="M176.94,307.55c.23.29,1.26,4.43,1.07,4.66-.28.34-6.43-6.17-7.63-1.37-.83,3.32,10.08,7.05,7.89,12.57s-8.41,1.95-8.78,2.29c-.42.37.63,2.2-1.03,1.81v-7.64c1.54-.1.97,2.04,1.86,3.38,2.94,4.45,7.89,2.03,4.88-2.96-1.98-3.28-7.98-4.1-6.6-9.3.95-3.55,7.84-4.05,8.34-3.44Z"/>
      <path d="M183.75,308.38c.47.49-.47,8.06.01,8.6.19.22,3.57-2.02,5.5.25.34.4,2.54,9.92,2.15,10.26-.53.46-2.71.05-3.37-.92-1.38-2.02.83-7.46-1.9-8.62-5.44-2.32-1.04,9.12-1.44,9.55-.16.18-3.15-1.35-4.75-.47,2.3-3.51,2.8-11.95,1.26-15.6-.66-1.56-2.45-.57-2.23-2.09,1.06-.1,4.23-1.53,4.77-.96Z"/>
      <path d="M221.06,308.38c.36.54-.22,3.62,0,4.78-1.59-.29-2.06-3.82-4.32-3.62-.96.09-2.22,1.98-2.32,3.13-.46,5.25,11.07,4.21,7.94,11.73-1.53,3.68-5.55,1.22-7.46,1.15-1.03-.04.15,2.41-1.48,1.96l-.96-6.69c2.01.81,6.28,7.62,7.59,3.26,1.8-5.97-9.7-4.77-7.44-12.15.94-3.08,8.18-3.94,8.45-3.54Z"/>
      <path d="M274.63,311.25c.13.25.12,3.68,0,3.83-.23.28-6.93-4.61-5.73.47.29,1.22,9.78,3.91,6.57,8.97-.35.56-7.34,1.42-7.52,1.09-.4-.74.24-3.55,0-4.79,1.73,2.74,6.51,5.88,5.75.49-.08-.55-8.25-2.55-6.1-7.88.82-2.03,6.84-2.52,7.02-2.18Z"/>
      <path d="M204.81,324.16c.04.28,1.42,1.05.96,1.42-.19.15-4.6.15-4.78,0-.13-.11.89-2.1.98-3.31.13-1.75.24-10.27-.26-10.86-.43-.5-1.53.27-1.69-.64-.09-.51,3.92-1.69,4.79-2.39.48,4.96-.66,10.97,0,15.78Z"/>
      <path d="M297.33,32.19c6.55-1.66,6.96,9.71-.95,7.35-4.3-1.28-2.28-6.53.95-7.35Z"/>
      <path d="M281.35,316.03c.35.41,3.01-1.14,3.81-.95.73,3.38-2.38,1.18-3.68,2.04-1.14.75-1.96,7.98.35,8.47,2.75.59,1.5-3.9,3.33-3.81,0,1.19-.37,4.54-1.57,4.82-7.53,1.78-4.21-5.58-5.09-9-.26-1.02-1.69-.46-1.93-.62-1.12-.72,2.4-1.22,2.81-2.5.61-1.89-1.97-4.32,1.49-6.09,1.29,1.32-.11,6.95.48,7.64Z"/>
      <path d="M296.64,318.89c-.48.46-14.5-1.01-1.92,3.84.31,1.53-2.56,1.14-3.39,1-9.11-1.55-1.53-14.97,3.89-9.63.77.76,1.94,4.28,1.41,4.79ZM293.77,317.94c1.58-1.57-2.44-6.06-3.81-2.38-1.22,3.3,3.4,2.79,3.81,2.38Z"/>
      <path d="M249.77,319.85c-.64.64-1.98,1.24-1.91,1.43.9,2.35,4.32,1.52,4.78,3.34-13.74,1.23-4.72-16.75,1.01-8.16,2.78,4.17-.3,3.55-3.88,3.39,4.97-4.95-.99-4.75-1.91-2.38s.18,2.31,1.91,2.38Z"/>
      <path d="M240.21,326.55c1.28-2.71-4.3-11.06-3.84-11.46.11-.1,2.54-.77,2.88-.52,2.25,1.64-.81,6.13,2.86,5.28.22-4.54-1.69-6.51,3.36-7.62l-3.41,11.88-1.86,2.44Z"/>
      <path d="M200.02,318.89c-.37.39-5.28-.39-5.74,0-.7.6,1.04,2.99,1.93,3.39,1.65.75,2.53-.46,3.78-.06-6.5,5.84-10.97-5.69-5.47-8.38,4.8-2.34,6.6,3.9,5.5,5.04ZM198.1,317.94c1.29-1.19-2.59-4.09-3.82-2.86-2.04,2.05,2.39,4.19,3.82,2.86Z"/>
      <path d="M39.3,284.48c.76.54,3.33-1.67,3.46,3.49.09,3.45-2.04,7.21-1.56,10.85-1.62.25-1.05-2.32-.94-3.33.23-2.09,1.17-4.07.94-6.23-2.06.28-3.38,6.27-3.83,6.69-1.38,1.27-2.06-.33-1.9-1.91,1.92-2.04,3.38-3.76,4.76-6.23-.92-.23-3.21,1.79-3.81,2.4,1.03-2.6,2.56-3.56,2.87-5.74l-7.64,7.65c.81-4,4.54-6.8,7.17-9.56.99-.08.24,1.74.47,1.91Z"/>
      <path d="M35.47,294.04c-.45.47-1.48,2.81-1.9,1.91-1.04-2.23,1.54-4.4,2.86-5.73-.37.93-.86,2.84-.96,3.82Z"/>
      <path d="M234.46,326.07c.03.27,1.53,1.91.95,2.38-.15.12-3.67.12-3.82,0-.26-.22.88-3.21.96-4.29.18-2.38.34-6.41.05-8.66-.26-1.99-2.15-4.09-1.97-4.24.19-.16,2.87-.08,3.83-.97.42,5.04-.58,10.85,0,15.78Z"/>
      <path d="M291.88,169.75c2.8-1.95,7.77,4.44,1.96,9.13-7.74,6.26-2.65-8.65-1.96-9.13ZM290.91,178.33c1.84,1.76,5.15-4.65,3.82-6.68-1.54.1-4.1,6.41-3.82,6.68Z"/>
      <path d="M36.42,275.87c2.01,1.85-2.85,1.86-1.9,2.85.26.27,3.33,2.4,3.56,1.3l1.22,1.58c-6.07-.34-9.28,8.71-13.39,12.43-.88-2.21,6.13-9.16,5.73-9.55-1.21-1.18-5.2,4.02-6.22,4.77-.6-5.82,6.26-4.25,9.09-7.17-.43-1.47-10.06,1.55-6.69-1.42.81-.71,6.98,1.3,7.64-.95h-7.64c-1.18-3.37,4.4-1.24,3.82-2.4-.85-1.68-5.85-3.22-6.69-5.25,2.68-.03,6.22,4.19,8.27,4.52,1.09.18,2.87-1,3.2-.7Z"/>
      <path d="M261.26,80.81c-1.5-.99-.77-10.51.48-10.53,7.65-.13,3.7,13.29-.48,10.53ZM264.11,72.22c-2.28-2.94-2.18,6.27-1.9,6.69,2.39-.27,2.27-6.21,1.9-6.69Z"/>
      <path d="M309.09,317.94c.26.31,2.07-1.79,3.37-1.95,4.94-.61,2.8,5.2,3.33,8.15.23,1.27,2.15,3.14,1.9,3.35-.15.12-3.68.15-3.82.01-.59-.57,1.24-8.79-1.45-9.56-6.04-1.72-1.95,8.28-2.38,8.59-.19.14-4.6.15-4.78,0-.25-.21,1.87-4.52,1.8-6.25s-1.76-3.42-1.73-3.79c.04-.61,3.61-2.55,3.75-2.37.34.41-.32,3.41.02,3.82Z"/>
      <path d="M112.96,66.48c.37.32-6.1,6.12-3.35,8.59,2.63-1.3.83-7.22,4.31-6.68.3,1.81-3.79,11.05-5.73,9.55s1.43-14.37,4.77-11.46Z"/>
      <path d="M302.39,313.17c.24.21-1.07,4.01-1.03,6.23.03,1.63,1.27,5.98,1.03,6.18-.18.15-4.59.15-4.78,0-.22-.18,1.9-2.45,2.01-5.23.14-3.54-2.26-6-2.01-6.23.18-.17,4.6-1.12,4.78-.96Z"/>
      <path d="M266.03,319.85c-.14.13-3.67.12-3.82,0-.53-.45,3.7-5.62-.47-4.77-4.85.98-.98,10.19-1.45,10.5-.16.11-3.67.11-3.83,0-.5-.34,3.21-8.94-.96-11.46,2.2,1.11,8.38-.47,9.63.39,1.09.75,1.21,5.03.89,5.34Z"/>
      <path d="M228.73,326.54c-.18.16-4.6,1.11-4.79.96-.36-.3,2.91-3.46,1.7-8.87-.6-2.69-4.06-1.64,1.66-3.54l1.43,11.45Z"/>
      <path d="M31.17,131.51c3.97,0,2.28,10.43-1.9,9.54-3.29-.7.77-9.54,1.9-9.54ZM32.6,134.37c-1.7-1.88-3.51,3.96-2.86,4.78.5.62,4.08-3.42,2.86-4.78Z"/>
      <path d="M127.33,83.69c2.68-2.07,1.24,10.26-2.39,9.55-1.74-.34-1.35-2.17-.7-3.55.41-.88,2.82-5.8,3.09-6.01Z"/>
      <path d="M77.56,92.29c3.03,2.35-2.62,1.26-2.83,1.37-.53.3-3.69,3.49-3.86,3.89-.7,1.67,1.46,1.88,1.89,1.42.32-.34-.25-3.66,1.92-3.83,2.03,4.83-5.15,6.38-5.73,3.33-.34-1.77,6.39-7.91,8.6-6.2Z"/>
      <path d="M141.67,72.21c-.47-.54.2-3.71.46-4.8.21-.86,1.39-4.44,2.87-3.79,4.29,1.87-1.75,10.41-3.33,8.59ZM145.49,66.48c-1.55-1.29-2.64,1.2-1.9,2.85.47,1.05,2.06-2.73,1.9-2.85Z"/>
      <path d="M95.74,115.25c.24.25-3.39,4.41-1.9,6.68l.95-3.82c4.35-.38,2.53,6.27-.36,5.67-5.11-1.07-.84-10.71,1.32-8.54Z"/>
      <path d="M35.47,262.48c.31.33.65.63.96.96.16.48,1.14,5.52.95,5.74-.15.17-3.99-1.7-4.16-1.85-.8-.68-.41-1.83-.94-2.61-.17-.26-2.61-.6-1.59-1.27.53-.35,2.29.75,1.91-.95l-3.82-1.91c1.67.47,5.42,1.19,6.7,1.9ZM35.47,266.3c.79-.84-1.48-3.39-1.9-2.86-.89,1.12.43,4.42,1.9,2.86Z"/>
      <path d="M35.47,262.48c-.83-.87-4.73-3.86-3.82-4.78.73-.74,7.42,5.41,7.63,7.19.29,3.3-2.49-1.06-2.86-1.45-.22-.63-.46-.68-.96-.96Z"/>
      <path d="M18.97,66.73c2.52,3.1-1.39,9.67-3.58,7.39-.3-.31-.29-8.28,0-8.6.38-.42,3.14.66,3.58,1.21ZM18.25,67.43c-1.96-2.22-2.31,3.03-1.9,4.78,1.82,0,2.47-4.14,1.9-4.78Z"/>
      <path d="M42.17,266.3l-7.65-10.5c4.88.82,5.97,6.78,7.65,10.5Z"/>
      <path d="M44.08,261.53c.15,1.24-.1,2.57,0,3.82-.67-1.88-2.09-5.31-3.01-7.04-.45-.85-3.11-3.14-2.73-3.47,1.85-1.66,5.2,5.42,5.74,6.68Z"/>
      <path d="M44.08,261.53c-.13-1.12-1.53-7.44.95-4.79.4.43,2.05,10.57-.48,11.47-1.07-.26-.21-2.11-.47-2.86,2.33-.75.43-2.82,0-3.82Z"/>
      <path d="M28.78,265.36c-2.92,2.53,8.92,6.1,6.68,8.6-.37.42-8.25-6.36-8.59-7.18-.65-1.56.71-1.69,1.91-1.41Z"/>
      <path d="M298.57,312.2c-1.85-1.85,3.04-5.91,3.82-2.37.44,2.01-3.12,3.07-3.82,2.37Z"/>
      <path d="M227.76,310.3c2.74,2.75-4.98,4.53-3.81,1.44.47-1.25,3.24-2.02,3.81-1.44Z"/>
      <path d="M125.39,54.04c1.41,1.85-5.6,4.85-3.81,0,1.14,1.26,3.7-.14,3.81,0Z"/>
      <path d="M225.85,264.4c.55.55-.8,2.85-1.43,2.85-2.65,0-.02-4.29,1.43-2.85Z"/>
      <path d="M50.78,269.19c.15.13-1.43,3.9-1.9,2.85-.74-1.66.36-4.14,1.9-2.85Z"/>
      <path d="M30.21,265.35c.62.32.62.64,0,.96v-.96Z"/>
      <path d="M332.52,386.78c.62.32.62.64,0,.96v-.96Z"/>
      <path d="M152.47,214.47c.71.9,2.73.91,3.78,3.32,1.87,4.27,1.66,12.62-4.54,12.27-9-.51-2.99-14.1-.47-18.25,2.15.2.93,2.28,1.23,2.66ZM153.14,216.6c-3.64-3.21-7.33,10.89-2.27,12.36,4.65,1.35,5.92-8.25,4.17-11.4-1.3-.52-.91,3.92-2.86,1.9-.41-.43,1.29-2.56.95-2.85Z"/>
      <path d="M246.87,119.99c-.07.1-1.7,1.19-1.9,1.31-1.45.86-2.31.46-2.86-.81-.24-.57,3.78-1.28,4.31-2.38.8-.12.6,1.66.44,1.88Z"/>
      <path d="M137.33,99.49c.62.4,2.42.62.97,1.41-1.62-1.71-4.08,1.19-4.28.96-.35-.4-.21-2.13.6-2.89,2.06-1.93,2.08.12,2.72.53Z"/>
      <path d="M139.75,111.41c-1.3,1.47-3.28-1.27-.47-2.86.85.04.56,2.75.47,2.86Z"/>
      <path d="M146.45,108.55c-1.95,1.61.99,5.13-.94,5.72-.11-1.6-2.91-6.39.94-5.72Z"/>
      <path d="M158.88,80.81c-.62.49-5.07,0-3.82-.94,2.19-1.63,4.49.4,3.82.94Z"/>
      <path d="M134.97,123.85c.19.16-1.39,4.94-1.9,3.81-.63-1.39-.06-5.43,1.9-3.81Z"/>
      <path d="M153.14,87.5c-2.16,1.87-2.95-3.38-.47-4.75-.82,1.59.65,4.6.47,4.75Z"/>
      <path d="M141.66,122.89c-1.59-.22-2.48-2.57-1.89-3.82.46-.99,2.28,2.58,1.89,3.82Z"/>
      <path d="M144.53,119.07c1.04,1.04-.86,2.95-1.9,1.9s.86-2.95,1.9-1.9Z"/>
      <path d="M242.11,114.29c1.04,1.04-.86,2.95-1.9,1.9s.86-2.95,1.9-1.9Z"/>
      <path d="M147.39,82.75c.38.29-.96,1.96,1.91,1.4-4.18,3.86-4.8-3.62-1.91-1.4Z"/>
      <path d="M155.45,90.93c.55.63,1.81.15,1.52.88-1.87,4.63-3.73-3.87-1.93-2.38.06.05-.14.88.41,1.5Z"/>
      <path d="M149.32,91.34l-1.9,1.9c-.27-2-.1-2.18,1.9-1.9Z"/>
      <path d="M141.66,98.98c-.07.07-2.02.36-1.9-.47,1.49-2.61,2.99-.64,1.9.47Z"/>
      <path d="M138.79,117.14c-.07.07-2.02.36-1.9-.47,1.49-2.61,2.99-.64,1.9.47Z"/>
      <path d="M161.75,77.96l-1.9,1.9c-.27-2-.1-2.18,1.9-1.9Z"/>
      <path d="M131.54,113.86c.66.72,2.16-.04,1.51,2.34-1.36-.46-3.49-2.53-2.85-3.82.5-1,1.09,1.2,1.34,1.48Z"/>
      <path d="M132.1,117.15c.16.14-.45,4.09-1.91,3.82l-.95-4.3c.51-.17,2.75.39,2.86.49Z"/>
      <path d="M242.11,117.15c1.09,1.11-.41,3.08-1.9.47-.12-.83,1.84-.54,1.9-.47Z"/>
      <path d="M126.35,129.57c-.33.65-1.63-.56-.94-1.9.33-.65,1.63.56.94,1.9Z"/>
      <path d="M129.22,128.62c-.33.65-1.63-.56-.94-1.9.33-.65,1.63.56.94,1.9Z"/>
      <path d="M138.79,126.71c-.33.65-1.63-.56-.94-1.9.33-.65,1.63.56.94,1.9Z"/>
      <path d="M131.13,125.75c-.62,1.19-1.03-1.54-1.13-1.62-.35-.29-1.23,1.14-1.71.2,1.21-2.61,3.63-.09,2.84,1.42Z"/>
      <path d="M162.7,82.72c-.33.65-1.63-.56-.94-1.9.33-.65,1.63.56.94,1.9Z"/>
      <path d="M126.35,124.79c-.33.65-1.63-.56-.94-1.9.33-.65,1.63.56.94,1.9Z"/>
      <path d="M135.93,122.88c-.93-.45,1.89-1.85,2.85-1.43-.68.85-1.71,1.98-2.85,1.43Z"/>
      <path d="M240.19,122.88c-.33.65-1.63-.56-.94-1.9.33-.65,1.63.56.94,1.9Z"/>
      <path d="M134,122.88c-.33.65-1.63-.56-.94-1.9.33-.65,1.63.56.94,1.9Z"/>
      <path d="M239.24,119.07c.65.33-.56,1.62-1.9.94-.65-.33.56-1.62,1.9-.94Z"/>
      <path d="M135.92,120.97c-.33.65-1.63-.56-.94-1.9.33-.65,1.63.56.94,1.9Z"/>
      <path d="M159.83,84.64c-.33.65-1.63-.56-.94-1.9.33-.65,1.63.56.94,1.9Z"/>
      <path d="M129.22,119.07c.65.33-.56,1.62-1.9.94-.65-.33.56-1.62,1.9-.94Z"/>
      <path d="M125.39,119.06c-.33.65-1.63-.56-.94-1.9.33-.65,1.63.56.94,1.9Z"/>
      <path d="M135.92,116.19c-.33.65-1.63-.56-.94-1.9.33-.65,1.63.56.94,1.9Z"/>
      <path d="M137.83,112.38c.65.33-.56,1.62-1.9.94-.65-.33.56-1.62,1.9-.94Z"/>
      <path d="M134.96,111.41c-.33.65-1.63-.56-.94-1.9.33-.65,1.63.56.94,1.9Z"/>
      <path d="M127.31,111.41c-.33.65-1.63-.56-.94-1.9.33-.65,1.63.56.94,1.9Z"/>
      <path d="M145.48,87.5c-.33.65-1.63-.56-.94-1.9.33-.65,1.63.56.94,1.9Z"/>
      <path d="M156.01,85.61c.65.33-.56,1.62-1.9.94-.65-.33.56-1.62,1.9-.94Z"/>
      <path d="M131.14,107.6c.65.33-.56,1.62-1.9.94-.65-.33.56-1.62,1.9-.94Z"/>
      <path d="M150.27,108.54c-.33.65-1.63-.56-.94-1.9.33-.65,1.63.56.94,1.9Z"/>
      <path d="M134.01,106.64c.65.33-.56,1.62-1.9.94-.65-.33.56-1.62,1.9-.94Z"/>
      <path d="M144.53,90.37c-.33.65-1.63-.56-.94-1.9.33-.65,1.63.56.94,1.9Z"/>
      <path d="M137.83,102.82c.65.33-.56,1.62-1.9.94-.65-.33.56-1.62,1.9-.94Z"/>
      <path d="M150.27,101.86c.65.33-.56,1.62-1.9.94-.65-.33.56-1.62,1.9-.94Z"/>
      <path d="M131.13,103.76c-.33.65-1.63-.56-.94-1.9.33-.65,1.63.56.94,1.9Z"/>
      <path d="M149.31,98.02c-.33.65-1.63-.56-.94-1.9.33-.65,1.63.56.94,1.9Z"/>
      <path d="M146.44,98.02c-.33.65-1.63-.56-.94-1.9.33-.65,1.63.56.94,1.9Z"/>
      <path d="M142.61,96.11c-.33.65-1.63-.56-.94-1.9.33-.65,1.63.56.94,1.9Z"/>
      <path d="M135.45,94.2c.62.32.62.64,0,.96v-.96Z"/>
      <path d="M140.23,93.25c.62.32.62.64,0,.96v-.96Z"/>
      <path d="M152.67,95.16c.62.32.62.64,0,.96v-.96Z"/>
      <path d="M154.58,95.16c.62.32.62.64,0,.96v-.96Z"/>
      <path d="M139.27,96.11c.62.32.62.64,0,.96v-.96Z"/>
      <path d="M147.88,98.98c.62.32.62.64,0,.96v-.96Z"/>
      <path d="M152.67,91.33c.62.32.62.64,0,.96v-.96Z"/>
      <path d="M132.58,99.94c.62.32.62.64,0,.96v-.96Z"/>
      <path d="M141.19,90.38c.62.32.62.64,0,.96v-.96Z"/>
      <path d="M150.75,89.42c.62.32.62.64,0,.96v-.96Z"/>
      <path d="M133.53,102.81c.62.32.62.64,0,.96v-.96Z"/>
      <path d="M145.97,89.42c.62.32.62.64,0,.96v-.96Z"/>
      <path d="M141.19,102.81c.62.32.62.64,0,.96v-.96Z"/>
      <path d="M156.49,88.47c.62.32.62.64,0,.96v-.96Z"/>
      <path d="M130.66,104.72c.62.32.62.64,0,.96v-.96Z"/>
      <path d="M147.88,105.68c.62.32.62.64,0,.96v-.96Z"/>
      <path d="M149.8,87.51c.62.32.62.64,0,.96v-.96Z"/>
      <path d="M146.93,87.51c.62.32.62.64,0,.96v-.96Z"/>
      <path d="M143.1,107.59c.62.32.62.64,0,.96v-.96Z"/>
      <path d="M160.32,86.55c.62.32.62.64,0,.96v-.96Z"/>
      <path d="M142.14,85.6c.62.32.62.64,0,.96v-.96Z"/>
      <path d="M128.75,110.46c.62.32.62.64,0,.96v-.96Z"/>
      <path d="M131.62,110.46c.62.32.62.64,0,.96v-.96Z"/>
      <path d="M143.1,112.37c.62.32.62.64,0,.96v-.96Z"/>
      <path d="M148.84,112.37c.62.32.62.64,0,.96v-.96Z"/>
      <path d="M155.53,82.75c.12,0,1.42,1.3,1.43,1.42.02,1.32-2.75-1.45-1.43-1.42Z"/>
      <path d="M140.23,114.28c.62.32.62.64,0,.96v-.96Z"/>
      <path d="M142.14,116.19c.62.32.62.64,0,.96v-.96Z"/>
      <path d="M133.53,117.15c.62.32.62.64,0,.96v-.96Z"/>
      <path d="M125.88,120.02c.62.32.62.64,0,.96v-.96Z"/>
      <path d="M145.97,121.93c.62.32.62.64,0,.96v-.96Z"/>
      <path d="M165.1,80.82c.62.32.62.64,0,.96v-.96Z"/>
      <path d="M126.84,125.76c.62.32.62.64,0,.96v-.96Z"/>
      <path d="M122.05,128.62c.62.32.62.64,0,.96v-.96Z"/>
      <path d="M167.02,77.95c.62.32.62.64,0,.96v-.96Z"/>
      <path d="M163.19,77.95c.62.32.62.64,0,.96v-.96Z"/>
      <path d="M157.45,76.99c.62.32.62.64,0,.96v-.96Z"/>
      <path d="M161.28,75.08c.62.32.62.64,0,.96v-.96Z"/>
      <path d="M165.1,73.17c.62.32.62.64,0,.96v-.96Z"/>
      <path d="M171.32,142.02l-1.9,1.9c-.27-2-.1-2.18,1.9-1.9Z"/>
      <path d="M178.02,127.68l-1.9,1.9c-.27-2-.1-2.18,1.9-1.9Z"/>
      <path d="M165.57,200.33c-.33.65-1.63-.56-.94-1.9.33-.65,1.63.56.94,1.9Z"/>
      <path d="M172.27,139.15c.65.33-.56,1.62-1.9.94-.65-.33.56-1.62,1.9-.94Z"/>
      <path d="M190.45,130.55c.65.33-.56,1.62-1.9.94-.65-.33.56-1.62,1.9-.94Z"/>
      <path d="M187.58,130.53c-.33.65-1.63-.56-.94-1.9.33-.65,1.63.56.94,1.9Z"/>
      <path d="M185.19,127.67c.62.32.62.64,0,.96v-.96Z"/>
      <path d="M181.37,128.62c.62.32.62.64,0,.96v-.96Z"/>
      <path d="M178.5,129.58c.62.32.62.64,0,.96v-.96Z"/>
      <path d="M190.93,136.27c.62.32.62.64,0,.96v-.96Z"/>
      <path d="M163.19,198.42c.62.32.62.64,0,.96v-.96Z"/>
      <path d="M210.23,178.44c1.96-.16,4.52,4.31,1.03,5.87-6.21,2.79-5.8-5.47-1.03-5.87ZM209.58,184.08c.12-.15.38-3.56-.46-3.82-3.01,1.46,0,4.4.46,3.82Z"/>
      <path d="M201.93,204.15c-2.54,2.56-2.31-5.41-.96-3.81.23.28,1.15,3.63.96,3.81Z"/>
      <path d="M202.89,197.47c1.47,1.3-1.27,3.28-2.86.47.04-.85,2.75-.56,2.86-.47Z"/>
      <path d="M200.97,192.69c1.04,1.04-.86,2.95-1.9,1.9s.86-2.95,1.9-1.9Z"/>
      <path d="M201.93,208.94c-.39.49-2.68-1.89-1.89-2.87.39-.49,2.68,1.89,1.89,2.87Z"/>
      <path d="M195.72,216.59c.62.32.62.64,0,.96v-.96Z"/>
      <path d="M256.46,139.15l-4.23,7.71c-7.12,3.24-2.95-4.58-3.42-5.81-.07-.17-2.68,2.37-1.9-.95,3.37,1.25,6.17-.92,9.55-.95ZM249.78,146.79c3.49-.62.5-5.88,0-4.78-.4.88.24,3.48,0,4.78ZM252.16,142.01v.96c.62-.32.62-.64,0-.96Z"/>
      <path d="M251.68,152.53c.1.11.38,2.82-.47,2.86-2.81-1.59-.83-4.33.47-2.86Z"/>
      <path d="M257.42,149.67l-1.9,1.9c-.27-2-.1-2.18,1.9-1.9Z"/>
    </g>
  </g>
</svg>