<?xml version="1.0" encoding="UTF-8"?>
<svg id="uuid-690431be-07d6-473e-a027-0c50a05a1692" data-name="Layer 2" xmlns="http://www.w3.org/2000/svg" viewBox="0 0 118.41 98.06">
  <g id="uuid-cc22d763-d501-4707-89b6-98e8199f48fd" data-name="Layer 3">
    <g>
      <path d="M67.41.26s.05.39.27.46c1.89.57,5.36,1.53,5.57,3.95.02.28.09.86-.3.85-.25-.01-2.41-2.82-3.65-3.38-4.16-1.88-12.18-.38-16.62.75-6.87,1.75-18.42,7.05-20.92,14.11-1.71,4.84,2.2,9.15,4.2,13.13,7.08,14.1,9.51,26.45-2.56,38.73-.71.72-3.23,2.74-4.16,2.16-1.12-3.5,1.23-6.96,1.66-10.37,1.61-.14.49.54.29,1.28-.68,2.5-1.1,5-1.39,7.57l.55.32c.48-.48,1.43-.71,1.87-1.09,1.7-1.47,6.37-8.26,7.09-10.26,3.6-11.92-.88-21.3-6.69-31.18-1.03-1.75-.58-3.76-3.41-2.92.46-.71,1.27-1.26,1.12-2.24-6.23-1.77-12.8,1.76-18.09,4.82-1.52.88-3.91,2.33-5.33,3.33-1.91,1.35-3.92,3.35-5.78,4.82-.35.99.71,1.16,1.22,1.64,3.79,3.66,10.48,5.57,10.57,11.94.08,5.55-4.41,13.16-7.04,17.8-1.26,2.22-2.97,4.44-3.67,6.82l-1.4-.29.47-.75,3.89-18.38.42-.28c-.74,3.98-1.25,8.06-1.88,12.04-.11.67-1.24,3.08-.09,2.87-.02-.37,0-.76.16-1.1,3.56-7.27,12.69-17.74,4.54-24.97-1.71-1.51-4.07-2.62-5.96-4.03-3.66-2.71-2.65-3.52.44-6.02,3.14-2.55,7.15-4.88,10.58-6.86,5.22-3.02,10.68-6.19,16.97-4.55-.37-2.83.55-5.03,2.14-7.29C38.04,5.76,51.78.39,61.43,0c.71-.03,5.7.15,5.98.26Z"/>
      <path d="M31.17,98.06l-1.06-.76c-1.81-11.62-3.1-23.23-4-34.96l-2.53,2.34c-2.55.65-4.13-.31-4.07-3.05.04-1.86,2.24-7.16,4.07-7.81.32-.11.8-.07,1.14-.04,1.91,1.07-.72,6.73-2.18,7.72-.28.19-.72.17-1.01.32-.76.41-.1,1.73.13,1.87s1.13.11,1.44.04c.15-.04,2.08-2.05,2.17-2.17,1.44-2.06.62-4.4.71-6.77.3-7.84.31-15.66.69-23.54.05-1.11.15-6.18,1.56-5.96,1.13.58.29,2.34.22,3.45-1.32,19.95-1.03,37.6,1.37,57.32.19,1.58,1.88,11.45,1.36,12ZM23.75,57.45c.31-.87.49-2.63-.6-1.6-.5.47-2.5,4.38-2.09,4.79,1.51-.04,1.8-1.82,2.28-2.86.11-.23.39-.27.42-.34Z"/>
      <path d="M88.75,38.9c-.06.11-.38.13-.54.44-1.61,3.04-3.08,6.18-4.71,9.2,2.87.9,5.49.06,8.02-1.4.46.98-1.25,1.66-1.97,1.97-2.28.99-4.42.98-6.87.87-1.56,3.12-3.33,6.18-4.93,9.29-1.31,2.56-2.79,5.33-4.07,8.07-1.25,2.67-2.22,5.5-3.44,8.18l-1.09-.27c-.18-.18.69-2.67.87-3.13,2.38-5.79,5.77-11.46,8.43-17.17l2.66-4.99-.45-.71-4.47-1.45c-1.64-2.04,1.34-1.19,2.51-.82.87.28,2.85,1.59,3.54,1.01l9.43-18.28,1.11.1c.78.51-.31,1.45-.54,2.01-1,2.41-2.29,4.79-3.5,7.06Z"/>
      <path d="M62.29,21.45c-.04.09-.33.14-.43.32-8.7,15.54-15.48,33.27-18.11,51.3-.07.46-.51,2.27.36,1.92-.34-.96.4-1.05.54-1.35.2-.44.12-2.06,1.15-1.61-.8,1.18-1.3,6.75-2.24,7.32-1.65,1.01-1.4-1.83-1.4-2.81,0-1.68.31-3.9.62-5.56,3.09-16.33,7.96-31.39,15.67-45.7.57-1.07,2.43-4.68,3.38-5.29.45-.29.57-.04.81.28-.18.38-.19.79-.35,1.18Z"/>
      <path d="M63.5,47.17l.31,1.66c.83.21.55-.71,1.12-.99.36-.18.74-.16,1.13-.14.3.27-2.08,3.34-.98,3.93.86.13.11-.63.13-.96,0-.15.43-.13.54-.39.38-.96.67-1.95,1.17-2.86.48.19,1.77.57,1.67,1.26-.13.86-.87-.18-1.13,0-1.23,1.75-1.77,3.9-2.18,5.99-.31,1.59-.51,7.59-1.75,8.38-.42.27-.43.06-.72-.14-1.49-1.01-.72-6.02-.41-7.6-.62-.09-.87.56-1.41.73-.58.18-1.19-.35-1.55.41-.09.19-.5,3.71-.53,4.17-.02.42,0,3.28.12,3.41,1.07.25,1.03-2.09,1.97-1.54-.59,1.59-.62,3.12-2.65,3.25-1.6-2.85-.75-7.19,0-10.28.63-2.59,1.97-8.24,5.16-8.29ZM60.72,54.74c1.62-1.59,2.14-3.7,1.96-5.91-1.57,1.3-2.39,3.9-1.96,5.91Z"/>
      <path d="M17,43.95c-.02.07-.37.12-.43.32-1.53,5.27-2.16,10.7-3.12,16.09h.84c.09-1.06.49-2.44.88-3.43.29-.74,1.01-2.32,1.4-3.15.13-.28,1.13-2.12,1.25-2.15,1.82-.48,1.59,2.45,1.53,3.53-.11,2.03-.8,4.97-1.2,6.95-.19.94-.86,4.8-1.38,5.21l-1.05-.38c.32-3.35,1.66-6.56,2.2-9.85.05-.29.53-3.63-.25-3.07-1,1.63-2.02,3.74-2.61,5.55-1.01,3.05-1.4,7.62-2.59,10.35-.59,1.35-1.26.96-1.4-.3,1.74-9.14,1.81-20.18,5.51-28.78.32-.74,1-2.01,1.65-2.42.49.4-.98,4.68-1.23,5.53Z"/>
      <path d="M116.91,46.39c.98.87.85,2.41.79,3.65-.18,3.95-1.45,7.81-1.84,11.73l1.97-2.81c1.51-.05-.36,2.13-.54,2.48-.36.7-3.01,6.7-3.15,2.73-.07-2.08.77-3.99,1.08-5.98.36-2.35,1.34-7.53,1.02-9.67-.15-1-.39-1.1-1.36-.82-2.09.61-3.25,2.43-4.41,4.07-1.69,2.38-3,5.78-4.94,8.25-.91,1.16-2.34,1.63-2.36-.34-.03-2.8,1.42-5.63,2.7-8.02.3-.57,2.23-4.03,2.44-4.15,1.54-.88.58,1.64.24,2.34-1.31,2.65-3.06,5.01-3.89,7.92-.12.41-.21.76.36.65.33-.18,3.24-5.65,3.86-6.55,1.78-2.61,4.57-5.84,8.03-5.45Z"/>
      <path d="M78.72,36.74c-.89-.26-1.82-.02-2.69.27-.65.22-4.96,2.66-5.21,3.01-1.25,1.72,1.54,5.29,2.27,6.98,2.86,6.59,2.47,10.59-1.97,16.32-.65.83-4.53,4.84-5.6,4.06-.53-.92.14-1.54.53-2.38l1.41.31,3.48-3.89c3.17-5.07,3.4-8.11,1.1-13.42-.78-1.8-3.58-5.68-2.92-7.47.46-1.24,5.86-4.63,7.19-4.81,4.33-.57,3,.92,2.83,4.12l-1.42,3.08c-.55-.37-.42-.64-.36-1.19.18-1.55,1.07-3.4,1.34-4.99Z"/>
      <path d="M91.93,53.63c.27,1.5-.8,3.32-1.76,4.41-.2.23-.73.2-.96.44-.64.67-1.77,2.43-2.68,2.83-1.05.46-1.74-.14-2.3-.03-1.07.19-2.32,4.3-2.36,5.36s1.18,2.45,2.22,2.33c2.51-.3,6.18-5.1,7.99-6.9l.42.42c-.92,1.13-1.86,2.5-2.81,3.58-.44.51-3.18,3.32-3.47,3.48-1.84,1.02-3.89.63-5.38-.74-.54-.69-.44-2.69-.21-3.54.81-2.97,6.55-10.74,9.48-11.66.66-.21,1.17,0,1.82.04ZM90.19,56.09c.17-.3.03-.73.06-1.07-1.92,1.02-3.53,2.69-4.49,4.64l.55.42c.89-1.32,2.07-2.26,3.1-3.53.21-.26.72-.36.78-.47Z"/>
      <path d="M60.15,46.03c-1.11,4.06-2.01,8.16-3.76,12-.97.85-2.24,4.22-3.73,4.3-3.88.21-1.92-9.83-.5-10.07l.95.23c-.79,1.18-1.98,7.53-.86,8.32.84.59,2.45-2.42,2.84-3.11,1.32-2.36,3.25-7.75,3.59-10.48.05-.43-.18-.78-.23-1.2h1.69Z"/>
      <path d="M102.63,46.59l-2.05,5.96c-.43,4.13-2.29,8.08-1.6,12.32l1.1-1.07,1.16-2.58c1.72.42.4.84.3,1.06-.63,1.51-1.18,3.07-2.07,4.47l-.93.34c-1.03-.87-1.13-2.68-1.16-4.04-.07-3.77,1.68-10.76,2.99-14.36.18-.49.9-2.26,1.31-2.34l.95.25Z"/>
      <path d="M47.77,40.4l-2.84,11.31c-.82.42-.86,4.41-1.87,1.94,1.1-3.79,1.72-8.51,3.05-12.18.08-.22.72-.4.57-1.01l1.09-.06Z"/>
      <path d="M100.94,39.28c.21.76-.47.52-.84.98l1.37,2.01-.68.67c-.58,0-1.25-1.48-1.67-1.99-.61-.75-1.67-.63-1.28-2.24l3.09.57Z"/>
      <path d="M51.15,31.4c.55.51-2.4,2.83-2.81,2.53-.96-1.79,1.36-2.5,2.81-2.53Z"/>
    </g>
  </g>
</svg>