<?xml version="1.0" encoding="UTF-8"?>
<svg id="uuid-44787f03-fc51-4c0e-87dc-57a7ff35f315" data-name="Layer 2" xmlns="http://www.w3.org/2000/svg" viewBox="0 0 208.06 31.03">
  <defs>
    <style>
      .uuid-30dcfd0c-eef1-408e-9c70-a1e5e4b1def1 {
        fill: #e7a614;
      }

      .uuid-0ca51098-b254-4ad9-a931-f9b17bf6854a {
        fill: #005596;
      }
    </style>
  </defs>
  <g id="uuid-e246fd3f-cf3f-4468-ac92-368b3734f600" data-name="Layer 1">
    <g>
      <path class="uuid-0ca51098-b254-4ad9-a931-f9b17bf6854a" d="M207.32,29.11s-.07-.01-.11-.02c-.06-.39-.42-1.72-2.29-2.66.1-.1.55-.46,2.4-.75l-2.38-2.57-.64,1.62s0,0,0,.02l-1.03-1.11-1.23-1.36,3.85-11.93-6.11-4.37,2.91-3.3.35-2.55-2.5.61-3.22,3.49-5.9-4.21-5.68,4.19-3.2-3.46-2.5-.61.35,2.55,2.92,3.31-5.91,4.35,3.68,11.9-1.26,1.4-1.03,1.11s0-.02,0-.02l-.64-1.62-2.38,2.57c1.85.3,2.3.65,2.4.75-1.87.95-2.22,2.27-2.29,2.66-.04,0-.07,0-.11.02-.52.13-.84.67-.7,1.19.14.52.67.83,1.19.7.43-.11.71-.49.73-.9.38-.1,1.66-.59,2.42-2.55.1.08.49.48.99,2.32l2.26-2.56h0s17.76,0,17.76,0v-.02s2.28,2.58,2.28,2.58c.49-1.83.89-2.24.99-2.32.75,1.96,2.04,2.45,2.42,2.55.02.42.3.79.73.9.52.13,1.05-.18,1.19-.7.13-.52-.18-1.06-.7-1.19M181.05,26.76l.98-1.14.08-.09.52,1.67-1.57-.44ZM196.11,16.36l3.61,9.97-8.08-6.53-8.33,6.36,3.52-9.79-8.5-5.84h10.14l3.03-9.19,2.98,9.19h10.22l-8.59,5.84ZM200.45,27.21l.54-1.67.08.09.98,1.14-1.6.45Z"/>
      <polygon class="uuid-30dcfd0c-eef1-408e-9c70-a1e5e4b1def1" points="195.11 16.02 195.67 15.64 201.93 11.38 194.52 11.38 193.89 11.38 193.7 10.78 191.53 4.12 189.33 10.79 189.14 11.38 188.51 11.38 181.17 11.38 187.37 15.64 187.92 16.02 187.69 16.65 185.17 23.68 191.16 19.11 191.7 18.69 192.23 19.12 197.89 23.69 195.34 16.65 195.11 16.02"/>
      <g>
        <path class="uuid-0ca51098-b254-4ad9-a931-f9b17bf6854a" d="M0,10.93c0-.24.19-.45.46-.45h5.64c2.95,0,5.38,2.4,5.38,5.3s-2.42,5.4-5.35,5.4h-3v5.64c0,.24-.22.46-.46.46H.46c-.26,0-.46-.22-.46-.46v-15.89ZM5.9,18.25c1.34,0,2.47-1.08,2.47-2.5,0-1.32-1.13-2.33-2.47-2.33h-2.78v4.82h2.78Z"/>
        <rect class="uuid-0ca51098-b254-4ad9-a931-f9b17bf6854a" x="16.02" y="10.48" width="3.14" height="16.8" rx=".46" ry=".46"/>
        <path class="uuid-0ca51098-b254-4ad9-a931-f9b17bf6854a" d="M33.63,11.05c0-.31.24-.58.58-.58h2.11c.31,0,.58.26.58.58v6.48l6.05-6.82c.1-.12.24-.24.46-.24h2.4c.46,0,.7.5.38.86l-6.26,7.06,6.72,8.04c.24.31.05.84-.43.84h-2.62c-.24,0-.38-.1-.43-.17l-6.27-7.73v7.32c0,.31-.26.58-.58.58h-2.11c-.34,0-.58-.26-.58-.58v-15.65Z"/>
        <path class="uuid-0ca51098-b254-4ad9-a931-f9b17bf6854a" d="M50.16,26.65l7.46-16.16c.07-.14.19-.26.41-.26h.24c.24,0,.34.12.41.26l7.39,16.16c.14.31-.05.62-.41.62h-2.09c-.36,0-.53-.14-.7-.48l-1.18-2.59h-7.18l-1.18,2.59c-.1.24-.31.48-.7.48h-2.09c-.36,0-.55-.31-.41-.62M60.53,21.54l-2.4-5.28h-.07l-2.35,5.28h4.83Z"/>
        <path class="uuid-0ca51098-b254-4ad9-a931-f9b17bf6854a" d="M70.31,10.93c0-.24.19-.45.46-.45h5.64c2.95,0,5.38,2.4,5.38,5.3s-2.42,5.4-5.35,5.4h-3v5.64c0,.24-.22.46-.46.46h-2.21c-.26,0-.46-.22-.46-.46v-15.89ZM76.21,18.25c1.34,0,2.47-1.08,2.47-2.5,0-1.32-1.13-2.33-2.47-2.33h-2.79v4.82h2.79Z"/>
        <path class="uuid-0ca51098-b254-4ad9-a931-f9b17bf6854a" d="M86.33,10.93c0-.24.19-.45.46-.45h5.64c2.95,0,5.38,2.4,5.38,5.3s-2.42,5.4-5.35,5.4h-3v5.64c0,.24-.22.46-.46.46h-2.21c-.26,0-.46-.22-.46-.46v-15.89ZM92.23,18.25c1.34,0,2.47-1.08,2.47-2.5,0-1.32-1.13-2.33-2.47-2.33h-2.78v4.82h2.78Z"/>
        <path class="uuid-0ca51098-b254-4ad9-a931-f9b17bf6854a" d="M99.1,26.65l7.46-16.16c.07-.14.19-.26.41-.26h.24c.24,0,.34.12.41.26l7.39,16.16c.14.31-.05.62-.41.62h-2.09c-.36,0-.53-.14-.7-.48l-1.18-2.59h-7.18l-1.18,2.59c-.1.24-.31.48-.7.48h-2.09c-.36,0-.55-.31-.41-.62M109.47,21.54l-2.4-5.28h-.07l-2.35,5.28h4.83Z"/>
        <path class="uuid-0ca51098-b254-4ad9-a931-f9b17bf6854a" d="M127.3,10.93c0-.24.19-.45.46-.45h5.64c2.95,0,5.38,2.4,5.38,5.3s-2.43,5.4-5.35,5.4h-3v5.64c0,.24-.22.46-.46.46h-2.21c-.26,0-.46-.22-.46-.46v-15.89ZM133.2,18.25c1.35,0,2.47-1.08,2.47-2.5,0-1.32-1.13-2.33-2.47-2.33h-2.78v4.82h2.78Z"/>
        <path class="uuid-0ca51098-b254-4ad9-a931-f9b17bf6854a" d="M143.32,10.93c0-.24.22-.46.46-.46h2.23c.27,0,.46.22.46.46v6.36h7.83v-6.36c0-.24.19-.46.46-.46h2.21c.24,0,.46.22.46.46v15.89c0,.24-.22.46-.46.46h-2.21c-.26,0-.46-.22-.46-.46v-6.62h-7.83v6.62c0,.24-.19.46-.46.46h-2.23c-.24,0-.46-.22-.46-.46v-15.89Z"/>
        <path class="uuid-0ca51098-b254-4ad9-a931-f9b17bf6854a" d="M164.17,10.48h2.23c.25,0,.46.2.46.46v15.89c0,.25-.2.46-.46.46h-2.23c-.25,0-.46-.2-.46-.46v-15.89c0-.25.2-.46.46-.46Z"/>
      </g>
    </g>
  </g>
</svg>