<svg xmlns="http://www.w3.org/2000/svg" viewBox="0 0 800 500" width="800" height="500">
  <defs>
    <linearGradient id="bg" x1="0%" y1="0%" x2="100%" y2="100%">
      <stop offset="0%" style="stop-color:#080c0a"/>
      <stop offset="100%" style="stop-color:#0a100c"/>
    </linearGradient>
    <linearGradient id="greengrad" x1="0%" y1="0%" x2="100%" y2="0%">
      <stop offset="0%" style="stop-color:#00ff88"/>
      <stop offset="100%" style="stop-color:#00cc66"/>
    </linearGradient>
    <filter id="termglow">
      <feGaussianBlur stdDeviation="2" result="coloredBlur"/>
      <feMerge><feMergeNode in="coloredBlur"/><feMergeNode in="SourceGraphic"/></feMerge>
    </filter>
    <filter id="softglow">
      <feGaussianBlur stdDeviation="20" result="coloredBlur"/>
      <feMerge><feMergeNode in="coloredBlur"/><feMergeNode in="SourceGraphic"/></feMerge>
    </filter>
    <filter id="bigglow">
      <feGaussianBlur stdDeviation="30" result="coloredBlur"/>
      <feMerge><feMergeNode in="coloredBlur"/><feMergeNode in="SourceGraphic"/></feMerge>
    </filter>
  </defs>

  <!-- Background -->
  <rect width="800" height="500" fill="url(#bg)"/>

  <!-- Scanlines effect -->
  <rect width="800" height="500" fill="url(#bg)" opacity="0.3"/>
  <g opacity="0.025">
    <line x1="0" y1="0" x2="800" y2="0" stroke="#00ff88" stroke-width="1"/>
    <line x1="0" y1="4" x2="800" y2="4" stroke="#00ff88" stroke-width="1"/>
    <line x1="0" y1="8" x2="800" y2="8" stroke="#00ff88" stroke-width="1"/>
    <line x1="0" y1="12" x2="800" y2="12" stroke="#00ff88" stroke-width="1"/>
    <line x1="0" y1="16" x2="800" y2="16" stroke="#00ff88" stroke-width="1"/>
    <line x1="0" y1="20" x2="800" y2="20" stroke="#00ff88" stroke-width="1"/>
    <line x1="0" y1="24" x2="800" y2="24" stroke="#00ff88" stroke-width="1"/>
    <line x1="0" y1="28" x2="800" y2="28" stroke="#00ff88" stroke-width="1"/>
    <line x1="0" y1="32" x2="800" y2="32" stroke="#00ff88" stroke-width="1"/>
    <line x1="0" y1="36" x2="800" y2="36" stroke="#00ff88" stroke-width="1"/>
    <line x1="0" y1="40" x2="800" y2="40" stroke="#00ff88" stroke-width="1"/>
    <line x1="0" y1="44" x2="800" y2="44" stroke="#00ff88" stroke-width="1"/>
    <line x1="0" y1="48" x2="800" y2="48" stroke="#00ff88" stroke-width="1"/>
    <line x1="0" y1="52" x2="800" y2="52" stroke="#00ff88" stroke-width="1"/>
    <line x1="0" y1="56" x2="800" y2="56" stroke="#00ff88" stroke-width="1"/>
    <line x1="0" y1="60" x2="800" y2="60" stroke="#00ff88" stroke-width="1"/>
    <line x1="0" y1="64" x2="800" y2="64" stroke="#00ff88" stroke-width="1"/>
    <line x1="0" y1="68" x2="800" y2="68" stroke="#00ff88" stroke-width="1"/>
    <line x1="0" y1="72" x2="800" y2="72" stroke="#00ff88" stroke-width="1"/>
    <line x1="0" y1="76" x2="800" y2="76" stroke="#00ff88" stroke-width="1"/>
    <line x1="0" y1="80" x2="800" y2="80" stroke="#00ff88" stroke-width="1"/>
    <line x1="0" y1="84" x2="800" y2="84" stroke="#00ff88" stroke-width="1"/>
    <line x1="0" y1="88" x2="800" y2="88" stroke="#00ff88" stroke-width="1"/>
    <line x1="0" y1="92" x2="800" y2="92" stroke="#00ff88" stroke-width="1"/>
    <line x1="0" y1="96" x2="800" y2="96" stroke="#00ff88" stroke-width="1"/>
    <line x1="0" y1="100" x2="800" y2="100" stroke="#00ff88" stroke-width="1"/>
    <line x1="0" y1="104" x2="800" y2="104" stroke="#00ff88" stroke-width="1"/>
    <line x1="0" y1="108" x2="800" y2="108" stroke="#00ff88" stroke-width="1"/>
    <line x1="0" y1="112" x2="800" y2="112" stroke="#00ff88" stroke-width="1"/>
    <line x1="0" y1="116" x2="800" y2="116" stroke="#00ff88" stroke-width="1"/>
    <line x1="0" y1="120" x2="800" y2="120" stroke="#00ff88" stroke-width="1"/>
    <line x1="0" y1="124" x2="800" y2="124" stroke="#00ff88" stroke-width="1"/>
    <line x1="0" y1="128" x2="800" y2="128" stroke="#00ff88" stroke-width="1"/>
    <line x1="0" y1="132" x2="800" y2="132" stroke="#00ff88" stroke-width="1"/>
    <line x1="0" y1="136" x2="800" y2="136" stroke="#00ff88" stroke-width="1"/>
    <line x1="0" y1="140" x2="800" y2="140" stroke="#00ff88" stroke-width="1"/>
    <line x1="0" y1="144" x2="800" y2="144" stroke="#00ff88" stroke-width="1"/>
    <line x1="0" y1="148" x2="800" y2="148" stroke="#00ff88" stroke-width="1"/>
    <line x1="0" y1="152" x2="800" y2="152" stroke="#00ff88" stroke-width="1"/>
    <line x1="0" y1="156" x2="800" y2="156" stroke="#00ff88" stroke-width="1"/>
    <line x1="0" y1="160" x2="800" y2="160" stroke="#00ff88" stroke-width="1"/>
    <line x1="0" y1="164" x2="800" y2="164" stroke="#00ff88" stroke-width="1"/>
    <line x1="0" y1="168" x2="800" y2="168" stroke="#00ff88" stroke-width="1"/>
    <line x1="0" y1="172" x2="800" y2="172" stroke="#00ff88" stroke-width="1"/>
    <line x1="0" y1="176" x2="800" y2="176" stroke="#00ff88" stroke-width="1"/>
    <line x1="0" y1="180" x2="800" y2="180" stroke="#00ff88" stroke-width="1"/>
    <line x1="0" y1="184" x2="800" y2="184" stroke="#00ff88" stroke-width="1"/>
    <line x1="0" y1="188" x2="800" y2="188" stroke="#00ff88" stroke-width="1"/>
    <line x1="0" y1="192" x2="800" y2="192" stroke="#00ff88" stroke-width="1"/>
    <line x1="0" y1="196" x2="800" y2="196" stroke="#00ff88" stroke-width="1"/>
    <line x1="0" y1="200" x2="800" y2="200" stroke="#00ff88" stroke-width="1"/>
    <line x1="0" y1="204" x2="800" y2="204" stroke="#00ff88" stroke-width="1"/>
    <line x1="0" y1="208" x2="800" y2="208" stroke="#00ff88" stroke-width="1"/>
    <line x1="0" y1="212" x2="800" y2="212" stroke="#00ff88" stroke-width="1"/>
    <line x1="0" y1="216" x2="800" y2="216" stroke="#00ff88" stroke-width="1"/>
    <line x1="0" y1="220" x2="800" y2="220" stroke="#00ff88" stroke-width="1"/>
    <line x1="0" y1="224" x2="800" y2="224" stroke="#00ff88" stroke-width="1"/>
    <line x1="0" y1="228" x2="800" y2="228" stroke="#00ff88" stroke-width="1"/>
    <line x1="0" y1="232" x2="800" y2="232" stroke="#00ff88" stroke-width="1"/>
    <line x1="0" y1="236" x2="800" y2="236" stroke="#00ff88" stroke-width="1"/>
    <line x1="0" y1="240" x2="800" y2="240" stroke="#00ff88" stroke-width="1"/>
    <line x1="0" y1="244" x2="800" y2="244" stroke="#00ff88" stroke-width="1"/>
    <line x1="0" y1="248" x2="800" y2="248" stroke="#00ff88" stroke-width="1"/>
    <line x1="0" y1="252" x2="800" y2="252" stroke="#00ff88" stroke-width="1"/>
    <line x1="0" y1="256" x2="800" y2="256" stroke="#00ff88" stroke-width="1"/>
    <line x1="0" y1="260" x2="800" y2="260" stroke="#00ff88" stroke-width="1"/>
    <line x1="0" y1="264" x2="800" y2="264" stroke="#00ff88" stroke-width="1"/>
    <line x1="0" y1="268" x2="800" y2="268" stroke="#00ff88" stroke-width="1"/>
    <line x1="0" y1="272" x2="800" y2="272" stroke="#00ff88" stroke-width="1"/>
    <line x1="0" y1="276" x2="800" y2="276" stroke="#00ff88" stroke-width="1"/>
    <line x1="0" y1="280" x2="800" y2="280" stroke="#00ff88" stroke-width="1"/>
    <line x1="0" y1="284" x2="800" y2="284" stroke="#00ff88" stroke-width="1"/>
    <line x1="0" y1="288" x2="800" y2="288" stroke="#00ff88" stroke-width="1"/>
    <line x1="0" y1="292" x2="800" y2="292" stroke="#00ff88" stroke-width="1"/>
    <line x1="0" y1="296" x2="800" y2="296" stroke="#00ff88" stroke-width="1"/>
    <line x1="0" y1="300" x2="800" y2="300" stroke="#00ff88" stroke-width="1"/>
    <line x1="0" y1="304" x2="800" y2="304" stroke="#00ff88" stroke-width="1"/>
    <line x1="0" y1="308" x2="800" y2="308" stroke="#00ff88" stroke-width="1"/>
    <line x1="0" y1="312" x2="800" y2="312" stroke="#00ff88" stroke-width="1"/>
    <line x1="0" y1="316" x2="800" y2="316" stroke="#00ff88" stroke-width="1"/>
    <line x1="0" y1="320" x2="800" y2="320" stroke="#00ff88" stroke-width="1"/>
    <line x1="0" y1="324" x2="800" y2="324" stroke="#00ff88" stroke-width="1"/>
    <line x1="0" y1="328" x2="800" y2="328" stroke="#00ff88" stroke-width="1"/>
    <line x1="0" y1="332" x2="800" y2="332" stroke="#00ff88" stroke-width="1"/>
    <line x1="0" y1="336" x2="800" y2="336" stroke="#00ff88" stroke-width="1"/>
    <line x1="0" y1="340" x2="800" y2="340" stroke="#00ff88" stroke-width="1"/>
    <line x1="0" y1="344" x2="800" y2="344" stroke="#00ff88" stroke-width="1"/>
    <line x1="0" y1="348" x2="800" y2="348" stroke="#00ff88" stroke-width="1"/>
    <line x1="0" y1="352" x2="800" y2="352" stroke="#00ff88" stroke-width="1"/>
    <line x1="0" y1="356" x2="800" y2="356" stroke="#00ff88" stroke-width="1"/>
    <line x1="0" y1="360" x2="800" y2="360" stroke="#00ff88" stroke-width="1"/>
    <line x1="0" y1="364" x2="800" y2="364" stroke="#00ff88" stroke-width="1"/>
    <line x1="0" y1="368" x2="800" y2="368" stroke="#00ff88" stroke-width="1"/>
    <line x1="0" y1="372" x2="800" y2="372" stroke="#00ff88" stroke-width="1"/>
    <line x1="0" y1="376" x2="800" y2="376" stroke="#00ff88" stroke-width="1"/>
    <line x1="0" y1="380" x2="800" y2="380" stroke="#00ff88" stroke-width="1"/>
    <line x1="0" y1="384" x2="800" y2="384" stroke="#00ff88" stroke-width="1"/>
    <line x1="0" y1="388" x2="800" y2="388" stroke="#00ff88" stroke-width="1"/>
    <line x1="0" y1="392" x2="800" y2="392" stroke="#00ff88" stroke-width="1"/>
    <line x1="0" y1="396" x2="800" y2="396" stroke="#00ff88" stroke-width="1"/>
    <line x1="0" y1="400" x2="800" y2="400" stroke="#00ff88" stroke-width="1"/>
    <line x1="0" y1="404" x2="800" y2="404" stroke="#00ff88" stroke-width="1"/>
    <line x1="0" y1="408" x2="800" y2="408" stroke="#00ff88" stroke-width="1"/>
    <line x1="0" y1="412" x2="800" y2="412" stroke="#00ff88" stroke-width="1"/>
    <line x1="0" y1="416" x2="800" y2="416" stroke="#00ff88" stroke-width="1"/>
    <line x1="0" y1="420" x2="800" y2="420" stroke="#00ff88" stroke-width="1"/>
    <line x1="0" y1="424" x2="800" y2="424" stroke="#00ff88" stroke-width="1"/>
    <line x1="0" y1="428" x2="800" y2="428" stroke="#00ff88" stroke-width="1"/>
    <line x1="0" y1="432" x2="800" y2="432" stroke="#00ff88" stroke-width="1"/>
    <line x1="0" y1="436" x2="800" y2="436" stroke="#00ff88" stroke-width="1"/>
    <line x1="0" y1="440" x2="800" y2="440" stroke="#00ff88" stroke-width="1"/>
    <line x1="0" y1="444" x2="800" y2="444" stroke="#00ff88" stroke-width="1"/>
    <line x1="0" y1="448" x2="800" y2="448" stroke="#00ff88" stroke-width="1"/>
    <line x1="0" y1="452" x2="800" y2="452" stroke="#00ff88" stroke-width="1"/>
    <line x1="0" y1="456" x2="800" y2="456" stroke="#00ff88" stroke-width="1"/>
    <line x1="0" y1="460" x2="800" y2="460" stroke="#00ff88" stroke-width="1"/>
    <line x1="0" y1="464" x2="800" y2="464" stroke="#00ff88" stroke-width="1"/>
    <line x1="0" y1="468" x2="800" y2="468" stroke="#00ff88" stroke-width="1"/>
    <line x1="0" y1="472" x2="800" y2="472" stroke="#00ff88" stroke-width="1"/>
    <line x1="0" y1="476" x2="800" y2="476" stroke="#00ff88" stroke-width="1"/>
    <line x1="0" y1="480" x2="800" y2="480" stroke="#00ff88" stroke-width="1"/>
    <line x1="0" y1="484" x2="800" y2="484" stroke="#00ff88" stroke-width="1"/>
    <line x1="0" y1="488" x2="800" y2="488" stroke="#00ff88" stroke-width="1"/>
    <line x1="0" y1="492" x2="800" y2="492" stroke="#00ff88" stroke-width="1"/>
    <line x1="0" y1="496" x2="800" y2="496" stroke="#00ff88" stroke-width="1"/>
  </g>

  <!-- Green ambient glow center -->
  <ellipse cx="400" cy="250" rx="200" ry="160" fill="#00ff88" opacity="0.04" filter="url(#bigglow)"/>

  <!-- macOS terminal window -->
  <rect x="60" y="28" width="680" height="444" rx="10" fill="#0d1208" stroke="#1a2e1a" stroke-width="1"/>
  <!-- Traffic lights -->
  <circle cx="88" cy="50" r="7" fill="#ff5f57"/>
  <circle cx="108" cy="50" r="7" fill="#ffbd2e"/>
  <circle cx="128" cy="50" r="7" fill="#28c840"/>
  <!-- Title bar text -->
  <text x="400" y="55" font-family="monospace" font-size="12" fill="#4b5563" text-anchor="middle">october — jarvis v2.1 — 80×24</text>
  <line x1="60" y1="66" x2="740" y2="66" stroke="#1a2e1a" stroke-width="1"/>

  <!-- Terminal content -->
  <!-- Boot sequence -->
  <text x="82" y="92" font-family="monospace" font-size="11" fill="#00ff88" filter="url(#termglow)">  ██████╗  ██████╗████████╗ ██████╗ ██████╗ ███████╗██████╗</text>
  <text x="82" y="108" font-family="monospace" font-size="11" fill="#00ff88" filter="url(#termglow)" opacity="0.7"> ██╔═══██╗██╔════╝╚══██╔══╝██╔═══██╗██╔══██╗██╔════╝██╔══██╗</text>
  <text x="82" y="124" font-family="monospace" font-size="11" fill="#00ff88" filter="url(#termglow)" opacity="0.5"> ██║   ██║██║        ██║   ██║   ██║██████╔╝█████╗  ██████╔╝</text>
  <text x="82" y="140" font-family="monospace" font-size="11" fill="#00cc66" opacity="0.4"> ██║   ██║██║        ██║   ██║   ██║██╔══██╗██╔══╝  ██╔══██╗</text>

  <text x="82" y="162" font-family="monospace" font-size="11" fill="#4b5563">[SYS]  Initializing October AI Assistant v2.1...</text>
  <text x="82" y="178" font-family="monospace" font-size="11" fill="#4b5563">[SYS]  Loading Ollama (llama3:instruct) ... <tspan fill="#00ff88">OK</tspan></text>
  <text x="82" y="194" font-family="monospace" font-size="11" fill="#4b5563">[SYS]  Loading whisper.cpp (base.en) ... <tspan fill="#00ff88">OK</tspan></text>
  <text x="82" y="210" font-family="monospace" font-size="11" fill="#4b5563">[SYS]  Memory store ... <tspan fill="#00ff88">OK</tspan>  |  Tools ... <tspan fill="#00ff88">14 loaded</tspan></text>
  <text x="82" y="226" font-family="monospace" font-size="11" fill="#4b5563">[SYS]  <tspan fill="#f59e0b">PRIVACY MODE</tspan>: enabled — 100% local, zero cloud calls</text>
  <text x="82" y="242" font-family="monospace" font-size="11" fill="#2d6a2d">──────────────────────────────────────────────────────────</text>

  <!-- Conversation -->
  <text x="82" y="262" font-family="monospace" font-size="11" fill="#6b7280">october&gt; </text>
  <text x="152" y="262" font-family="monospace" font-size="11" fill="#e5e7eb">list files in my Documents folder</text>

  <text x="82" y="280" font-family="monospace" font-size="11" fill="#00ff88" filter="url(#termglow)">[TOOL] list_files("/Users/jake/Documents")</text>
  <text x="82" y="296" font-family="monospace" font-size="11" fill="#4b5563">  → JakeBartonWebsite/   Forge/   ClearDesk/   Resume.pdf</text>

  <text x="82" y="316" font-family="monospace" font-size="11" fill="#6b7280">october&gt; </text>
  <text x="152" y="316" font-family="monospace" font-size="11" fill="#e5e7eb">open spotify and play my focus playlist</text>

  <text x="82" y="334" font-family="monospace" font-size="11" fill="#f59e0b">[GATE] open_app requires approval — allow? [y/N]:</text>
  <text x="82" y="350" font-family="monospace" font-size="11" fill="#e5e7eb">y</text>
  <text x="82" y="366" font-family="monospace" font-size="11" fill="#00ff88" filter="url(#termglow)">[TOOL] open_app("Spotify") → launched ✓</text>

  <text x="82" y="386" font-family="monospace" font-size="11" fill="#6b7280">october&gt; </text>
  <text x="152" y="386" font-family="monospace" font-size="11" fill="#e5e7eb">what did we talk about yesterday?</text>

  <text x="82" y="404" font-family="monospace" font-size="11" fill="#00ff88" filter="url(#termglow)">[MEM]  Retrieving context from memory store...</text>
  <text x="82" y="420" font-family="monospace" font-size="11" fill="#4b5563">  Yesterday: debugged Forge auth, reviewed ClearDesk PR,</text>
  <text x="82" y="436" font-family="monospace" font-size="11" fill="#4b5563">  asked about React hooks best practices (3 sessions).</text>

  <text x="82" y="456" font-family="monospace" font-size="11" fill="#6b7280">october&gt; <tspan fill="#00ff88" filter="url(#termglow)">█</tspan></text>

  <!-- Watermark -->
  <text x="400" y="490" font-family="monospace" font-size="10" fill="#00ff88" opacity="0.12" text-anchor="middle" letter-spacing="3">OCTOBER (JARVIS) · LOCAL AI ASSISTANT · PYTHON · OLLAMA · IN DEVELOPMENT</text>
</svg>
